<svg width="126px" height="110px" viewBox="0 0 126 110" xmlns="http://www.w3.org/2000/svg">
<g id="Icons" stroke="none" stroke-width="1" fill="none" fill-rule="evenodd">
<g id="Quiz-Funnel-Icons" transform="translate(-899.000000, -374.000000)" fill="#8099E8" fill-rule="nonzero">
<g id="Group" transform="translate(899.625000, 374.000000)">
<path d="M59.9517878,23.2199195 C60.9759808,24.2840715 62.4436136,24.235701 63.5177672,23.2199195 L70.58812,17.7697943 C71.6372933,16.7540128 71.6372933,15.7153984 70.58812,14.6996169 C69.5389467,13.6838353 68.6449381,14.1483856 67.5957648,15.1641671 L63.7987566,18.3891017 L63.7987566,2.58782438 C63.7987566,1.16089318 63.3740912,0 61.9002525,0 C60.4264138,0 59.9517878,1.16089318 59.9517878,2.58782438 L59.9517878,18.0905854 L56.2047402,15.1641671 C55.1555669,14.1483856 54.2017139,13.6838353 53.1525406,14.6996169 C52.1033673,15.7153984 52.1283476,16.1738451 53.1525406,17.1896267 L59.9517878,23.2199195 Z" id="Path"></path>
<g id="sunrise-(1)" transform="translate(-0.625000, 31.000000)">
<path d="M122.578216,48.1672825 L92.166284,48.1672825 C90.9297247,32.3414079 78.0972743,19.8545455 62.4998386,19.8545455 C46.9024029,19.8545455 34.0699524,32.3414079 32.8333932,48.1672825 L2.42146073,48.1672825 C1.08416868,48.1672825 0,49.2898699 0,50.6745503 C0,52.0592308 1.08416868,53.1818182 2.42146073,53.1818182 L35.1560583,53.1818182 L89.8439417,53.1818182 L122.578539,53.1818182 C123.915831,53.1818182 125,52.0592308 125,50.6745503 C125,49.2898699 123.915831,48.1672825 122.578216,48.1672825 Z M37.694072,48.1672825 C38.9157797,35.1101002 49.5744041,24.8690811 62.4998386,24.8690811 C75.4249502,24.8690811 86.0838975,35.1104345 87.3056051,48.1672825 L37.694072,48.1672825 L37.694072,48.1672825 Z" id="Shape"></path>
<path d="M110.074119,60.2727273 L14.9258812,60.2727273 C13.5861479,60.2727273 12.5,61.38392 12.5,62.7545455 C12.5,64.1251709 13.5861479,65.2363636 14.9258812,65.2363636 L110.074119,65.2363636 C111.414176,65.2363636 112.5,64.1251709 112.5,62.7545455 C112.5,61.38392 111.414176,60.2727273 110.074119,60.2727273 Z" id="Path"></path>
<path d="M96.8859415,73.0363636 L28.1140585,73.0363636 C26.7777863,73.0363636 25.6944444,74.1475564 25.6944444,75.5181818 C25.6944444,76.8888073 26.7777863,78 28.1140585,78 L96.8859415,78 C98.2225363,78 99.3055556,76.8888073 99.3055556,75.5181818 C99.3055556,74.1475564 98.2225363,73.0363636 96.8859415,73.0363636 Z" id="Path"></path>
<path d="M62.8473843,14.1818182 C64.1897886,14.1818182 65.2777778,13.0994876 65.2777778,11.7644628 L65.2777778,2.41735537 C65.2777778,1.08233058 64.1897886,0 62.8473843,0 C61.50498,0 60.4166667,1.08233058 60.4166667,2.41735537 L60.4166667,11.7644628 C60.4166667,13.0994876 61.50498,14.1818182 62.8473843,14.1818182 Z" id="Path"></path>
<path d="M43.8649715,16.3102142 C44.2863407,17.2025208 45.1848194,17.7272727 46.1237761,17.7272727 C46.4744747,17.7272727 46.830482,17.6538922 47.1695681,17.499304 C48.4160911,16.9308499 48.957899,15.4762858 48.3792628,14.2509949 L44.329473,5.6716756 C43.7508368,4.44638469 42.2713994,3.91347936 41.0248764,4.48258573 C39.7783533,5.05103983 39.2365455,6.50560396 39.8151817,7.73089487 L43.8649715,16.3102142 Z" id="Path"></path>
<path d="M24.4557262,20.758883 L31.4938922,27.0580966 C31.9417033,27.4587568 32.4880391,27.6545455 33.0318324,27.6545455 C33.7091109,27.6545455 34.3819399,27.3507703 34.8532698,26.7603767 C35.7031255,25.6963226 35.5772681,24.1044466 34.5719974,23.2048954 L27.5338313,16.9056818 C26.5288784,16.0057942 25.0246274,16.1390112 24.1747716,17.2034017 C23.324598,18.2671193 23.4504555,19.8593318 24.4557262,20.758883 Z" id="Path"></path>
<path d="M15.6728778,40.5250011 L24.7126036,43.1623218 C24.9268886,43.2249513 25.1424664,43.2545455 25.354489,43.2545455 C26.4194501,43.2545455 27.395853,42.5016152 27.6909393,41.3550138 C28.044849,39.9802622 27.2849936,38.5604311 25.9937889,38.1839659 L16.9540631,35.5466452 C15.6635048,35.1708683 14.3293138,35.9788575 13.9757273,37.3536091 C13.6218177,38.7283607 14.3816731,40.1481918 15.6728778,40.5250011 Z" id="Path"></path>
<path d="M77.1360746,17.499304 C77.4751511,17.6538922 77.8314801,17.7272727 78.181837,17.7272727 C79.120767,17.7272727 80.019552,17.2025208 80.4409093,16.3102142 L84.4905842,7.73089487 C85.0688722,6.50560396 84.5270797,5.05103983 83.280592,4.48258573 C82.0324455,3.91347936 80.5540454,4.44638469 79.9757574,5.6716756 L75.9260825,14.2509949 C75.3477945,15.4766119 75.889587,16.9308499 77.1360746,17.499304 Z" id="Path"></path>
<path d="M91.9681566,27.6545455 C92.5116296,27.6545455 93.0585986,27.4587554 93.5060897,27.0580923 L100.544223,20.7588336 C101.54949,19.8592759 101.675346,18.2670521 100.825495,17.2029904 C99.9753249,16.1392651 98.4717164,16.0057107 97.4661325,16.9056048 L90.4279987,23.2048635 C89.4227327,24.1044212 89.2968758,25.696645 90.1467277,26.7607067 C90.6183732,27.3507681 91.2908813,27.6545455 91.9681566,27.6545455 Z" id="Path"></path>
<path d="M96.6146158,41.3550113 C96.9096957,42.50127 97.8860773,43.2545455 98.9510152,43.2545455 C99.16271,43.2545455 99.3782832,43.2246071 99.5928868,43.1623217 L108.632739,40.5249975 C109.923592,40.1481877 110.683754,38.7283547 110.329852,37.3539454 C109.976274,35.9795361 108.64599,35.1701694 107.351258,35.5469791 L98.3114061,38.1843034 C97.0205527,38.560769 96.2607139,39.980602 96.6146158,41.3550113 Z" id="Path"></path>
</g>
</g>
</g>
</g>
</svg>
