<svg width="66px" height="110px" viewBox="0 0 66 110" xmlns="http://www.w3.org/2000/svg">
<g id="Icons" stroke="none" stroke-width="1" fill="none" fill-rule="evenodd">
<g id="Quiz-Funnel-Icons" transform="translate(-1386.000000, -595.000000)" fill="#8099E8" fill-rule="nonzero">
<g id="raise-hand" transform="translate(1386.520089, 595.651786)">
<path d="M54.9470475,109.348214 C54.0655135,109.348214 53.3508367,108.63354 53.3508367,107.751535 L53.3508367,89.438683 C53.3508367,89.0084311 53.5242916,88.5967006 53.832041,88.2960991 C53.9156825,88.2141362 62.2874891,79.9082084 62.2874891,70.9427455 C62.2874891,66.2361596 61.9278095,61.6966928 61.5798356,57.307101 C61.4370279,55.502853 61.3018821,53.7988764 61.1899345,52.0806362 C61.1326837,51.2005463 61.7994742,50.4409526 62.6790928,50.3834721 C63.560414,50.3289721 64.3185077,50.992978 64.3755456,51.8730678 C64.4860034,53.5689545 64.6200851,55.2620737 64.7622543,57.0546127 C65.1151233,61.5061557 65.4799107,66.1094897 65.4799107,70.9425326 C65.4799107,80.0280658 58.4836122,88.0410561 56.5432583,90.0886381 L56.5432583,107.751535 C56.5432583,108.63354 55.8285815,109.348214 54.9470475,109.348214 L54.9470475,109.348214 Z M27.8987229,109.348214 C27.0171889,109.348214 26.3025121,108.63354 26.3025121,107.751535 L26.3025121,90.349642 C17.0042647,84.7212397 9.58039456,75.6350678 9.24540311,69.3596908 C9.11451382,66.9063393 8.86997432,64.5115326 8.51859511,62.2421186 C8.38366209,61.3705444 8.98064494,60.5547475 9.8517504,60.4197748 C10.7224302,60.2850151 11.5384132,60.8819604 11.6733462,61.7535346 C12.0409003,64.1276908 12.2965069,66.6295815 12.4331426,69.1895912 C12.6853439,73.9123569 19.2802485,82.6202221 28.6964027,88.0557455 C29.1903767,88.341019 29.4947209,88.8681362 29.4947209,89.438683 L29.4947209,107.751535 C29.4949337,108.63354 28.7802569,109.348214 27.8987229,109.348214 Z M41.7174393,78.3447397 C40.8359053,78.3447397 40.1212285,77.6300658 40.1212285,76.74806 C40.1212285,72.4866283 38.2755831,67.7310776 34.923966,63.3572397 C31.5380836,58.938269 26.9669614,55.3465912 21.6332761,52.9000522 C21.7090429,53.5774701 21.7452237,54.2293412 21.7452237,54.8482143 C21.7452237,58.3804955 19.9319282,61.3281791 19.8548844,61.4520815 C19.3881524,62.1999662 18.4036096,62.4283979 17.6557316,61.9617416 C16.9091306,61.4959369 16.6805532,60.5136596 17.1436671,59.7662006 C17.1577138,59.7434213 18.5528021,57.4448412 18.5528021,54.8484272 C18.5528021,50.3998647 16.3198095,43.9294799 10.0530858,39.1104877 C8.35599444,37.8054682 5.96316798,37.177228 4.4422983,38.7153627 C3.40539975,39.7640619 3.41306156,41.3041127 4.46145283,42.6391498 C4.46187849,42.6397885 4.46230415,42.6402143 4.4627298,42.640853 C6.90088864,45.7424565 8.92616094,50.1139526 10.3193338,55.2822983 C10.5489753,56.1338608 10.0449983,57.0101186 9.19368588,57.2396147 C8.34301192,57.4699623 7.46658576,56.9651987 7.23694423,56.1136362 C5.95529334,51.3591498 4.12901532,47.384269 1.95582748,44.6181811 C1.95497617,44.6169037 1.95412486,44.6158393 1.95306072,44.6145619 C-0.090089146,42.0158061 0.000362801164,38.6666108 2.1724865,36.4695795 C4.25479674,34.3636655 8.10038787,33.5810795 11.9985476,36.5787924 C15.3923046,39.1886186 17.7546966,42.2470053 19.3025955,45.2964506 L19.3025955,15.491976 C19.3025955,6.02409124 24.5079454,5.28834124 26.1033049,5.28834124 C26.8911946,5.28834124 28.5591285,5.46780804 30.0459457,6.78943304 C31.2211825,0.876183036 35.161695,0.348214286 36.5129407,0.348214286 C37.8231105,0.348214286 41.5673955,0.844675223 42.8647956,6.26487054 C44.3797061,4.84808343 46.1140424,4.65924944 46.9221508,4.65924944 C48.5175103,4.65924944 53.723073,5.39499944 53.723073,14.8630971 L53.723073,17.4727104 C55.1190126,16.4016576 56.6022117,16.2479506 57.3313608,16.2479506 C58.9267204,16.2479506 64.1322831,16.9837006 64.1322831,26.4515854 L64.1322831,45.3769233 C64.1322831,46.2589291 63.4176063,46.973603 62.5360723,46.973603 C61.6545382,46.973603 60.9398615,46.2589291 60.9398615,45.3769233 L60.9398615,26.4515854 C60.9398615,22.0619936 59.5909569,19.44131 57.3313608,19.44131 C55.0717648,19.44131 53.723073,22.0619936 53.723073,26.4515854 L53.723073,42.8852514 C53.723073,43.7672573 53.0083962,44.4819311 52.1268622,44.4819311 C51.2453282,44.4819311 50.5306514,43.7672573 50.5306514,42.8852514 L50.5306514,14.8630971 C50.5306514,10.4735053 49.1817468,7.85260882 46.9221508,7.85260882 C44.6627675,7.85260882 43.3136501,10.4735053 43.3136501,14.8630971 L43.3136501,39.85156 C43.3136501,40.7335658 42.5989733,41.4482397 41.7174393,41.4482397 C40.8359053,41.4482397 40.1212285,40.7335658 40.1212285,39.85156 L40.1212285,10.5518491 C40.1212285,6.16225725 38.7723239,3.54157366 36.5129407,3.54157366 C34.2535575,3.54157366 32.9044401,6.16225725 32.9044401,10.5518491 L32.9044401,39.85156 C32.9044401,40.7335658 32.1897633,41.4482397 31.3082292,41.4482397 C30.4266952,41.4482397 29.7120184,40.7335658 29.7120184,39.85156 L29.7120184,15.491976 C29.7120184,11.1023842 28.3631138,8.48170061 26.1035178,8.48170061 C23.8439217,8.48170061 22.49523,11.1023842 22.49523,15.491976 L22.49523,46.8292631 C22.49523,48.1643002 22.4669238,49.1014448 22.4296789,49.7565092 C36.146025,55.8087768 43.3134373,67.7934545 43.3134373,76.74806 C43.3136501,77.6300658 42.5989733,78.3447397 41.7174393,78.3447397 L41.7174393,78.3447397 Z" id="Shape"></path>
</g>
</g>
</g>
</svg>
