<svg width="127px" height="110px" viewBox="0 0 127 110" xmlns="http://www.w3.org/2000/svg">
<g id="Icons" stroke="none" stroke-width="1" fill="none" fill-rule="evenodd">
<g id="Quiz-Funnel-Icons" transform="translate(-1356.000000, -374.000000)" fill="#8099E8" fill-rule="nonzero">
<g id="hand-in-hand" transform="translate(1356.227679, 374.000000)">
<path d="M106.081978,4.050895 C95.2381639,-2.0012984 77.8324841,-2.58170333 60.8920505,13.257463 C41.048565,-5.35334715 20.1861694,-2.09382673 8.94236976,9.10420312 C-2.30142992,20.302233 -5.61078268,41.1253112 12.9864325,60.9431954 C10.723342,64.170161 10.5538583,68.4196361 12.5527789,71.816219 C14.5516995,75.2128019 18.3512196,77.1315157 22.2745142,76.725583 C21.8776951,79.8253477 22.9423611,82.933689 25.1569309,85.1409313 C27.3715006,87.3481736 30.4855692,88.4047403 33.587785,88.0014207 C33.2503113,91.225704 34.4896034,94.4147574 36.9164804,96.5671068 C39.3433573,98.7194563 42.6601361,99.5710926 45.8252326,98.8545723 C45.7894922,102.695854 47.9485256,106.2216 51.3883087,107.93919 C54.8280919,109.65678 58.9470718,109.26584 62.0014836,106.931874 L82.7270421,86.5987755 C85.4012877,86.8619746 88.0636672,85.994443 90.0681679,84.2066828 C92.0726687,82.4189225 93.2360887,79.8743264 93.2761303,77.1903275 C96.4554953,77.8822392 99.7688359,76.9107822 102.069493,74.612152 C104.10165,72.6452632 105.111522,69.8517086 104.806235,67.0416529 C107.712639,67.3934994 110.620384,66.3970875 112.698545,64.3371541 C114.776707,62.2772206 115.796645,59.3804016 115.466898,56.474498 C118.25252,56.7154802 121.002434,55.7149105 122.980308,53.7407067 C126.702993,49.9734221 126.702993,43.9168425 122.980308,40.149558 L121.142481,38.3179178 C124.193095,24.8319094 118.085298,10.9348949 106.081978,4.050895 L106.081978,4.050895 Z M59.0415918,103.653427 C56.7648523,105.126932 53.7630295,104.787876 51.8731448,102.843752 C49.9832601,100.899628 49.7321368,97.8923778 51.2734546,95.6623452 L65.7108218,81.2300299 C66.2677597,80.6736925 66.4852688,79.862813 66.2814153,79.102842 C66.0775619,78.3428709 65.4833162,77.749266 64.7225249,77.5456324 C63.9617336,77.3419987 63.1499789,77.5592733 62.593041,78.1156107 L47.6462187,93.0463171 C45.4464617,95.2982885 41.8356523,95.3425394 39.5812502,93.1451542 C37.3268481,90.947769 37.2825495,87.3408529 39.4823065,85.0888815 L54.1617701,70.2969675 C54.9785357,69.4264194 54.9534568,68.0646749 54.1051895,67.2247251 C53.2569222,66.3847754 51.8935403,66.3716735 51.029253,67.1951658 L36.3245271,82.0144177 C34.1038422,84.2390959 30.4982168,84.2442742 28.2711372,82.0259837 C26.0440577,79.8076932 26.0388738,76.2059553 28.2595587,73.981277 L43.2063809,59.0505706 C44.026175,58.183267 44.0063917,56.8218376 43.1617424,55.9786683 C42.3170931,55.135499 40.9541811,55.116656 40.0864949,55.9361514 L25.1817764,70.8269024 C22.9285369,73.0178999 19.323854,72.9694122 17.1304916,70.7186022 C14.9371293,68.4677923 14.9856693,64.8669959 17.2389087,62.6759985 L29.8700261,50.0585001 C30.690406,49.1917494 30.6715428,47.830307 29.8274634,46.9865683 C28.983384,46.1428297 27.620485,46.1230678 26.7522453,46.9419779 L16.0157955,57.6668516 C-0.305713369,40.0612355 2.34261091,21.9025523 12.0559402,12.2249311 C22.0892578,2.23187231 41.1664555,-0.272701121 59.3973683,17.9343491 L69.0559627,26.5710268 C64.4119219,29.5992264 57.687957,29.4057581 54.04809,25.7719185 C52.9786554,24.5101687 51.1934575,22.9540105 49.6271989,24.4239491 L39.1538974,34.5558003 C38.3282776,35.4102159 38.3288189,36.7644533 39.1551214,37.61821 C39.9814238,38.4719668 41.3363324,38.5182145 42.2190486,37.7227924 L51.1450382,29.0861148 C57.0521908,34.7177249 67.8517962,34.3434058 73.99894,28.2049928 C74.4237871,27.7747292 74.6545337,27.189958 74.637845,26.585843 C74.6211563,25.981728 74.3584768,25.4105584 73.9105222,25.004354 L64.1129854,16.2351926 C79.2703263,2.21084315 94.5097695,2.63352935 103.934688,7.8971291 C113.412707,13.1907897 118.710021,23.7148648 117.311042,34.4716837 L108.166113,25.3534382 C104.405664,21.6202485 98.3333732,21.6202485 94.5729251,25.3534382 C93.0669306,26.9035316 92.1063865,28.9007855 91.836183,31.0439299 C88.2960909,29.7768306 84.3417383,30.6715445 81.6937496,33.3387622 C79.0457609,36.0059799 78.1829891,39.9633711 79.4808449,43.4889892 C76.477545,43.8395271 73.8105378,45.5712765 72.2706629,48.1707271 C70.7307881,50.7701776 70.494813,53.9389297 71.6327107,56.7373625 C68.9869237,57.1097278 66.612209,58.5561694 65.069232,60.7351852 C63.5262549,62.9142011 62.9517764,65.6326556 63.4814296,68.2487269 C63.8596781,70.0707799 64.7643119,71.7421092 66.0834397,73.0559938 C66.5971052,73.5186354 77.9587953,85.0846757 78.1566828,84.9143394 L59.0415918,103.653427 Z M87.360557,80.7316387 C85.3202314,82.7384208 82.0453619,82.7384208 80.0050363,80.7316387 L69.1991154,69.9373688 C67.2854405,67.975177 67.2279661,64.865138 69.0678383,62.8337292 C70.9077104,60.8023204 74.011304,60.5491292 76.1567559,62.2554152 L87.7710683,73.8614108 C89.3864355,75.9293 89.2105642,78.8744465 87.360557,80.7358445 L87.360557,80.7316387 Z M98.9622384,71.4788065 C97.8963623,72.5199914 96.4401835,73.063616 94.951965,72.9759326 C93.4637465,72.8882492 92.081639,72.1773974 91.1456819,71.0182678 C91.12463,70.9930328 76.8072584,56.676378 76.8072584,56.676378 C74.810749,54.647754 74.8248697,51.3905984 76.8388932,49.3793237 C78.8529167,47.368049 82.1135919,47.3548784 84.1438325,49.3498172 C83.9333138,49.2005102 101.40636,66.2867059 99.9664122,65.5717144 C100.920193,67.555529 100.51776,69.9245434 98.9622384,71.4830124 L98.9622384,71.4788065 Z M109.614481,61.1745162 C107.993342,62.7707414 105.525223,63.1371595 103.509441,62.0808731 C103.343131,62.6738956 85.2153722,43.9810716 84.7732831,43.7034867 C83.4570896,42.3909662 82.9418537,40.4767234 83.42166,38.6818351 C83.9014662,36.8869468 85.3034205,35.4840992 87.0994203,35.0017314 C88.8954201,34.5193636 90.8126103,35.0307588 92.1288038,36.3432793 C92.1288038,36.3432793 110.161829,54.4830362 110.256563,54.6197257 C111.62793,56.6797402 111.359591,59.4191219 109.614481,61.1745162 L109.614481,61.1745162 Z M119.868843,50.6010525 C118.129792,52.3162865 115.433875,52.600864 113.374343,51.2866032 C113.266979,51.2214128 97.1433575,35.1341023 97.1433575,35.1341023 C95.6192148,32.934437 96.0185387,29.9378822 98.065657,28.213101 C100.112775,26.4883198 103.136944,26.6004414 105.050437,28.4720632 L119.870948,43.2534626 C121.878181,45.2926251 121.877244,48.563038 119.868843,50.6010525 L119.868843,50.6010525 Z" id="Shape"></path>
<path d="M14.4833037,25.0510079 C14.788104,24.3257741 14.6858987,23.4899236 14.2157186,22.8626575 C13.7455386,22.2353914 12.9799941,21.9135788 12.2114372,22.020116 C11.4428804,22.1266532 10.7899999,22.6450876 10.5021228,23.3774355 C7.15875387,31.5800325 8.69155995,41.0566366 14.8433588,50.0604565 C15.5251404,51.0546443 16.8704876,51.2986299 17.848276,50.6054135 C18.8260643,49.9121971 19.0660253,48.5442856 18.3842438,47.5500978 C13.1068644,39.8265608 11.7201379,31.8331604 14.4833037,25.0510079 L14.4833037,25.0510079 Z" id="Path"></path>
<circle id="Oval" cx="16.7723214" cy="17" r="2"></circle>
<circle id="Oval" cx="34.7723214" cy="43" r="2"></circle>
</g>
</g>
</g>
</svg>
