<svg width="122px" height="110px" viewBox="0 0 122 110" xmlns="http://www.w3.org/2000/svg">
<g id="Icons" stroke="none" stroke-width="1" fill="none" fill-rule="evenodd">
<g id="Quiz-Funnel-Icons" transform="translate(-901.000000, -595.000000)" fill="#8099E8" fill-rule="nonzero">
<g id="inhaler" transform="translate(901.102679, 595.651786)">
<path d="M118.324791,86.3482143 L105.473709,86.3482143 C104.053658,86.3482143 102.897321,87.4682012 102.897321,88.8482143 C102.897321,90.2282274 104.049802,91.3482143 105.469852,91.3482143 L118.324791,91.3482143 C119.744841,91.3482143 120.897321,90.2282274 120.897321,88.8482143 C120.897321,87.4682012 119.744841,86.3482143 118.324791,86.3482143 Z" id="Path"></path>
<path d="M112.160277,67.0873027 C111.17088,66.1018515 109.570104,66.1018515 108.580707,67.0873027 L99.6393696,76.0310556 C98.649972,77.0165069 98.649972,78.6170353 99.6393696,79.6062804 C100.62521,80.5955256 102.225985,80.5955256 103.215146,79.6062804 L112.152925,70.6663214 C113.142323,69.6808701 113.146117,68.072754 112.160277,67.0873027 Z" id="Path"></path>
<path d="M112.158233,105.031057 L103.221831,96.0955082 C102.232586,95.1059374 100.624707,95.0947893 99.6392553,96.0881552 C98.6500101,97.0739309 98.6500101,98.6749861 99.6392553,99.6645569 L108.575658,108.607459 C109.564903,109.593234 111.169225,109.597029 112.158233,108.607459 C113.143684,107.621683 113.143684,106.020628 112.158233,105.031057 Z" id="Path"></path>
<path d="M63.2077277,67.8433291 L46.9746548,7.17310797 L42.9498006,8.25422877 L41.5724777,3.10306196 C40.9688917,0.840896777 38.9249464,-0.651785714 36.6921287,-0.651785714 C36.2589308,-0.651785714 35.8181496,-0.596246248 35.3813969,-0.477572175 L6.0810558,7.38458517 C3.38541778,8.10968375 1.78201674,10.8854703 2.50788393,13.5872043 L3.88520685,18.7383711 L-0.102678571,19.8080992 L23.5878917,108.348214 L74.0533162,108.348214 L79.6668787,108.348214 L90.8973214,108.348214 L90.8973214,67.8433291 L63.2077277,67.8433291 Z M8.61009747,11.9478406 C8.97291257,13.2995383 10.3578188,14.1005883 11.7055193,13.7391071 C13.0534568,13.3757271 13.8568162,11.9886645 13.4940011,10.6388656 L13.4940011,10.6369668 L15.9341756,9.98236063 C16.2969907,11.3323969 17.6818969,12.1351083 19.0295975,11.7736271 C20.3810897,11.4102471 21.1808943,10.0231845 20.8180792,8.67148682 L23.2618084,8.01688063 C23.6210688,9.36691688 25.0057381,10.1677295 26.3572303,9.8062483 C27.7051678,9.44476708 28.5047355,8.05770451 28.1419204,6.70600682 L30.5856496,6.05140063 C30.94491,7.40143689 32.3333709,8.20224953 33.6810714,7.8407683 C35.0287719,7.47928708 35.8285766,6.09222451 35.4695532,4.74052682 L36.6878631,4.41227433 L38.0689777,9.56533993 L8.76934747,17.4272599 L7.38823289,12.2760931 L8.61009747,11.9478406 Z M74.0533162,103.286053 L27.4646339,103.286053 L6.08840216,23.3887333 L43.4014829,13.3754897 L58.44966,69.6232028 L50.8810193,77.2036279 C49.8923423,78.1900468 49.8923423,79.7921468 50.8810193,80.7823632 C51.8696964,81.7725797 53.4693058,81.7725797 54.4541912,80.7823632 L62.3190558,72.905253 L74.0533162,72.905253 L74.0533162,103.286053 Z M85.8430298,103.286053 L79.6668787,103.286053 L79.6668787,72.9054903 L85.8430298,72.9054903 L85.8430298,103.286053 Z" id="Shape"></path>
</g>
</g>
</g>
</svg>
