<svg width="105px" height="110px" viewBox="0 0 105 110" xmlns="http://www.w3.org/2000/svg">
<g id="Icons" stroke="none" stroke-width="1" fill="none" fill-rule="evenodd">
<g id="Quiz-Funnel-Icons" transform="translate(-281.000000, -374.000000)" fill="#8099E8" fill-rule="nonzero">
<g id="insulin" transform="translate(281.216518, 374.000000)">
<path d="M103.157031,20.6688314 L83.0565907,0.624618654 C82.2210027,-0.208206218 80.8670682,-0.208206218 80.0314801,0.624618654 C79.1961055,1.45765642 79.1961055,2.80822926 80.0314801,3.64126703 L84.4493799,8.04680841 L78.4499685,14.0294374 C77.900026,13.8246374 77.3137907,13.7126574 76.7091956,13.7126574 C75.380666,13.7126574 74.1317672,14.2287022 73.1919974,15.1656302 L9.74985537,78.430303 C8.80837775,79.3674439 8.28960437,80.6137007 8.28960437,81.9393655 C8.28960437,82.5424823 8.40211201,83.1272905 8.60769998,83.6761204 L4.23014927,88.0414256 C2.26030482,90.0057597 2.26030482,93.2018742 4.23014927,95.1662083 L4.77731642,95.7120578 L0.410013084,100.066931 C-0.425361504,100.899969 -0.425361504,102.250542 0.410013084,103.08358 C0.827807122,103.500205 1.37518776,103.708411 1.9225684,103.708411 C2.46994904,103.708411 3.01732968,103.500205 3.43512372,103.083793 L7.80221357,98.728919 L8.34938072,99.2745556 C9.33440969,100.256616 10.6281408,100.747753 11.921872,100.747753 C13.2156032,100.747753 14.5093343,100.256616 15.4943633,99.2745556 L19.8680712,94.9130824 C20.5130154,95.1598216 21.2149606,95.2862782 21.9431648,95.2862782 C22.9162385,95.2862782 23.9354253,95.0623181 24.9238701,94.6052437 C25.1516607,94.4998633 25.3589566,94.3553111 25.5365778,94.1783997 L37.3176438,82.4302893 C38.1530184,81.5972516 38.1530184,80.2466787 37.3176438,79.413641 C36.4822692,78.5806032 35.1279077,78.5806032 34.2925331,79.413641 L22.8141917,90.8598736 C22.1143813,91.1019293 21.4342118,91.0687185 21.1214533,90.7572607 L12.7732581,82.4324182 C12.5941425,82.2538037 12.5674567,82.0470877 12.5674567,81.9395784 C12.5674567,81.8090769 12.6028955,81.6181148 12.7732581,81.4486545 L20.068322,74.1739974 L22.3927684,76.4919414 C22.8105624,76.9083539 23.357943,77.1165601 23.9053237,77.1165601 C24.4527043,77.1165601 25.000085,76.9083539 25.417879,76.4919414 C26.2532536,75.6589037 26.2532536,74.3083308 25.417879,73.4752931 L23.0934327,71.157349 L28.255975,66.009248 L30.5804214,68.3271921 C30.9982154,68.7436045 31.545596,68.9518107 32.0929767,68.9518107 C32.6405708,68.9518107 33.187738,68.7436045 33.605532,68.3271921 C34.4409066,67.4941543 34.4409066,66.1435815 33.605532,65.3105437 L31.2810857,62.9925996 L36.443628,57.8444987 L38.7680744,60.1624427 C39.1858684,60.5788552 39.7332491,60.7870614 40.2806297,60.7870614 C40.8280103,60.7870614 41.375391,60.5788552 41.793185,60.1624427 C42.6285596,59.329405 42.6285596,57.9788321 41.793185,57.1457944 L39.4687387,54.8278503 L44.631281,49.6797493 L46.9557274,51.9976934 C47.3735214,52.4141058 47.9209021,52.622312 48.4682827,52.622312 C49.0158768,52.622312 49.563044,52.4141058 49.980838,51.9976934 C50.8162126,51.1646556 50.8162126,49.8140828 49.980838,48.981045 L47.6563917,46.6631009 L52.8189341,41.5149999 L55.1433804,43.832944 C55.5611744,44.2493564 56.1085551,44.4575627 56.6559357,44.4575627 C57.2035298,44.4575627 57.750697,44.2493564 58.168491,43.832944 C59.0038656,42.9999063 59.0038656,41.6493334 58.168491,40.8162956 L55.8440447,38.4983516 L76.2166811,18.1827044 C76.3943023,18.0055801 76.6011712,17.9793946 76.7085551,17.9793946 C76.8161526,17.9793946 77.0232349,18.0057929 77.2006426,18.1827044 L85.5505458,26.5094629 C85.719414,26.6774329 85.7548528,26.8679693 85.7548528,26.9984707 C85.7548528,27.1289722 85.719414,27.3195085 85.5488379,27.4893946 L76.3031433,36.7111418 L67.5911663,36.7111418 C65.232135,36.7111418 63.3131005,38.625021 63.3131005,40.9772403 L63.3131005,49.7408487 L47.4446126,65.4772364 C46.6068896,66.3079324 46.6032604,67.6585052 47.4362866,68.4938848 C47.8542941,68.9130648 48.4035961,69.1227612 48.9531117,69.1227612 C49.4985709,69.1227612 50.0442437,68.9160452 50.4616107,68.5021875 L61.1404434,57.9121976 L61.1404434,100.467803 C61.1404434,105.172454 64.978726,109 69.696575,109 L91.4839896,109 C96.2018386,109 100.040121,105.172454 100.040121,100.467803 L100.040121,57.4472463 C100.040121,54.9485588 98.9573152,52.6972492 97.2351156,51.1352768 C97.6332689,50.4874532 97.8672506,49.7289268 97.8672506,48.9148363 L97.8672506,40.9766017 C97.8672506,38.6243823 95.9482161,36.7105031 93.5891848,36.7105031 L82.3527241,36.7105031 L88.5726676,30.5071074 C89.5145722,29.5699665 90.0331321,28.3237097 90.0331321,26.9980449 C90.0331321,26.3942895 89.9244672,25.8073523 89.7182388,25.2583095 L95.7133804,19.2799384 L100.13128,23.6854797 C100.549074,24.1018922 101.096455,24.3100984 101.643835,24.3100984 C102.191216,24.3100984 102.738597,24.1018922 103.156391,23.6854797 C103.992406,22.852442 103.992406,21.5018691 103.157031,20.6688314 L103.157031,20.6688314 Z M12.4696796,96.2579072 C12.2724176,96.4546174 12.0420652,96.4839962 11.922299,96.4839962 C11.8025328,96.4839962 11.5721803,96.4546174 11.3749183,96.2579072 L7.25547339,92.14956 C6.95360279,91.8487467 6.95360279,91.3591002 7.25547339,91.058074 L11.314288,87.0104003 L16.5284943,92.2102336 L12.4696796,96.2579072 Z M95.7624824,57.4472463 L95.7624824,65.1253296 L65.4189362,65.1253296 L65.4189362,57.4472463 C65.4189362,55.095027 67.3379707,53.1811477 69.6970019,53.1811477 L91.4844166,53.1811477 C93.8434478,53.1811477 95.7624824,55.0948141 95.7624824,57.4472463 Z M65.4189362,69.3912153 L95.7624824,69.3912153 L95.7624824,87.8596177 L65.4189362,87.8596177 L65.4189362,69.3912153 Z M91.4844166,104.733476 L69.6970019,104.733476 C67.3379707,104.733476 65.4189362,102.819596 65.4189362,100.467377 L65.4189362,92.1257163 L95.7624824,92.1257163 L95.7624824,100.467377 C95.7624824,102.819596 93.8434478,104.733476 91.4844166,104.733476 Z M93.5923871,48.9148363 C93.5923871,48.9148363 93.5915332,48.9148363 93.5896118,48.9148363 L91.4844166,48.9148363 L69.6970019,48.9148363 L67.5918067,48.9148363 L67.5918067,40.9766017 L93.5896118,40.9766017 L93.5923871,48.9148363 Z M87.0078079,21.9282874 L81.7936017,16.7286671 L87.4744905,11.0636697 L92.6886967,16.26329 L87.0078079,21.9282874 Z" id="Shape"></path>
<circle id="Oval" cx="42.7834821" cy="75" r="2"></circle>
</g>
</g>
</g>
</svg>
