<svg width="110px" height="110px" viewBox="0 0 110 110" xmlns="http://www.w3.org/2000/svg">
<g id="Icons" stroke="none" stroke-width="1" fill="none" fill-rule="evenodd">
<g id="Quiz-Funnel-Icons" transform="translate(-279.000000, -595.000000)" fill="#8099E8" fill-rule="nonzero">
<g id="sun-(1)" transform="translate(279.000000, 595.651786)">
<path d="M73.8947368,35.4534774 C68.9736842,30.5324248 62.0263158,27.3482143 54.5,27.3482143 C46.9736842,27.3482143 40.0263158,30.387688 35.1052632,35.4534774 C30.1842105,40.3745301 27,47.3218985 27,54.8482143 C27,62.3745301 30.1842105,69.3218985 35.1052632,74.2429511 C40.0263158,79.1640038 46.9736842,82.3482143 54.5,82.3482143 C62.0263158,82.3482143 68.9736842,79.3087406 73.8947368,74.2429511 C78.8157895,69.3218985 82,62.3745301 82,54.8482143 C82,47.3218985 78.9605263,40.3745301 73.8947368,35.4534774 Z M68.6842105,69.0324248 C65.0657895,72.6508459 60,74.8218985 54.5,74.8218985 C49,74.8218985 43.9342105,72.6508459 40.3157895,69.0324248 C36.6973684,65.4140038 34.5263158,60.3482143 34.5263158,54.8482143 C34.5263158,49.3482143 36.6973684,44.2824248 40.3157895,40.6640038 C43.9342105,37.0455827 49,34.8745301 54.5,34.8745301 C60,34.8745301 65.0657895,37.0455827 68.6842105,40.6640038 C72.3026316,44.2824248 74.4736842,49.3482143 74.4736842,54.8482143 C74.4736842,60.3482143 72.3026316,65.4140038 68.6842105,69.0324248 Z" id="Shape"></path>
<path d="M105.170543,51.3482143 L93.8294574,51.3482143 C91.7674419,51.3482143 90,52.9635989 90,54.8482143 C90,56.7328297 91.7674419,58.3482143 93.8294574,58.3482143 L105.170543,58.3482143 C107.232558,58.3482143 109,56.7328297 109,54.8482143 C109,52.9635989 107.232558,51.3482143 105.170543,51.3482143 Z" id="Path"></path>
<path d="M55.5,90.3482143 C53.6153846,90.3482143 52,92.1156561 52,94.1776717 L52,105.518757 C52,107.580772 53.6153846,109.348214 55.5,109.348214 C57.3846154,109.348214 59,107.580772 59,105.518757 L59,94.1776717 C59,92.1156561 57.3846154,90.3482143 55.5,90.3482143 Z" id="Path"></path>
<path d="M93.8679245,87.7821765 L85.5660377,79.4802898 C84.2075472,77.9708558 81.6415094,77.9708558 80.1320755,79.4802898 C78.6226415,80.9897237 78.6226415,83.4048181 80.1320755,84.914252 L88.4339623,93.2161388 C89.9433962,94.7255728 92.3584906,94.7255728 93.8679245,93.2161388 C95.3773585,91.7067049 95.3773585,89.2916105 93.8679245,87.7821765 Z" id="Path"></path>
<path d="M55.5,0.348214286 C53.6153846,0.348214286 52,2.11565615 52,4.17767165 L52,15.5187569 C52,17.5807724 53.6153846,19.3482143 55.5,19.3482143 C57.3846154,19.3482143 59,17.5807724 59,15.5187569 L59,4.17767165 C59,2.11565615 57.3846154,0.348214286 55.5,0.348214286 Z" id="Path"></path>
<path d="M93.8679245,15.4802898 C92.3584906,13.9708558 89.9433962,13.9708558 88.4339623,15.4802898 L80.1320755,23.7821765 C78.6226415,25.2916105 78.6226415,27.7067049 80.1320755,29.2161388 C81.490566,30.7255728 84.0566038,30.7255728 85.5660377,29.2161388 L93.8679245,20.914252 C95.3773585,19.4048181 95.3773585,16.9897237 93.8679245,15.4802898 Z" id="Path"></path>
<path d="M15.1705426,51.3482143 L3.82945736,51.3482143 C1.76744186,51.3482143 0,52.9635989 0,54.8482143 C0,56.7328297 1.62015504,58.3482143 3.82945736,58.3482143 L15.1705426,58.3482143 C17.2325581,58.3482143 19,56.7328297 19,54.8482143 C19,52.9635989 17.2325581,51.3482143 15.1705426,51.3482143 Z" id="Path"></path>
<path d="M29.8679245,79.4802898 C28.509434,77.9708558 25.9433962,77.9708558 24.4339623,79.4802898 L16.1320755,87.7821765 C14.6226415,89.2916105 14.6226415,91.7067049 16.1320755,93.2161388 C17.6415094,94.7255728 20.0566038,94.7255728 21.5660377,93.2161388 L29.8679245,84.914252 C31.3773585,83.4048181 31.3773585,80.9897237 29.8679245,79.4802898 Z" id="Path"></path>
<path d="M29.8679245,23.7821765 L21.5660377,15.4802898 C20.0566038,13.9708558 17.6415094,13.9708558 16.1320755,15.4802898 C14.6226415,16.9897237 14.6226415,19.4048181 16.1320755,20.914252 L24.4339623,29.2161388 C25.9433962,30.7255728 28.3584906,30.7255728 29.8679245,29.2161388 C31.3773585,27.7067049 31.3773585,25.2916105 29.8679245,23.7821765 Z" id="Path"></path>
</g>
</g>
</g>
</svg>
