<svg width="56px" height="110px" viewBox="0 0 56 110" xmlns="http://www.w3.org/2000/svg">
<g id="Icons" stroke="none" stroke-width="1" fill="none" fill-rule="evenodd">
<g id="Quiz-Funnel-Icons" transform="translate(-692.000000, -595.000000)" fill="#8099E8" fill-rule="nonzero">
<g id="sahne" transform="translate(692.011161, 595.651786)">
<path d="M54.7134771,2.09583343 C53.736429,0.985183036 52.3248757,0.348214286 50.8414398,0.348214286 L5.13582533,0.348214286 C3.65238942,0.348214286 2.24083619,0.985183036 1.26378805,2.09583343 C0.286525975,3.20648382 -0.161884995,4.68266741 0.0338669315,6.14629046 L11.1425213,89.1817241 C11.3966779,91.0783666 12.6890685,92.6256557 14.4001329,93.2845522 L14.4001329,107.512671 C14.4001329,108.526669 15.2259279,109.348214 16.2446937,109.348214 L40.5810438,109.348214 C41.5998095,109.348214 42.4256045,108.526669 42.4256045,107.512671 L42.4256045,92.8640932 C43.704945,92.0783139 44.6257278,90.7500893 44.8355996,89.1815112 L55.9438261,6.14607757 C56.139578,4.68266741 55.6909531,3.20648382 54.7134771,2.09583343 Z M38.7360551,105.677128 L38.7358412,105.677128 L36.5100455,105.677128 C35.618572,102.195089 32.2514249,99.5969721 28.2428961,99.5969721 C24.2343674,99.5969721 20.8672203,102.195089 19.9755328,105.677128 L18.0890405,105.677128 L18.0890405,93.627519 L38.7362691,93.627519 L38.7362691,105.677128 L38.7360551,105.677128 Z M52.286795,5.66196429 L51.9231029,8.38057757 L51.4319046,12.0516635 L41.1781406,88.6973979 C41.0820831,89.415478 40.4608114,89.9568588 39.7329994,89.9568588 L16.2444797,89.9568588 C15.5166676,89.9568588 14.895182,89.4152651 14.7993384,88.6973979 L3.69047012,5.66196429 C3.61452266,5.09439788 3.87616703,4.69927288 4.03897273,4.51448382 C4.2015645,4.32969475 4.56033606,4.019726 5.13561139,4.019726 L50.8414398,4.019726 C51.4167151,4.019726 51.7754867,4.33012054 51.9380785,4.51448382 C52.1010981,4.69905999 52.3625286,5.09439788 52.286795,5.66196429 Z" id="Shape"></path>
<path d="M44.5326611,20.9659162 C44.1829761,20.573558 43.6777806,20.3482143 43.1467379,20.3482143 L11.8305992,20.3482143 C11.2972067,20.3484241 10.7903024,20.5756562 10.4404037,20.9709518 C10.0905051,21.3662475 9.9326449,21.8912103 10.0067687,22.4098785 L12.2142487,37.79179 C12.3424167,38.6845624 13.1201827,39.3482143 14.0380791,39.3482143 L41.0539683,39.3482143 C41.9767778,39.3482143 42.7573209,38.6774286 42.8795077,37.7787813 L44.9727045,22.3968698 C45.0427697,21.8800899 44.8825597,21.3584843 44.5326611,20.9659162 Z M39.441615,35.7305455 L15.6382565,35.7305455 L13.9500705,23.9665126 L41.0424332,23.9665126 L39.441615,35.7305455 Z" id="Shape"></path>
</g>
</g>
</g>
</svg>
