<svg width="109px" height="109px" viewBox="0 0 109 109" xmlns="http://www.w3.org/2000/svg">
<g id="Icons" stroke="none" stroke-width="1" fill="none" fill-rule="evenodd">
<g id="Quiz-Funnel-Icons" transform="translate(-1141.000000, -374.000000)" fill="#8099E8" fill-rule="nonzero">
<g id="pills-bottle" transform="translate(1141.000000, 374.000000)">
<path d="M101.733404,0 L50.8665957,0 C46.8533945,0 43.6,3.25339453 43.6,7.2665957 L43.6,16.35 C43.6123477,19.6534238 45.8513184,22.5327695 49.05,23.3587852 L49.05,58.1334043 L9.0834043,58.1334043 C4.06919141,58.1393652 0.0059609375,62.2025957 0,67.2165957 L0,99.9165957 C0.0059609375,104.930809 4.06919141,108.994039 9.0834043,109 L96.2834043,109 C100.296605,109 103.55,105.746605 103.55,101.733404 L103.55,23.3587852 C106.748682,22.5329824 108.987652,19.6536367 109,16.35 L109,7.2665957 C109,3.25339453 105.746605,0 101.733404,0 Z M65.4,99.9165957 C65.4,102.926443 62.9598477,105.366596 59.95,105.366596 L9.0834043,105.366596 C6.07355664,105.366596 3.6334043,102.926443 3.6334043,99.9165957 L3.6334043,67.2165957 C3.6334043,64.206748 6.07355664,61.7665957 9.0834043,61.7665957 L59.95,61.7665957 C62.9598477,61.7665957 65.4,64.206748 65.4,67.2165957 L65.4,99.9165957 Z M59.95,58.1334043 L52.6834043,58.1334043 L52.6834043,52.6834043 L76.3,52.6834043 C77.3033535,52.6834043 78.1165957,51.8699492 78.1165957,50.8668086 C78.1165957,49.8634551 77.3033535,49.0502129 76.3,49.0502129 L52.6834043,49.0502129 L52.6834043,39.9668086 L87.2,39.9668086 C88.2033535,39.9668086 89.0165957,40.7802637 89.0165957,41.7834043 L89.0165957,87.2 C89.0165957,88.2033535 88.2031406,89.0165957 87.2,89.0165957 L69.0334043,89.0165957 L69.0334043,78.1165957 L76.3,78.1165957 C77.3033535,78.1165957 78.1165957,77.3033535 78.1165957,76.3 C78.1165957,75.2966465 77.3033535,74.4834043 76.3,74.4834043 L69.0334043,74.4834043 L69.0334043,70.85 L76.3,70.85 C77.3033535,70.85 78.1165957,70.0367578 78.1165957,69.0334043 C78.1165957,68.0300508 77.3033535,67.2168086 76.3,67.2168086 L69.0334043,67.2168086 C69.0272305,62.2025957 64.964,58.1393652 59.95,58.1334043 Z M99.9168086,101.733404 C99.9168086,103.740111 98.2898984,105.366809 96.2831914,105.366809 L67.169334,105.366809 C68.3715273,103.803766 69.0265918,101.888814 69.0331914,99.9168086 L69.0331914,92.65 L87.2,92.65 C90.2098477,92.65 92.65,90.2098477 92.65,87.2 L92.65,41.7834043 C92.65,38.7735566 90.2098477,36.3334043 87.2,36.3334043 L52.6834043,36.3334043 L52.6834043,23.6168086 L99.9168086,23.6168086 L99.9168086,101.733404 L99.9168086,101.733404 Z M105.366596,16.35 C105.366596,18.356707 103.739898,19.9834043 101.733191,19.9834043 L50.8665957,19.9834043 C48.8598887,19.9834043 47.2331914,18.356707 47.2331914,16.35 L47.2331914,7.2665957 C47.2331914,5.25988867 48.8598887,3.63319141 50.8665957,3.63319141 L101.733191,3.63319141 C103.739898,3.63319141 105.366596,5.25988867 105.366596,7.2665957 L105.366596,16.35 Z" id="Shape_37_"></path>
<g id="Group" transform="translate(53.000000, 7.000000)">
<path d="M1.80762713,0 C0.809227191,0 0,0.806004781 0,1.79995781 L0,7.20004219 C0,8.19420616 0.809439031,9 1.80762713,9 C2.80602706,9 3.61525425,8.19420616 3.61525425,7.20004219 L3.61525425,1.79995781 C3.61525425,0.806004781 2.80602706,0 1.80762713,0 Z" id="Path_23_"></path>
<path d="M9.03834747,0 C8.03994754,0 7.23072034,0.806004781 7.23072034,1.79995781 L7.23072034,7.20004219 C7.23072034,8.19420616 8.04015938,9 9.03834747,9 C10.0367474,9 10.8459746,8.19420616 10.8459746,7.20004219 L10.8459746,1.79995781 C10.8461864,0.806004781 10.0367474,0 9.03834747,0 Z" id="Path_22_"></path>
<path d="M16.2692797,0 C15.2708797,0 14.4616525,0.806004781 14.4616525,1.79995781 L14.4616525,7.20004219 C14.4616525,8.19420616 15.2710916,9 16.2692797,9 C17.2674678,9 18.0769068,8.19420616 18.0769068,7.20004219 L18.0769068,1.79995781 C18.0769068,0.806004781 17.2676796,0 16.2692797,0 Z" id="Path_21_"></path>
<path d="M23.5,0 C22.5016001,0 21.6923729,0.806004781 21.6923729,1.79995781 L21.6923729,7.20004219 C21.6923729,8.19420616 22.5016001,9 23.5,9 C24.4983999,9 25.3076271,8.19420616 25.3076271,7.20004219 L25.3076271,1.79995781 C25.3076271,0.806004781 24.4983999,0 23.5,0 Z" id="Path_20_"></path>
<path d="M30.7307203,0 C29.7323204,0 28.9230932,0.806004781 28.9230932,1.79995781 L28.9230932,7.20004219 C28.9230932,8.19420616 29.7323204,9 30.7307203,9 C31.7291203,9 32.5383475,8.19420616 32.5383475,7.20004219 L32.5383475,1.79995781 C32.5385593,0.806004781 31.7291203,0 30.7307203,0 Z" id="Path_19_"></path>
<path d="M37.9616525,0 C36.9632526,0 36.1540254,0.806004781 36.1540254,1.79995781 L36.1540254,7.20004219 C36.1540254,8.19420616 36.9632526,9 37.9616525,9 C38.9600525,9 39.7692797,8.19420616 39.7692797,7.20004219 L39.7692797,1.79995781 C39.7692797,0.806004781 38.9600525,0 37.9616525,0 Z" id="Path_18_"></path>
<path d="M45.1923729,0 C44.1939729,0 43.3847457,0.806004781 43.3847457,1.79995781 L43.3847457,7.20004219 C43.3847457,8.19420616 44.1939729,9 45.1923729,9 C46.1907728,9 47,8.19420616 47,7.20004219 L47,1.79995781 C47,0.806004781 46.1907728,0 45.1923729,0 Z" id="Path_17_"></path>
</g>
<path d="M16.5,67 C12.3578941,67 9,70.3578449 9,74.4998901 C9,78.6421551 12.3578941,82 16.5,82 C20.6421059,82 24,78.6421551 24,74.5001099 C24,70.3578449 20.6421059,67 16.5,67 L16.5,67 Z M16.5,78.2499451 C14.4288372,78.2499451 12.7498901,76.5710226 12.7498901,74.4998901 C12.7498901,72.4287577 14.4288372,70.7498352 16.5,70.7498352 C18.5711628,70.7498352 20.2501099,72.4287577 20.2501099,74.4998901 C20.2501099,76.5710226 18.5711628,78.2499451 16.5,78.2499451 L16.5,78.2499451 Z" id="Shape_36_"></path>
<path d="M16.5,85 C12.3578941,85 9,88.3578941 9,92.5 C9,96.6421059 12.3578941,100 16.5,100 C20.6421059,100 24,96.6421059 24,92.5 C24,88.3578941 20.6421059,85 16.5,85 L16.5,85 Z M16.5,96.2501099 C14.4288372,96.2501099 12.7498901,94.5711628 12.7498901,92.5 C12.7498901,90.4288372 14.4288372,88.7498901 16.5,88.7498901 C18.5711628,88.7498901 20.2501099,90.4288372 20.2501099,92.5 C20.2501099,94.5711628 18.5711628,96.2501099 16.5,96.2501099 L16.5,96.2501099 Z" id="Shape_35_"></path>
<path d="M34.5,67 C30.3578941,67 27,70.3578449 27,74.4998901 C27,78.6421551 30.3578941,82 34.5,82 C38.6421059,82 42,78.6421551 42,74.5001099 C42.0002197,70.3578449 38.6423256,67 34.5,67 Z M34.5,78.2499451 C32.4288372,78.2499451 30.7498901,76.5710226 30.7498901,74.4998901 C30.7498901,72.4287577 32.4288372,70.7498352 34.5,70.7498352 C36.5711628,70.7498352 38.2501099,72.4287577 38.2501099,74.4998901 C38.2501099,76.5710226 36.5711628,78.2499451 34.5,78.2499451 Z" id="Shape_34_"></path>
<path d="M34.5,85 C30.3578941,85 27,88.3578941 27,92.5 C27,96.6421059 30.3578941,100 34.5,100 C38.6421059,100 42,96.6421059 42,92.5 C42.0002197,88.3578941 38.6423256,85 34.5,85 Z M34.5,96.2501099 C32.4288372,96.2501099 30.7498901,94.5711628 30.7498901,92.5 C30.7498901,90.4288372 32.4288372,88.7498901 34.5,88.7498901 C36.5711628,88.7498901 38.2501099,90.4288372 38.2501099,92.5 C38.2501099,94.5711628 36.5711628,96.2501099 34.5,96.2501099 Z" id="Shape_33_"></path>
<path d="M52.5,67 C48.3578941,67 45,70.3578941 45,74.5 C45,78.6421059 48.3578941,82 52.5,82 C56.6421059,82 60,78.6421059 60,74.5 C60,70.3578941 56.6421059,67 52.5,67 Z M52.5,78.2501099 C50.4288372,78.2501099 48.7498901,76.5711628 48.7498901,74.5 C48.7498901,72.4288372 50.4288372,70.7498901 52.5,70.7498901 C54.5711628,70.7498901 56.2501099,72.4288372 56.2501099,74.5 C56.2498901,76.5711628 54.5709431,78.2501099 52.5,78.2501099 L52.5,78.2501099 Z" id="Shape_32_"></path>
<path d="M52.5,85 C48.3578941,85 45,88.3578941 45,92.5 C45,96.6421059 48.3578941,100 52.5,100 C56.6421059,100 60,96.6421059 60,92.5 C60,88.3578941 56.6421059,85 52.5,85 Z M52.5,96.2501099 C50.4288372,96.2501099 48.7498901,94.5711628 48.7498901,92.5 C48.7498901,90.4288372 50.4288372,88.7498901 52.5,88.7498901 C54.5711628,88.7498901 56.2501099,90.4288372 56.2501099,92.5 C56.2498901,94.5711628 54.5709431,96.2501099 52.5,96.2501099 L52.5,96.2501099 Z" id="Shape_31_"></path>
</g>
</g>
</g>
</svg>
