<svg width="110px" height="110px" viewBox="0 0 110 110" xmlns="http://www.w3.org/2000/svg">
<g id="Icons" stroke="none" stroke-width="1" fill="none" fill-rule="evenodd">
<g id="Quiz-Funnel-Icons" transform="translate(-476.000000, -595.000000)" fill="#8099E8" fill-rule="nonzero">
<g id="Group-2" transform="translate(476.270089, 595.651786)">
<g id="Group" transform="translate(-0.270089, 0.348214)">
<g id="calendar-(2)">
<path d="M104.328571,109 L4.67142857,109 C2.09146981,109 0,106.914449 0,104.341792 L0,32.9159434 C0,32.0583911 0.697156604,31.3632075 1.55714286,31.3632075 L107.442857,31.3632075 C108.302843,31.3632075 109,32.0583911 109,32.9159434 L109,104.341792 C109,106.914449 106.90853,109 104.328571,109 Z M3.11428571,34.4686792 L3.11428571,104.341792 C3.11428571,105.199345 3.81144232,105.894528 4.67142857,105.894528 L104.328571,105.894528 C105.188558,105.894528 105.885714,105.199345 105.885714,104.341792 L105.885714,34.4686792 L3.11428571,34.4686792 Z" id="Shape"></path>
<path d="M107.442857,34.4481132 L1.55714286,34.4481132 C0.697156604,34.4481132 0,33.7469414 0,32.8820021 L0,14.9813522 C0,12.3865343 2.09146981,10.2830189 4.67142857,10.2830189 L20.5231429,10.2830189 C21.3831291,10.2830189 22.0802857,10.9841907 22.0802857,11.84913 C22.0802857,12.7140693 21.3831291,13.4152411 20.5231429,13.4152411 L4.67142857,13.4152411 C3.81144232,13.4152411 3.11428571,14.1164129 3.11428571,14.9813522 L3.11428571,31.315891 L105.885714,31.315891 L105.885714,14.9813522 C105.885714,14.1164129 105.188558,13.4152411 104.328571,13.4152411 L88.4768571,13.4152411 C87.6168709,13.4152411 86.9197143,12.7140693 86.9197143,11.84913 C86.9197143,10.9841907 87.6168709,10.2830189 88.4768571,10.2830189 L104.328571,10.2830189 C106.90853,10.2830189 109,12.3865343 109,14.9813522 L109,32.8820021 C109,33.7469414 108.302843,34.4481132 107.442857,34.4481132 Z" id="Path"></path>
<path d="M79.1650661,13.3679245 L30.3490849,13.3679245 C29.4893807,13.3679245 28.7924528,12.6773449 28.7924528,11.8254717 C28.7924528,10.9735985 29.4893807,10.2830189 30.3490849,10.2830189 L79.1650661,10.2830189 C80.0247702,10.2830189 80.7216981,10.9735985 80.7216981,11.8254717 C80.7216981,12.6773449 80.0247702,13.3679245 79.1650661,13.3679245 Z" id="Path"></path>
<path d="M83.5495283,23.6509434 C80.001501,23.6474975 77.1261259,20.8039351 77.1226415,17.2951626 L77.1226415,6.35578081 C77.1226415,2.84558 80.0000567,0 83.5495283,0 C87.0989999,0 89.9764151,2.84558 89.9764151,6.35578081 L89.9764151,17.2951626 C89.9729307,20.8039351 87.0975556,23.6474975 83.5495283,23.6509434 Z M83.5495283,3.12710042 C81.7462776,3.12882341 80.2848887,4.57404372 80.2831464,6.35734358 L80.2831464,17.2967254 C80.2831464,19.0807394 81.7455554,20.5269685 83.5495283,20.5269685 C85.3535012,20.5269685 86.8159102,19.0807394 86.8159102,17.2967254 L86.8159102,6.35734358 C86.8141679,4.57404372 85.352779,3.12882341 83.5495283,3.12710042 Z" id="Shape"></path>
<path d="M25.4504717,23.6509434 C21.9024444,23.6474975 19.0270693,20.8039351 19.0235849,17.2951626 L19.0235849,6.35578081 C19.0235849,2.84558 21.9010001,0 25.4504717,0 C28.9999433,0 31.8773585,2.84558 31.8773585,6.35578081 L31.8773585,17.2951626 C31.8738741,20.8039351 28.998499,23.6474975 25.4504717,23.6509434 Z M25.4504717,3.12710042 C23.647221,3.12882341 22.1858321,4.57404372 22.1840898,6.35734358 L22.1840898,17.2967254 C22.1840898,19.0807394 23.6464989,20.5269684 25.4504717,20.5269684 C27.2544445,20.5269684 28.7168536,19.0807394 28.7168536,17.2967254 L28.7168536,6.35734358 C28.7151113,4.57404372 27.2537224,3.12882341 25.4504717,3.12710042 Z" id="Shape"></path>
<path d="M74.0393952,49.3584906 L70.4370199,49.3584906 C69.5860632,49.3584906 68.8962264,48.6679109 68.8962264,47.8160377 C68.8962264,46.9641646 69.5860632,46.2735849 70.4370199,46.2735849 L74.0393952,46.2735849 C74.8903519,46.2735849 75.5801887,46.9641646 75.5801887,47.8160377 C75.5801887,48.6679109 74.8903519,49.3584906 74.0393952,49.3584906 Z" id="Path"></path>
<path d="M56.5582631,49.3584906 L52.9558879,49.3584906 C52.1049311,49.3584906 51.4150943,48.6679109 51.4150943,47.8160377 C51.4150943,46.9641646 52.1049311,46.2735849 52.9558879,46.2735849 L56.5582631,46.2735849 C57.4092199,46.2735849 58.0990566,46.9641646 58.0990566,47.8160377 C58.0990566,48.6679109 57.4092199,49.3584906 56.5582631,49.3584906 L56.5582631,49.3584906 Z" id="Path"></path>
<path d="M91.5205272,64.2688679 L87.918152,64.2688679 C87.0671952,64.2688679 86.3773585,63.5782883 86.3773585,62.7264151 C86.3773585,61.8745419 87.0671952,61.1839623 87.918152,61.1839623 L91.5205272,61.1839623 C92.371484,61.1839623 93.0613208,61.8745419 93.0613208,62.7264151 C93.0613208,63.5782883 92.371484,64.2688679 91.5205272,64.2688679 Z" id="Path"></path>
<path d="M74.0393952,64.2688679 L70.4370199,64.2688679 C69.5860632,64.2688679 68.8962264,63.5782883 68.8962264,62.7264151 C68.8962264,61.8745419 69.5860632,61.1839623 70.4370199,61.1839623 L74.0393952,61.1839623 C74.8903519,61.1839623 75.5801887,61.8745419 75.5801887,62.7264151 C75.5801887,63.5782883 74.8903519,64.2688679 74.0393952,64.2688679 Z" id="Path"></path>
<path d="M56.5582631,64.2688679 L52.9558879,64.2688679 C52.1049311,64.2688679 51.4150943,63.5782883 51.4150943,62.7264151 C51.4150943,61.8745419 52.1049311,61.1839623 52.9558879,61.1839623 L56.5582631,61.1839623 C57.4092199,61.1839623 58.0990566,61.8745419 58.0990566,62.7264151 C58.0990566,63.5782883 57.4092199,64.2688679 56.5582631,64.2688679 L56.5582631,64.2688679 Z" id="Path"></path>
<path d="M21.081848,64.2688679 L17.4794728,64.2688679 C16.628516,64.2688679 15.9386792,63.5782883 15.9386792,62.7264151 C15.9386792,61.8745419 16.628516,61.1839623 17.4794728,61.1839623 L21.081848,61.1839623 C21.9328048,61.1839623 22.6226415,61.8745419 22.6226415,62.7264151 C22.6226415,63.5782883 21.9328048,64.2688679 21.081848,64.2688679 Z" id="Path"></path>
<path d="M91.5205272,79.1792453 L87.918152,79.1792453 C87.0671952,79.1792453 86.3773585,78.4886656 86.3773585,77.6367925 C86.3773585,76.7849193 87.0671952,76.0943396 87.918152,76.0943396 L91.5205272,76.0943396 C92.371484,76.0943396 93.0613208,76.7849193 93.0613208,77.6367925 C93.0613208,78.4886656 92.371484,79.1792453 91.5205272,79.1792453 Z" id="Path"></path>
<path d="M74.0393952,79.1792453 L70.4370199,79.1792453 C69.5860632,79.1792453 68.8962264,78.4886656 68.8962264,77.6367925 C68.8962264,76.7849193 69.5860632,76.0943396 70.4370199,76.0943396 L74.0393952,76.0943396 C74.8903519,76.0943396 75.5801887,76.7849193 75.5801887,77.6367925 C75.5801887,78.4886656 74.8903519,79.1792453 74.0393952,79.1792453 Z" id="Path"></path>
<path d="M56.5582631,79.1792453 L52.9558879,79.1792453 C52.1049311,79.1792453 51.4150943,78.4886656 51.4150943,77.6367925 C51.4150943,76.7849193 52.1049311,76.0943396 52.9558879,76.0943396 L56.5582631,76.0943396 C57.4092199,76.0943396 58.0990566,76.7849193 58.0990566,77.6367925 C58.0990566,78.4886656 57.4092199,79.1792453 56.5582631,79.1792453 L56.5582631,79.1792453 Z" id="Path"></path>
<path d="M38.5629801,79.1792453 L34.9606048,79.1792453 C34.1096481,79.1792453 33.4198113,78.4886656 33.4198113,77.6367925 C33.4198113,76.7849193 34.1096481,76.0943396 34.9606048,76.0943396 L38.5629801,76.0943396 C39.4139368,76.0943396 40.1037736,76.7849193 40.1037736,77.6367925 C40.1037736,78.4886656 39.4139368,79.1792453 38.5629801,79.1792453 L38.5629801,79.1792453 Z" id="Path"></path>
<path d="M21.081848,79.1792453 L17.4794728,79.1792453 C16.628516,79.1792453 15.9386792,78.4886656 15.9386792,77.6367925 C15.9386792,76.7849193 16.628516,76.0943396 17.4794728,76.0943396 L21.081848,76.0943396 C21.9328048,76.0943396 22.6226415,76.7849193 22.6226415,77.6367925 C22.6226415,78.4886656 21.9328048,79.1792453 21.081848,79.1792453 Z" id="Path"></path>
<path d="M56.5582631,94.0896226 L52.9558879,94.0896226 C52.1049311,94.0896226 51.4150943,93.399043 51.4150943,92.5471698 C51.4150943,91.6952966 52.1049311,91.004717 52.9558879,91.004717 L56.5582631,91.004717 C57.4092199,91.004717 58.0990566,91.6952966 58.0990566,92.5471698 C58.0990566,93.399043 57.4092199,94.0896226 56.5582631,94.0896226 L56.5582631,94.0896226 Z" id="Path"></path>
<path d="M38.5629801,94.0896226 L34.9606048,94.0896226 C34.1096481,94.0896226 33.4198113,93.399043 33.4198113,92.5471698 C33.4198113,91.6952966 34.1096481,91.004717 34.9606048,91.004717 L38.5629801,91.004717 C39.4139368,91.004717 40.1037736,91.6952966 40.1037736,92.5471698 C40.1037736,93.399043 39.4139368,94.0896226 38.5629801,94.0896226 L38.5629801,94.0896226 Z" id="Path"></path>
<path d="M21.081848,94.0896226 L17.4794728,94.0896226 C16.628516,94.0896226 15.9386792,93.399043 15.9386792,92.5471698 C15.9386792,91.6952966 16.628516,91.004717 17.4794728,91.004717 L21.081848,91.004717 C21.9328048,91.004717 22.6226415,91.6952966 22.6226415,92.5471698 C22.6226415,93.399043 21.9328048,94.0896226 21.081848,94.0896226 Z" id="Path"></path>
</g>
<g id="tick-inside-circle" transform="translate(82.264151, 40.103774)">
<path d="M4.148223,5.25651688 L3.14917453,6.25099305 L6.36040176,9.44752358 L13.4964623,2.34412239 L12.4974138,1.34964623 L6.36040176,7.45857125 L4.148223,5.25651688 Z M12.9566038,7.19811321 C12.9566038,10.365283 10.365283,12.9566038 7.19811321,12.9566038 C4.0309434,12.9566038 1.43962264,10.365283 1.43962264,7.19811321 C1.43962264,4.0309434 4.0309434,1.43962264 7.19811321,1.43962264 C7.77396226,1.43962264 8.27783019,1.51160377 8.78169811,1.65556604 L9.93342445,0.503867925 C9.06962264,0.215943396 8.13386792,0 7.19811321,0 C3.23915094,0 0,3.23915094 0,7.19811321 C0,11.1570755 3.23915094,14.3962264 7.19811321,14.3962264 C11.1570755,14.3962264 14.3962264,11.1570755 14.3962264,7.19811321 L12.9566038,7.19811321 Z" id="Shape"></path>
</g>
<g id="tick-inside-circle" transform="translate(82.264151, 40.103774)">
<path d="M4.148223,5.25651688 L3.14917453,6.25099305 L6.36040176,9.44752358 L13.4964623,2.34412239 L12.4974138,1.34964623 L6.36040176,7.45857125 L4.148223,5.25651688 Z M12.9566038,7.19811321 C12.9566038,10.365283 10.365283,12.9566038 7.19811321,12.9566038 C4.0309434,12.9566038 1.43962264,10.365283 1.43962264,7.19811321 C1.43962264,4.0309434 4.0309434,1.43962264 7.19811321,1.43962264 C7.77396226,1.43962264 8.27783019,1.51160377 8.78169811,1.65556604 L9.93342445,0.503867925 C9.06962264,0.215943396 8.13386792,0 7.19811321,0 C3.23915094,0 0,3.23915094 0,7.19811321 C0,11.1570755 3.23915094,14.3962264 7.19811321,14.3962264 C11.1570755,14.3962264 14.3962264,11.1570755 14.3962264,7.19811321 L12.9566038,7.19811321 Z" id="Shape"></path>
</g>
</g>
<g id="tick-inside-circle-copy" transform="translate(30.729911, 56.348214)">
<path d="M4.32219828,5.47697368 L3.28125,6.51315789 L6.62715517,9.84375 L14.0625,2.44243421 L13.0215517,1.40625 L6.62715517,7.77138158 L4.32219828,5.47697368 Z M13.5,7.5 C13.5,10.8 10.8,13.5 7.5,13.5 C4.2,13.5 1.5,10.8 1.5,7.5 C1.5,4.2 4.2,1.5 7.5,1.5 C8.1,1.5 8.625,1.575 9.15,1.725 L10.3500294,0.525 C9.45,0.225 8.475,0 7.5,0 C3.375,0 0,3.375 0,7.5 C0,11.625 3.375,15 7.5,15 C11.625,15 15,11.625 15,7.5 L13.5,7.5 Z" id="Shape"></path>
</g>
</g>
</g>
</g>
</svg>
