<svg width="63px" height="110px" viewBox="0 0 63 110" xmlns="http://www.w3.org/2000/svg">
<g id="Icons" stroke="none" stroke-width="1" fill="none" fill-rule="evenodd">
<g id="Quiz-Funnel-Icons" transform="translate(-1164.000000, -595.000000)" fill="#8099E8" fill-rule="nonzero">
<g id="vitamins" transform="translate(1164.129464, 595.651786)">
<path d="M49.833984,25.8525112 L49.833984,21.2540737 C53.6181219,21.2114955 56.6753633,18.1458705 56.6753633,14.3777065 L56.6753633,7.24587054 C56.6753633,3.45641741 53.5753633,0.348214286 49.7698461,0.348214286 L11.9926047,0.348214286 C8.18708744,0.348214286 5.08708744,3.43512835 5.08708744,7.24587054 L5.08708744,14.3777065 C5.08708744,18.1458705 8.14432882,21.2114955 11.9070874,21.2540737 L11.9070874,25.8525112 C4.85191502,28.6413783 -0.129464286,35.4964565 -0.129464286,43.501144 L-0.129464286,90.3583705 C-0.129464286,100.832589 8.42225985,109.348214 18.9408805,109.348214 L42.8001909,109.348214 C53.3188116,109.348214 61.8705357,100.832589 61.8705357,90.3583705 L61.8705357,43.501144 C61.8705357,35.4964565 56.8677771,28.6413783 49.833984,25.8525112 L49.833984,25.8525112 Z M8.38033964,14.314353 L8.38033964,6.97096441 C8.38033964,4.99811373 9.94842399,3.37599206 11.9031593,3.37599206 L49.8379122,3.37599206 C51.7711668,3.37599206 53.3607318,4.99811373 53.3607318,6.97096441 L53.3607318,14.314353 C53.3607318,16.2872037 51.7926474,17.9093254 49.8379122,17.9093254 L11.8816787,17.9093254 C9.94842399,17.8874048 8.38033964,16.2872037 8.38033964,14.314353 Z M15.6744573,21.5426587 L46.6744573,21.5426587 L46.6744573,25.1759921 C45.50183,24.9395029 44.3078823,24.8320078 43.0712936,24.8320078 L19.277621,24.8320078 C18.0410322,24.8320078 16.8470845,24.9610019 15.6744573,25.1759921 L15.6744573,21.5426587 Z M19.2112562,27.5982143 L43.1376584,27.5982143 C51.7991875,27.5982143 58.83132,34.6218619 58.83132,43.2729402 L58.83132,53.6371032 L3.51759454,53.6371032 L3.51759454,43.2729402 C3.51759454,34.6218619 10.5497271,27.5982143 19.2112562,27.5982143 Z M58.83132,57.2704365 L58.83132,76.6482143 L3.51759454,76.6482143 L3.51759454,57.2704365 L58.83132,57.2704365 Z M43.1376584,106.320437 L19.2112562,106.320437 C10.5497271,106.320437 3.51759454,99.3025601 3.51759454,90.6585904 L3.51759454,80.2815476 L58.83132,80.2815476 L58.83132,90.6585904 C58.83132,99.3025601 51.7991875,106.320437 43.1376584,106.320437 Z M41.203869,32.9431025 C41.203869,32.0017473 41.9769783,31.2315476 42.9218896,31.2315476 C49.6865955,31.2315476 55.1842612,36.7085232 55.1842612,43.4477705 C55.1842612,44.3891257 54.411152,45.1593254 53.4662407,45.1593254 C52.5213294,45.1593254 51.7482201,44.3891257 51.7482201,43.4477705 C51.7482201,38.5912336 47.7752976,34.6332629 42.9004143,34.6332629 C41.9769783,34.6332629 41.203869,33.8844577 41.203869,32.9431025 L41.203869,32.9431025 Z M12.0273985,13.7800266 L12.0273985,8.08977139 C12.0273985,7.16247054 12.711222,6.40376984 13.5470063,6.40376984 C14.3827906,6.40376984 15.0666141,7.16247054 15.0666141,8.08977139 L15.0666141,13.8011016 C15.0666141,14.7284025 14.3827906,15.4871032 13.5470063,15.4871032 C12.711222,15.4871032 12.0273985,14.7284025 12.0273985,13.7800266 L12.0273985,13.7800266 Z M18.713673,13.7311366 L18.713673,8.13805783 C18.713673,7.18419944 19.3974965,6.40376984 20.2332808,6.40376984 C21.0690651,6.40376984 21.7528887,7.18419944 21.7528887,8.13805783 L21.7528887,13.7528152 C21.7528887,14.7066736 21.0690651,15.4871032 20.2332808,15.4871032 C19.3974965,15.4871032 18.713673,14.684995 18.713673,13.7311366 Z M26.0077906,13.7800266 L26.0077906,8.08977139 C26.0077906,7.16247054 26.6916141,6.40376984 27.5273985,6.40376984 C28.3631828,6.40376984 29.0470063,7.16247054 29.0470063,8.08977139 L29.0470063,13.8011016 C29.0470063,14.7284025 28.3631828,15.4871032 27.5273985,15.4871032 C26.6916141,15.4871032 26.0077906,14.7284025 26.0077906,13.7800266 L26.0077906,13.7800266 Z M32.6940651,13.7800266 L32.6940651,8.08977139 C32.6940651,7.16247054 33.3778887,6.40376984 34.213673,6.40376984 C35.0494573,6.40376984 35.7332808,7.16247054 35.7332808,8.08977139 L35.7332808,13.8011016 C35.7332808,14.7284025 35.0494573,15.4871032 34.213673,15.4871032 C33.3778887,15.4871032 32.6940651,14.7284025 32.6940651,13.7800266 L32.6940651,13.7800266 Z M39.9881828,13.7311366 L39.9881828,8.13805783 C39.9881828,7.18419944 40.6720063,6.40376984 41.5077906,6.40376984 C42.3435749,6.40376984 43.0273985,7.18419944 43.0273985,8.13805783 L43.0273985,13.7528152 C43.0273985,14.7066736 42.3435749,15.4871032 41.5077906,15.4871032 C40.6720063,15.4871032 39.9881828,14.684995 39.9881828,13.7311366 Z M46.6744573,13.7800266 L46.6744573,8.08977139 C46.6744573,7.16247054 47.3582808,6.40376984 48.1940651,6.40376984 C49.0298494,6.40376984 49.713673,7.16247054 49.713673,8.08977139 L49.713673,13.8011016 C49.713673,14.7284025 49.0298494,15.4871032 48.1940651,15.4871032 C47.3582808,15.4871032 46.6744573,14.7284025 46.6744573,13.7800266 L46.6744573,13.7800266 Z M17.4520035,59.165573 C18.3266028,58.8838673 19.2636735,59.3822697 19.5343828,60.3140654 L21.5542908,67.0966714 L23.9906746,60.2273867 C24.3030315,59.3389303 25.2609261,58.8621976 26.1355254,59.2089123 C26.9893009,59.5339573 27.4474244,60.5307621 27.1142437,61.4408881 L22.9911326,73.0991693 C22.741247,73.7925987 22.1165332,74.2259921 21.429348,74.2259921 C21.4085242,74.2259921 21.4085242,74.2259921 21.3877004,74.2259921 C20.6796915,74.2043224 20.0549777,73.7275897 19.8467397,73.0124907 L16.3483424,61.3542094 C16.0984569,60.4224137 16.5774041,59.4472787 17.4520035,59.165573 L17.4520035,59.165573 Z M29.6548494,72.4908759 L29.6548494,60.8222194 C29.6548494,59.8679055 30.338673,59.0871032 31.1744573,59.0871032 C32.0102416,59.0871032 32.6940651,59.8679055 32.6940651,60.8222194 L32.6940651,72.4908759 C32.6940651,73.4451898 32.0102416,74.2259921 31.1744573,74.2259921 C30.3196779,74.2043031 29.6548494,73.4451898 29.6548494,72.4908759 L29.6548494,72.4908759 Z M34.5175945,60.8222194 C34.5175945,59.8679055 35.293275,59.0871032 36.2413288,59.0871032 L44.3428799,59.0871032 C45.2909337,59.0871032 46.0666141,59.8679055 46.0666141,60.8222194 C46.0666141,61.7765333 45.2909337,62.5573356 44.3428799,62.5573356 L42.0158386,62.5573356 L42.0158386,72.4908759 C42.0158386,73.4451898 41.2401582,74.2259921 40.2921043,74.2259921 C39.3440505,74.2259921 38.5683701,73.4451898 38.5683701,72.4908759 L38.5683701,62.5573356 L36.2413288,62.5573356 C35.2717283,62.5573356 34.5175945,61.7982222 34.5175945,60.8222194 Z M49.2476213,88.1537698 L12.5142995,88.1537698 C11.5778765,88.1537698 10.8117122,88.9186821 10.8117122,89.8535749 L10.8117122,96.1428537 C10.8117122,97.0777464 11.5778765,97.8426587 12.5142995,97.8426587 L49.226339,97.8426587 C50.162762,97.8426587 50.9289263,97.0777464 50.9289263,96.1428537 L50.9289263,89.8535749 C50.9502087,88.9186821 50.1840443,88.1537698 49.2476213,88.1537698 L49.2476213,88.1537698 Z M47.8901436,94.814881 L14.458771,94.814881 L14.458771,91.7871032 L47.8901436,91.7871032 L47.8901436,94.814881 Z" id="Shape"></path>
</g>
</g>
</g>
</svg>
