<svg width="75px" height="75px" viewBox="0 0 75 75" xmlns="http://www.w3.org/2000/svg">
<g id="Icons" stroke="none" stroke-width="1" fill="none" fill-rule="evenodd">
<g id="Get-Started-Funnel-Icons" transform="translate(-641.000000, -503.000000)" fill-rule="nonzero">
<g id="Group" transform="translate(641.000000, 503.000000)">
<circle id="Oval" fill-opacity="0.4" fill="#99E880" cx="38" cy="38" r="37"></circle>
<g id="edit" fill="#404652">
<g id="UserFace" transform="translate(15.844156, 0.000000)">
<path d="M14.1558442,28.3116883 C6.3496244,28.3116883 0,21.9620639 0,14.1558442 C0,6.3496244 6.3496244,0 14.1558442,0 C21.9620639,0 28.3116883,6.3496244 28.3116883,14.1558442 C28.3116883,21.9620639 21.9620639,28.3116883 14.1558442,28.3116883 Z M14.1558442,2.82834049 C7.90521167,2.82834049 2.82834049,7.90521167 2.82834049,14.1558442 C2.82834049,20.4064766 7.90521167,25.4833478 14.1558442,25.4833478 C20.4064766,25.4833478 25.4833478,20.4064766 25.4833478,14.1558442 C25.4833478,7.90521167 20.4064766,2.82834049 14.1558442,2.82834049 Z" id="Shape"></path>
</g>
<g id="UserBody" transform="translate(0.000000, 29.870130)">
<path d="M32.2358629,30.1298701 L0,30.1298701 L0,28.7126608 C0,21.1872793 2.33798566,14.7106327 6.94310894,9.48113035 C10.3296457,5.64049309 14.8497514,2.53680468 20.3900689,0.269269771 L21.0135317,0.0141720932 L21.6086554,0.340130237 C24.1025067,1.70065118 27.0214464,2.42342794 30.0395734,2.42342794 C33.0718699,2.42342794 36.0049792,1.70065118 38.4988306,0.325958143 L39.0939542,0 L39.717417,0.255097677 C40.0008092,0.368474423 40.2558622,0.481851169 40.5109152,0.581055821 C42.735544,1.47389769 44.3367099,2.12581398 46.9580878,4.08156284 C47.5815506,4.54924192 47.7232467,5.44208379 47.2556496,6.06565589 C46.7880525,6.68922799 45.895367,6.83094892 45.2719042,6.36326984 C42.9480881,4.63427447 41.6303144,4.09573493 39.4623641,3.21706515 C39.391516,3.18872097 39.3348376,3.16037678 39.2639895,3.1320326 C36.4867459,4.52089773 33.3127533,5.25784657 30.0395734,5.25784657 C26.780563,5.25784657 23.62074,4.53506982 20.857666,3.14620469 C12.7668187,6.60419543 3.47155447,13.5626932 2.86226124,27.2954515 L32.2358629,27.2954515 C33.0151915,27.2954515 33.6528239,27.9331957 33.6528239,28.7126608 C33.6528239,29.4921259 33.0151915,30.1298701 32.2358629,30.1298701 L32.2358629,30.1298701 Z" id="Path"></path>
</g>
<g id="Tag" transform="translate(37.142857, 37.142857)">
<path d="M7.38330976,22.8571429 L0,22.8571429 L0,15.466403 C0,14.7018437 0.297029703,13.9939185 0.834512023,13.4558953 L13.0834512,1.23710511 C14.738331,-0.419440026 17.4257426,-0.40528152 19.0806223,1.23710511 L21.612447,3.77147757 C22.4186704,4.57851238 22.8571429,5.64040029 22.8571429,6.77308072 C22.8571429,7.90576115 22.4186704,8.96764906 21.612447,9.77468386 L9.37765205,22.021791 C8.854314,22.5598142 8.13295615,22.8571429 7.38330976,22.8571429 L7.38330976,22.8571429 Z M2.82885431,20.0254418 L7.38330976,20.0254418 L19.6181047,7.7783346 C20.1697313,7.22615289 20.1697313,6.33416705 19.6181047,5.78198534 L17.0862801,3.24761287 C16.5346535,2.69543116 15.6435644,2.69543116 15.0919378,3.24761287 L2.82885431,15.466403 L2.82885431,20.0254418 Z" id="Shape"></path>
</g>
</g>
</g>
</g>
</g>
</svg>
