<svg width="75px" height="75px" viewBox="0 0 75 75" xmlns="http://www.w3.org/2000/svg">
<g id="Icons" stroke="none" stroke-width="1" fill="none" fill-rule="evenodd">
<g id="Get-Started-Funnel-Icons" transform="translate(-781.000000, -503.000000)" fill-rule="nonzero">
<g id="Group-2" transform="translate(781.000000, 503.000000)">
<circle id="Oval" fill-opacity="0.4" fill="#99E880" cx="38" cy="38" r="37"></circle>
<g id="doctor" fill="#404652">
<path d="M30,30 C37.3333333,30 43.3333333,23.2222222 43.3333333,15 C43.3333333,6.77777778 37.3333333,0 30,0 C22.6666667,0 16.6666667,6.77777778 16.6666667,15 C16.6666667,23.2222222 22.6666667,30 30,30 Z M30,2.22222222 C36.1111111,2.22222222 41.1111111,8 41.1111111,15 C41.1111111,22 36.1111111,27.7777778 30,27.7777778 C23.8888889,27.7777778 18.8888889,22 18.8888889,15 C18.8888889,8 23.8888889,2.22222222 30,2.22222222 Z M44.1111111,34.8888889 C43.7777778,34.6666667 39.4444444,33.1111111 35.4444444,32.5555556 C35.2222222,32.5555556 34.8888889,32.5555556 34.6666667,32.7777778 L30,36.3333333 L25.3333333,32.7777778 C25.2222222,32.6666667 25.1111111,32.6666667 25,32.5555556 C24.8888889,32.5555556 24.6666667,32.5555556 24.5555556,32.5555556 C20.6666667,33.1111111 16.6666667,34.4444444 15.8888889,34.8888889 C0.222222222,41.4444444 0,58.6666667 0,58.8888889 C0,59.5555556 0.444444444,60 1.11111111,60 L58.8888889,60 C59.5555556,60 60,59.5555556 60,58.8888889 C60,58.6666667 59.7777778,41.4444444 44.1111111,34.8888889 Z M43.3333333,44.4444444 C44.5555556,44.4444444 45.5555556,45.4444444 45.5555556,46.6666667 C45.5555556,47.8888889 44.5555556,48.8888889 43.3333333,48.8888889 C42.1111111,48.8888889 41.1111111,47.8888889 41.1111111,46.6666667 C41.1111111,45.4444444 42.1111111,44.4444444 43.3333333,44.4444444 Z M5,47.8888889 C7.33333333,43.1111111 10.8888889,39.6666667 15.5555556,37.4444444 L15.5555556,42.4444444 C11.2222222,43.2222222 10,48.3333333 10,51.2222222 C10,51.8888889 10.4444444,52.3333333 11.1111111,52.3333333 L13.3333333,52.3333333 C14,52.3333333 14.4444444,51.8888889 14.4444444,51.2222222 C14.4444444,50.5555556 14,50.1111111 13.3333333,50.1111111 L12.3333333,50.1111111 C12.5555556,48.2222222 13.4444444,44.5555556 16.6666667,44.5555556 C19.8888889,44.5555556 20.7777778,48.2222222 21,50.1111111 L20,50.1111111 C19.3333333,50.1111111 18.8888889,50.5555556 18.8888889,51.2222222 C18.8888889,51.8888889 19.3333333,52.3333333 20,52.3333333 L22.2222222,52.3333333 C22.8888889,52.3333333 23.3333333,51.8888889 23.3333333,51.2222222 C23.3333333,48.3333333 22.1111111,43.2222222 17.7777778,42.4444444 L17.7777778,36.5555556 C19.7777778,35.7777778 22,35.2222222 24.3333333,35 L28.8888889,38.4444444 L28.8888889,57.7777778 L2.33333333,57.7777778 C2.44444444,55.8888889 3,52 5,47.8888889 L5,47.8888889 Z M31.1111111,57.7777778 L31.1111111,38.3333333 L35.6666667,34.8888889 C38.1111111,35.2222222 40.3333333,35.7777778 42.2222222,36.5555556 L42.2222222,42.4444444 C40.3333333,42.8888889 38.8888889,44.6666667 38.8888889,46.7777778 C38.8888889,49.2222222 40.8888889,51.2222222 43.3333333,51.2222222 C45.7777778,51.2222222 47.7777778,49.2222222 47.7777778,46.7777778 C47.7777778,44.6666667 46.3333333,43 44.4444444,42.4444444 L44.4444444,37.4444444 C55.6666667,42.7777778 57.4444444,54.1111111 57.7777778,57.7777778 L31.1111111,57.7777778 Z" id="Shape"></path>
</g>
</g>
</g>
</g>
</svg>
