<svg width="75px" height="75px" viewBox="0 0 75 75" xmlns="http://www.w3.org/2000/svg">
<g id="Icons" stroke="none" stroke-width="1" fill="none" fill-rule="evenodd">
<g id="Get-Started-Funnel-Icons" transform="translate(-356.000000, -503.000000)" fill-rule="nonzero">
<g id="Group-8" transform="translate(356.000000, 503.000000)">
<circle id="Oval" fill-opacity="0.4" fill="#99E880" cx="38" cy="38" r="37"></circle>
<g id="rakete" fill="#404652">
<path d="M19.1787922,29.2210412 C18.720574,29.6778862 18.720574,30.419916 19.1787922,30.8781344 C19.6370105,31.3349793 20.3785826,31.3349793 20.8358853,30.8781344 C21.2941037,30.419916 21.2941037,29.6778862 20.8358853,29.2210412 C20.3785826,28.7628229 19.6370105,28.7628229 19.1787922,29.2210412 Z" id="Path"></path>
<path d="M24.3272248,50.5389485 L27.2829844,45.6116143 L29.1218084,47.4504382 C29.2028321,47.5314618 29.2925531,47.5969216 29.3877673,47.6491064 L30.4488561,55.0739819 C30.5861843,56.0343634 31.7589668,56.4147624 32.4373678,55.7368192 L42.3808418,45.7933452 C42.5689813,45.6052056 42.6870836,45.3589305 42.716838,45.094345 L43.9147973,34.3163735 L50.5417963,27.6880013 C53.4517798,24.7780177 55.7689636,20.7089845 57.4297187,15.5939684 C59.7990871,8.29497703 59.9922621,1.48762038 59.999475,1.20106235 C60.0069104,0.880629991 59.883315,0.570726151 59.6562658,0.343676935 C59.4296744,0.11662772 59.1216015,-0.00788319916 58.7988804,0.000387271611 C58.5127801,0.00813841303 51.7054234,0.200855655 44.4059743,2.57022408 C39.2909583,4.23097912 35.2219251,6.54862064 32.3119415,9.45860432 L25.6854003,16.0851454 L14.9055978,17.2831048 C14.6410123,17.3124015 14.3947372,17.4309615 14.2065976,17.619101 L4.26312359,27.5625749 C3.94909994,27.8765986 3.83969515,28.3407678 3.98022765,28.7614498 C4.12030231,29.1825894 4.48651073,29.4883733 4.92596082,29.5510866 L12.3508364,30.6121754 C12.495031,30.8753878 12.5073905,30.8126746 14.3883285,32.7169583 L9.46099428,35.6722602 C9.15154817,35.8581109 8.94509815,36.1757968 8.90115314,36.5342232 C8.8567504,36.892192 8.98034568,37.2510762 9.23531838,37.5060488 L22.493894,50.7646244 C23.0299315,51.300662 23.933093,51.1958348 24.3272248,50.5389485 Z M32.4373678,52.4221753 L31.6083635,46.621434 L41.2616172,36.9690957 L40.432613,44.4269301 L32.4373678,52.4221753 Z M55.7570618,13.0172345 L46.9827082,4.24288095 C51.4586906,3.00006112 55.580824,2.56427311 57.5835262,2.41641655 C57.4361274,4.41957657 56.9998816,8.54170998 55.7570618,13.0172345 Z M33.9690346,11.1156973 C36.4876329,8.59709898 40.0137621,6.55136726 44.4526658,5.02748253 L54.9729181,15.5472769 C53.4485755,19.9861806 51.4028438,23.5123099 48.8842455,26.0309082 L33.2659144,41.6492393 L24.1514448,32.5347696 C23.6936842,32.0774668 22.9516545,32.0774668 22.493894,32.5347696 C22.0361334,32.9925301 22.0361334,33.73456 22.493894,34.1923205 L31.6083635,43.3067901 L29.9508127,44.9647987 L15.0356019,30.0495878 L27.0513576,18.0342898 L33.9690346,11.1156973 Z M15.5730127,19.5673297 L23.0322203,18.7383255 L13.3785087,28.3915793 L7.57776746,27.5625749 L15.5730127,19.5673297 Z M16.0966907,34.4253206 L25.5746222,43.903252 L23.0898981,48.0459848 L11.9544158,36.9105024 L16.0966907,34.4253206 Z" id="Shape"></path>
<path d="M2.00041334,59.6566224 L14.2065976,47.4504382 C14.6643581,46.9931355 14.6643581,46.2511057 14.2065976,45.7933452 C13.7488371,45.3355847 13.007265,45.3355847 12.5495045,45.7933452 L0.343320387,57.9995294 C-0.114440129,58.4572899 -0.114440129,59.1993197 0.343320387,59.6570802 C0.801080903,60.1143829 1.54265282,60.1143829 2.00041334,59.6566224 L2.00041334,59.6566224 Z" id="Path"></path>
<path d="M17.522157,49.1075313 C17.0643965,48.6497708 16.3223666,48.6497708 15.8646061,49.1075313 L8.62970118,56.3424362 C8.17194067,56.8001967 8.17194067,57.5422266 8.62970118,57.9999871 C9.0874617,58.4572899 9.82903373,58.4572899 10.2867943,57.9999871 L17.522157,50.7646244 C17.9794597,50.3068639 17.9794597,49.5648341 17.522157,49.1075313 Z" id="Path"></path>
<path d="M9.23531838,42.4782436 L2.00041334,49.7131485 C1.54265282,50.170909 1.54265282,50.9129388 2.00041334,51.3706993 C2.45817385,51.8280021 3.199746,51.8280021 3.65750652,51.3706993 L10.8928692,44.1353366 C11.350172,43.6780339 11.350172,42.9360041 10.8928692,42.4782436 C10.4351087,42.0204831 9.69307889,42.0204831 9.23531838,42.4782436 Z" id="Path"></path>
<path d="M43.0839619,26.8599125 C45.8245741,24.1188425 45.8245741,19.6584241 43.0835042,16.9159808 C40.3415187,14.1753687 35.8811002,14.1758264 33.1400302,16.9164385 C30.3934671,19.6634595 30.3907206,24.1119761 33.1400302,26.8599125 C35.8870511,29.6078489 40.33511,29.6083066 43.0839619,26.8599125 L43.0839619,26.8599125 Z M34.797581,18.5735317 C36.6245033,16.7466095 39.5985733,16.7466095 41.426411,18.5735317 C43.2533333,20.4013694 43.253791,23.3754395 41.426411,25.2023617 C39.5944535,27.0343192 36.6295387,27.0356925 34.797581,25.2023617 C32.9656235,23.3713196 32.9647079,20.405947 34.797581,18.5735317 Z" id="Shape"></path>
</g>
</g>
</g>
</g>
</svg>
