<svg width="80px" height="75px" viewBox="0 0 80 75" xmlns="http://www.w3.org/2000/svg">
<g id="Icons" stroke="none" stroke-width="1" fill="none" fill-rule="evenodd">
<g id="Get-Started-Funnel-Icons" transform="translate(-1060.000000, -503.000000)" fill-rule="nonzero">
<g id="Group-6" transform="translate(1060.000000, 503.000000)">
<circle id="Oval" fill-opacity="0.4" fill="#99E880" cx="43" cy="38" r="37"></circle>
<g id="medical-prescription" fill="#404652">
<path d="M15.1210468,9.001726 C15.1210468,6.97558276 13.4034017,5.32710279 11.2920057,5.32710279 L8.50524635,5.32710279 C8.50474009,5.32710279 8.50410725,5.32710279 8.50347441,5.32710279 C8.50296815,5.32710279 8.50233531,5.32710279 8.50182905,5.32710279 C7.9775872,5.32710279 7.55244755,5.75210056 7.55244755,6.27645007 L7.55244755,16.7631873 C7.55244755,17.2874102 7.97746062,17.7125345 8.50182905,17.7125345 C9.02619746,17.7125345 9.45121053,17.2875368 9.45121053,16.7631873 L9.45121053,12.8367042 C9.58435934,12.9879467 14.724638,18.8289447 14.7432434,18.8499541 L11.7890355,21.4499329 C11.3954112,21.7963351 11.3571878,22.3961161 11.7036026,22.7897262 C12.0503971,23.1838426 12.6504527,23.2210521 13.0434443,22.8751561 L15.9976521,20.2751773 L18.5977246,23.2292788 C18.9445191,23.6233952 19.5445747,23.6606047 19.9375663,23.3147086 C20.3311907,22.9683063 20.369414,22.3685254 20.0229992,21.9749152 L17.4229267,19.0208138 L20.3771346,16.420835 C20.770759,16.0744327 20.8089823,15.4746518 20.4625675,15.0810416 C20.1161528,14.6874314 19.5163502,14.6492095 19.1227259,14.9956118 L16.168518,17.5955905 C15.8919684,17.2813352 17.4372289,19.0372669 11.8092863,12.6419241 C13.6766606,12.398797 15.1210468,10.8595408 15.1210468,9.001726 L15.1210468,9.001726 Z M11.2921322,10.7777812 C10.8723084,10.7777812 10.0939194,10.781325 9.46855025,10.784489 C9.45880457,8.9833744 9.46412038,9.46988165 9.45766547,7.22554422 L11.2921322,7.22554422 C12.3384643,7.22554422 13.222537,8.03896307 13.222537,9.00159942 C13.2224104,9.9644889 12.3384643,10.7777812 11.2921322,10.7777812 Z" id="Shape"></path>
<path d="M42.4106541,27.1962616 L8.49843674,27.1962616 C7.97606809,27.1962616 7.55244755,27.6355676 7.55244755,28.1775702 C7.55244755,28.7195726 7.97594197,29.1588785 8.49843674,29.1588785 L42.4106541,29.1588785 C42.9330229,29.1588785 43.3566434,28.7195726 43.3566434,28.1775702 C43.3566434,27.6355676 42.9330229,27.1962616 42.4106541,27.1962616 Z" id="Path"></path>
<path d="M43.3566434,33.7850467 C43.3566434,33.2431752 42.9331475,32.8037384 42.4106509,32.8037384 L8.49844007,32.8037384 C7.97606959,32.8037384 7.55244755,33.2430443 7.55244755,33.7850467 C7.55244755,34.3270493 7.97594347,34.7663552 8.49844007,34.7663552 L42.4107771,34.7663552 C42.9331475,34.7663552 43.3566434,34.3270493 43.3566434,33.7850467 Z" id="Path"></path>
<path d="M8.2241184,38.6915887 C7.69876685,38.6915887 7.27272727,39.1308946 7.27272727,39.6728972 C7.27272727,40.2148996 7.69864002,40.6542056 8.2241184,40.6542056 L19.4681893,40.6542056 C19.9935409,40.6542056 20.4195804,40.2148996 20.4195804,39.6728972 C20.4195804,39.1308946 19.9936677,38.6915887 19.4681893,38.6915887 L8.2241184,38.6915887 Z" id="Path"></path>
<path d="M0.945056705,30 C1.46691044,30 1.89011341,29.5744826 1.89011341,29.0494916 L1.89011341,6.37275236 C1.89011341,3.90695552 3.88467316,1.90088998 6.3363274,1.90088998 L39.0953114,1.90088998 L39.0953114,10.9304025 C39.0953114,14.2325352 41.7640477,16.9451778 45.0755889,16.9451778 L54.0539426,16.9451778 L54.0539426,21.477231 C54.0539426,22.0020951 54.4770196,22.4277393 54.9989993,22.4277393 C55.520979,22.4277393 55.9440559,22.0022218 55.9440559,21.477231 L55.9440559,15.9947961 C55.9440559,15.756187 55.8496888,15.5064267 55.6676322,15.3230664 C55.6675062,15.3229397 55.6673802,15.322813 55.6672542,15.3226863 L40.708371,0.277764872 C40.545717,0.114172513 40.2908377,0 40.0394862,0 L6.3362014,0 C2.84247757,0 0,2.85887467 0,6.37275236 L0,29.0496185 C0,29.5744826 0.423076978,30 0.945056705,30 L0.945056705,30 Z M45.0754629,15.0444145 C42.8201022,15.0444145 40.9851727,13.1989001 40.9851727,10.9305292 L40.9851727,3.24447616 L52.7174326,15.0444145 L45.0754629,15.0444145 Z" id="Shape"></path>
<path d="M6.34682557,47.9611429 L35.5742029,47.9611429 C34.7648693,51.1546983 35.6023459,54.6850569 38.0904185,57.1793223 C41.8445499,60.9402049 47.9529799,60.9403313 51.7074898,57.1790691 C56.9934612,51.880305 52.1331693,56.7511699 61.799865,47.0623267 C61.799865,47.0623267 61.7999913,47.0622 61.7999913,47.0622 C65.5538703,43.2972688 65.5538703,37.1725655 61.799865,33.4091525 C60.2302906,31.8355916 58.2138346,30.8738938 56.0376072,30.6394475 L56.0376072,25.3415691 C56.0376072,24.8175127 55.6138207,24.3925235 55.0909659,24.3925235 C54.5681109,24.3925235 54.1443245,24.817386 54.1443245,25.3415691 L54.1443245,30.61971 C54.1378883,30.6202161 54.1315782,30.6212282 54.1251418,30.6218608 C50.4145503,30.9520846 48.3921628,33.2484688 48.1825413,33.4091525 L43.1363536,38.4681563 C38.8774142,42.9131463 37.4081705,43.7595822 36.2715951,46.0631781 L6.34682557,46.0631781 C3.89106053,46.0631781 1.89315643,44.0601997 1.89315643,41.5981976 L1.89315643,32.90205 C1.89315643,32.3779936 1.46937007,31.9530044 0.946515116,31.9530044 C0.423660166,31.9530044 0,32.3781203 0,32.9021767 L0,41.598324 C0,45.1067943 2.84724367,47.9611429 6.34682557,47.9611429 L6.34682557,47.9611429 Z M50.3691173,55.8367916 C47.3530154,58.8585296 42.4451453,58.858656 39.4287909,55.8370445 C36.4325026,52.8331463 36.3917393,47.9214148 39.4287909,44.8691848 L43.8056031,40.4812565 C47.2863808,43.9708747 51.2647731,47.9593715 54.7456773,51.4489897 L50.3691173,55.8367916 Z M60.4611141,45.7204286 L56.0844282,50.1070916 L45.144354,39.1392319 C49.8413407,34.4351236 50.0234502,34.1033816 51.3898394,33.3682856 C53.2874128,32.3662272 55.0953829,32.4806036 55.0826366,32.4819953 C57.1146153,32.5055285 59.0216539,33.3081875 60.4611141,34.7513036 C63.477216,37.7749394 63.477216,42.6956541 60.4611141,45.7204286 L60.4611141,45.7204286 Z" id="Shape"></path>
</g>
</g>
</g>
</g>
</svg>
