<svg width="80px" height="75px" viewBox="0 0 80 75" xmlns="http://www.w3.org/2000/svg">
<g id="Icons" stroke="none" stroke-width="1" fill="none" fill-rule="evenodd">
<g id="Get-Started-Funnel-Icons" transform="translate(-496.000000, -503.000000)" fill-rule="nonzero">
<g id="Group-3" transform="translate(496.000000, 503.000000)">
<circle id="Oval" fill-opacity="0.4" fill="#99E880" cx="43" cy="38" r="37"></circle>
<path d="M65,8.2082133 C65,8.20095787 64.9988575,8.19370245 64.9986035,8.18631747 C64.9978418,8.15742535 64.9961915,8.1289219 64.9928908,8.10067757 C64.991621,8.0903127 64.9897168,8.0799478 64.9881935,8.06958292 C64.9843848,8.04354115 64.9796875,8.01788805 64.9738478,7.9927532 C64.9715625,7.982777 64.9690235,7.97293035 64.9663575,7.96295415 C64.9589943,7.93561675 64.9506153,7.9087976 64.940967,7.88236715 C64.9391895,7.87731427 64.938047,7.87213182 64.9361428,7.8672085 L62.3532885,1.11940782 C62.0929085,0.439471217 61.462334,0 60.7469553,0 L56.0441165,0 C55.5314813,0 55.115965,0.424053447 55.115965,0.947221127 C55.115965,1.47038881 55.5314813,1.89444225 56.0441165,1.89444225 L60.6570725,1.89444225 L62.712565,7.26461987 L43.279396,7.26461987 L42.061792,1.89444225 L49.2388133,1.89444225 C49.7514485,1.89444225 50.166965,1.47038881 50.166965,0.947221127 C50.166965,0.424053447 49.7514485,0 49.2388133,0 L40.8943343,0 L31.5421045,0 L11.6893567,0 C10.9738509,0 10.3434034,0.439471217 10.0830233,1.11966694 L7.50016908,7.8672085 C7.49826478,7.87226137 7.49724918,7.87744382 7.49534488,7.88236715 C7.48569645,7.90866805 7.47731758,7.9354872 7.46995433,7.96295415 C7.4672883,7.97293035 7.46474925,7.982777 7.4624641,7.9927532 C7.45662428,8.0180176 7.45192703,8.0436707 7.44811845,8.06958292 C7.446595,8.0799478 7.44469073,8.0903127 7.44342118,8.10067757 C7.44024738,8.1289219 7.43847003,8.15742535 7.4377083,8.18631747 C7.43758135,8.19357287 7.4366927,8.2008283 7.43656573,8.2082133 C7.43656573,8.20937935 7.43643878,8.2105454 7.43643878,8.21171145 L7.43643878,22.1278681 C7.43643878,22.6510358 7.8519552,23.0750892 8.3645905,23.0750892 C8.8772258,23.0750892 9.29274223,22.6510358 9.29274223,22.1278681 L9.29274223,9.15906212 L28.9668675,9.15906212 L28.9668675,23.5569269 C28.9668675,24.1199994 29.2918665,24.6330613 29.7949803,24.8640687 C29.9791888,24.9486721 30.1753308,24.9900021 30.3702033,24.9900021 C30.70739,24.9900021 31.0408948,24.8664008 31.3024175,24.6298223 L36.218156,20.1853587 L41.1338943,24.6296927 C41.5466178,25.0032172 42.1384715,25.0950762 42.6415855,24.8640687 C43.1445723,24.6329318 43.4695713,24.1199994 43.4695713,23.5569269 L43.4695713,9.15906212 L63.1435695,9.15906212 L63.1435695,51.6451235 C63.1435695,52.324801 62.6016083,52.8778972 61.935614,52.8778972 L44.9172138,52.8778972 C44.9172138,52.8671435 44.9159443,52.85639 44.9158173,52.8456365 C44.9148018,52.7606445 44.911755,52.6757817 44.9046455,52.5915672 C46.5026,53.0239125 48.209988,52.1857817 48.8503378,50.5831112 C49.1871435,49.7400572 49.1821923,48.8136952 48.836246,47.9746577 C48.803619,47.8956255 48.7676915,47.8189252 48.7298595,47.7433912 C48.7228773,47.7295282 48.7161488,47.7155355 48.7091663,47.701802 C48.671969,47.629766 48.6323598,47.5594145 48.5905923,47.4908765 C48.5824673,47.4775317 48.5740885,47.4645757 48.5658365,47.4513605 C48.521657,47.3810087 48.475827,47.3119527 48.4269503,47.245488 C48.4260615,47.2441922 48.425046,47.2430262 48.4241573,47.2418602 C48.3756613,47.1761727 48.3243723,47.112947 48.271433,47.0511462 C48.2617848,47.0398745 48.2522633,47.028473 48.2424878,47.0172012 C48.1900563,46.9576032 48.1355935,46.8999485 48.0792265,46.8443667 C48.0681818,46.8334837 48.0570098,46.8229892 48.045838,46.8123652 C47.986805,46.755747 47.9263755,46.7006835 47.8634068,46.6487295 C47.8612488,46.6470452 47.8590905,46.645361 47.8569323,46.6436767 C47.7949793,46.5927592 47.7306143,46.5445625 47.6649798,46.4981795 C47.653173,46.489758 47.6414935,46.481207 47.629433,46.4729152 C47.5637983,46.4278277 47.4965133,46.3852022 47.427451,46.3446497 C47.4217383,46.341281 47.416533,46.3373942 47.4106933,46.3340257 C47.8029773,45.9875792 48.1126153,45.5491445 48.3142163,45.0446337 C48.6510218,44.2015797 48.6460708,43.2752177 48.3001245,42.4360507 C47.997469,41.701828 47.46541,41.1112885 46.7839275,40.7448897 C46.6865548,40.692547 46.586135,40.644739 46.4829225,40.6018542 L32.0373473,34.5906085 L38.7615278,32.466584 C40.3612598,31.9611662 41.2622435,30.219865 40.7699208,28.5851927 C40.58622,27.97496 40.2219925,27.4603435 39.7515055,27.0842275 C39.051361,26.5243942 38.115592,26.2716205 37.1875673,26.4704967 C37.183124,26.4715332 37.1788075,26.4723105 37.1743643,26.4734765 C37.1229483,26.4852667 31.968158,27.6681595 26.5844718,28.7395 C26.3456735,28.787049 26.112969,28.8329137 25.8835655,28.878001 C25.6999918,28.9140187 25.518957,28.9495185 25.34135,28.9839817 C25.290315,28.993958 25.2391533,29.0038047 25.188499,29.0136512 C24.8749256,29.0744155 24.5711277,29.1325885 24.2758355,29.1885587 C24.1570077,29.2111025 24.0391955,29.233387 23.9232876,29.2551532 C17.1621638,30.526277 15.2628234,30.5490797 14.7357154,30.4762665 C14.7336842,30.4760072 14.7319069,30.4757482 14.7298756,30.4753595 C14.7218776,30.4741935 14.7140065,30.4730275 14.7066433,30.4718615 C14.7013112,30.4709545 14.6963601,30.4700475 14.6914089,30.4692702 C14.6878543,30.4686225 14.6840457,30.4679745 14.6806179,30.4674562 C14.6477372,30.461367 14.6220927,30.4550185 14.6022881,30.448929 L14.4501987,30.3857032 L14.6397392,29.9113802 C14.8261058,29.4449602 14.8233129,28.9324165 14.631995,28.4681992 C14.5841338,28.3521125 14.5258625,28.2425037 14.4583236,28.1404095 C14.255707,27.8342567 13.9691746,27.5958642 13.6264021,27.4532175 L8.6412206,25.378815 C8.18431758,25.1884897 7.68196545,25.1914697 7.22709365,25.3867182 C6.77209493,25.5819667 6.41903925,25.946422 6.2326726,26.4127125 L0.136781274,41.670215 C-0.247885628,42.6329835 0.206732253,43.7355485 1.15011831,44.128248 L6.13542678,46.2027802 C6.36305308,46.2974895 6.59855048,46.3423175 6.8304932,46.3423175 C7.55958298,46.3423175 8.2519834,45.8989595 8.54384783,45.1686237 L8.58967778,45.053962 L9.73910818,45.532172 C9.73974295,45.5324312 9.74037773,45.5328197 9.74113943,45.533079 C10.8405505,45.9905592 11.8535066,46.643288 12.7302425,47.453304 C12.8896952,47.6006147 13.0445776,47.7531082 13.1947627,47.910525 C13.3449478,48.0679417 13.4901818,48.2304112 13.6304646,48.397545 C13.7005425,48.481112 13.7694779,48.5659745 13.8368898,48.6518735 C15.1144156,50.277606 16.7891766,51.552876 18.6798842,52.3397005 L19.9730252,52.8777675 L10.5008248,52.8777675 C9.83483058,52.8777675 9.2928692,52.3246712 9.2928692,51.6449937 L9.2928692,49.2482432 C9.2928692,48.7250755 8.87735275,48.301022 8.36471745,48.301022 C7.85208218,48.301022 7.43656573,48.7250755 7.43656573,49.2482432 L7.43656573,51.6449937 C7.43656573,53.3693225 8.81108343,54.7722097 10.5008248,54.7722097 L24.5256786,54.7722097 L36.4822178,59.7476147 C36.8937985,59.9188945 37.3195983,60 37.7389233,60 C39.056566,60 40.3080665,59.1986645 40.8355553,57.8785665 C41.0518828,57.3371307 41.121326,56.771208 41.0630545,56.227181 C41.6849963,56.3182622 42.3297893,56.2346955 42.91428,55.977128 C43.508292,55.715285 44.0006148,55.298228 44.3502428,54.7720802 L61.935741,54.7720802 C63.6253553,54.7720802 65,53.3693225 65,51.6448642 L65,8.211841 C65,8.2105454 65,8.2095089 65,8.2082133 Z M32.279954,1.89444225 L40.156358,1.89444225 L41.373962,7.26461987 L31.06235,7.26461987 L32.279954,1.89444225 Z M29.1570428,7.26461987 L9.7237469,7.26461987 L11.7792393,1.89444225 L30.3746468,1.89444225 L29.1570428,7.26461987 Z M41.6135218,22.5322283 L41.6133948,22.5322283 L37.1494815,18.4964003 C36.8840233,18.2564532 36.551153,18.1364796 36.2184098,18.1364796 C35.8855398,18.1364796 35.5525425,18.2564532 35.2870843,18.4964003 L30.8232978,22.5322283 L30.8232978,9.15906212 L41.6135218,9.15906212 L41.6135218,22.5322283 L41.6135218,22.5322283 Z M6.82820805,44.4451545 L1.85889564,42.3773595 L7.94831238,27.1364407 L12.9176248,29.2043652 L6.82820805,44.4451545 Z M43.9092088,50.1615192 L42.843948,49.7181612 C42.8434403,49.7179022 42.8429325,49.7177727 42.8424248,49.7175135 C42.8420438,49.717384 42.841663,49.7171247 42.841282,49.7169952 C42.8411553,49.7169952 42.8410283,49.7168657 42.8409013,49.7168657 L31.7470063,45.1004745 C31.2724568,44.9030235 30.7307493,45.135456 30.5371463,45.6200145 C30.3435433,46.1044435 30.5714235,46.6572805 31.046227,46.8548612 L42.1403758,51.471382 C42.1867135,51.4906865 42.231528,51.5120642 42.2748188,51.5355147 C42.2870063,51.5421222 42.298305,51.550155 42.3102388,51.5570217 C42.3407073,51.5746422 42.371303,51.5922625 42.4001213,51.6118262 C42.413959,51.6212842 42.4266543,51.6321672 42.4401113,51.642014 C42.4656288,51.6606707 42.4916543,51.6790685 42.5157753,51.69928 C42.5303748,51.7114587 42.5435778,51.7250625 42.5576695,51.7377595 C42.5792515,51.7573232 42.6013413,51.7762392 42.6216538,51.796969 C42.6357455,51.8112207 42.648314,51.8268975 42.661771,51.8416675 C42.680433,51.8621382 42.6996028,51.8822202 42.7171223,51.9037272 C42.7304523,51.9201815 42.742132,51.9376722 42.7548273,51.9546447 C42.7706963,51.9758927 42.7872003,51.9967522 42.8017998,52.0187775 C42.8141143,52.0371752 42.8246513,52.0566095 42.836077,52.0753957 C42.84928,52.097162 42.863245,52.1185397 42.8753055,52.1409537 C42.8862235,52.1611652 42.895364,52.1822837 42.9053933,52.202884 C42.9160573,52.2250387 42.92761,52.246805 42.9372585,52.2694782 C42.946526,52.2912445 42.9540163,52.3137882 42.962268,52.3359432 C42.970647,52.3583572 42.9797875,52.3803825 42.9871508,52.4031852 C42.994514,52.4261177 43.0001,52.4495682 43.0063208,52.4727597 C43.0125415,52.495692 43.0195238,52.5182355 43.0247288,52.541427 C43.029934,52.5648775 43.0332348,52.5887167 43.0374243,52.612297 C43.0416135,52.635877 43.0464378,52.659198 43.0494848,52.6830372 C43.0525315,52.7068765 43.053674,52.730975 43.0555785,52.7549437 C43.0574828,52.779042 43.0602758,52.8030107 43.0610373,52.8271092 C43.061799,52.850819 43.0606565,52.8747877 43.0604025,52.898627 C43.0601488,52.9232435 43.0605295,52.9478602 43.059006,52.9726062 C43.0576095,52.996057 43.054182,53.0195075 43.0516428,53.042958 C43.0489768,53.0682225 43.0469455,53.0934867 43.042883,53.1186217 C43.0392015,53.1416835 43.0334885,53.1646157 43.0287913,53.1876777 C43.0234593,53.2132012 43.019016,53.2387247 43.0122875,53.2641187 C43.0064478,53.2865327 42.9985765,53.3088172 42.9915943,53.3311017 C42.983723,53.3564957 42.9764868,53.3818897 42.9672193,53.406895 C42.9593483,53.4241267 42.951604,53.441488 42.9443678,53.4589787 C42.9427173,53.462995 42.9418288,53.467141 42.9403053,53.4710277 C42.7953253,53.8126805 42.5277088,54.084111 42.1782078,54.238159 C41.7935408,54.4074955 41.3531418,54.4134552 40.9697443,54.253836 L39.0041345,53.4359167 C38.994994,53.4321595 38.9857263,53.4295682 38.9765858,53.4260702 C38.9673183,53.4217947 38.9585585,53.4168712 38.949164,53.4129845 L29.9258688,49.6581745 C29.4509383,49.4607235 28.9094848,49.693156 28.7160088,50.1777145 C28.5224058,50.6621435 28.750286,51.2149805 29.2249625,51.4125612 L38.2482578,55.1673712 C38.257906,55.1713875 38.2676815,55.174238 38.2774568,55.1778657 C38.2862165,55.1817525 38.2943415,55.1865462 38.3033553,55.190174 C39.0606285,55.505396 39.4256178,56.3905575 39.1168685,57.1633892 C38.8079925,57.9364802 37.941032,58.309098 37.1833778,57.9936167 L25.0600228,52.948767 C25.059515,52.948508 25.0590073,52.9482487 25.0584993,52.9479897 L19.3811713,50.5854432 C18.3817991,50.1695522 17.4537743,49.5923575 16.6345481,48.8822332 C16.1429869,48.4561067 15.6906542,47.9823017 15.285421,47.4666487 C14.8861545,46.9586397 14.4481674,46.4848347 13.9769187,46.04938 C12.9400954,45.0915347 11.742296,44.3197395 10.4424266,43.7786922 C10.4422996,43.7786922 10.4421727,43.7785627 10.4420457,43.7785627 L9.29109185,43.299705 L11.5834781,37.562092 L13.7498002,32.14009 L13.9096338,32.2065547 C14.0600728,32.2691327 14.274623,32.3580117 14.8520042,32.3802962 C15.5733498,32.4135935 16.7667059,32.3367637 18.9045906,32.028538 C20.3588346,31.818908 22.1426481,31.515735 24.2250544,31.1247197 C24.2763433,31.1151322 24.3272514,31.1055447 24.3790481,31.0958275 C24.4764209,31.07743 24.5748093,31.0587732 24.6735785,31.0401162 C24.750385,31.0256055 24.8275723,31.0108355 24.9053943,30.995936 C24.9940073,30.9789635 25.0830013,30.961991 25.17263,30.9447595 C25.2677175,30.9264912 25.3639478,30.907964 25.4606858,30.8891777 C25.538127,30.8741485 25.6154413,30.859249 25.693644,30.8440905 C25.8115833,30.821158 25.9315535,30.7977075 26.0519048,30.7741275 C26.1138578,30.7619487 26.175176,30.750029 26.2376368,30.7378502 C26.421972,30.7015732 26.6087198,30.6647777 26.798895,30.6270755 C32.164046,29.5620835 37.3424498,28.376729 37.575154,28.3233497 C37.5983865,28.3184265 37.6216188,28.3155762 37.6448513,28.312078 C38.2410215,28.222033 38.825131,28.573921 38.9961365,29.1416577 C39.0561853,29.3411817 39.0631675,29.5447222 39.0253358,29.7362135 C38.9421815,30.1576757 38.6420653,30.5213537 38.2130918,30.656745 L29.011301,33.5633185 C28.6366633,33.6817375 28.3753945,34.0272767 28.3585098,34.4271022 C28.341498,34.8267982 28.5722983,35.1943632 28.935383,35.3454312 L45.782524,42.3561115 C46.1494175,42.5087345 46.4360768,42.7980445 46.5896898,43.1707917 C46.7433025,43.543539 46.7455878,43.955025 46.5959103,44.329327 C46.446233,44.7037585 46.1628745,44.9963075 45.7976313,45.1530762 C45.6150733,45.2313312 45.4229938,45.270977 45.2306603,45.272143 C45.2278673,45.272143 45.2250743,45.2717542 45.2222813,45.2717542 C45.1770863,45.2717542 45.132018,45.2699405 45.0869498,45.265665 C45.0736198,45.2643692 45.0604165,45.261519 45.0470865,45.2599642 C45.0126823,45.2556887 44.9782783,45.2516722 44.9441278,45.244935 C44.9225458,45.2406595 44.9012178,45.2341815 44.8797628,45.228999 C44.8541183,45.2227802 44.828347,45.2174682 44.8029563,45.209824 C44.7766773,45.2019207 44.7509058,45.1914265 44.7250073,45.1819685 C44.704441,45.174454 44.6834938,45.168235 44.6631813,45.1598135 L33.5680168,40.5427745 C33.0933403,40.3451937 32.5517598,40.577756 32.3581568,41.0623145 C32.1645538,41.5467432 32.392434,42.0995805 32.8672375,42.2971612 L46.3185185,47.894589 C46.4103055,47.93268 46.4970143,47.9794515 46.577883,48.0338672 C46.8204898,48.197114 47.010538,48.4296762 47.1256843,48.709269 C47.2601273,49.0353742 47.2786625,49.391149 47.1809088,49.7258055 C47.166944,49.7736135 47.150567,49.8210327 47.131905,49.8678042 C47.1126083,49.9161307 47.0911533,49.9629022 47.0676668,50.0079895 C47.0129503,50.112934 46.9463,50.2077727 46.8719058,50.29419 C46.825695,50.3478282 46.7763103,50.3978387 46.7237518,50.4437035 C46.715373,50.4509587 46.7077558,50.4592507 46.69925,50.466247 C46.36054,50.7489492 45.9076995,50.8704777 45.465269,50.7792667 C45.3755133,50.7607395 45.2862655,50.7344385 45.1984143,50.6979022 L43.9092088,50.1615192 Z" id="Shape" fill="#404652"></path>
</g>
</g>
</g>
</svg>
