<svg width="78px" height="75px" viewBox="0 0 78 75" xmlns="http://www.w3.org/2000/svg">
<g id="Icons" stroke="none" stroke-width="1" fill="none" fill-rule="evenodd">
<g id="Get-Started-Funnel-Icons" transform="translate(-1205.000000, -502.000000)" fill-rule="nonzero">
<g id="Group-7" transform="translate(1205.000000, 502.000000)">
<circle id="Oval" fill-opacity="0.4" fill="#99E880" cx="41" cy="38" r="37"></circle>
<path d="M15.2910156,9.23436645 C15.2910156,9.90922525 15.0661621,10.5324615 14.6889649,11.0350831 C15.5816651,11.6652428 16.1112061,12.6809321 16.1112061,13.7724153 C16.1112061,14.6985849 15.7340088,15.5387574 15.1248779,16.1481467 C14.5124512,16.7541349 13.6716309,17.1295828 12.7373047,17.1295828 C11.5262451,17.1295828 9.63000488,17.1365481 9.62658693,17.1365481 C9.1282959,17.1399073 8.7027588,16.7302063 8.70613609,16.2308642 C8.70613609,13.2009231 8.70613609,10.170982 8.70613609,7.14444197 C8.70613609,6.6416989 9.11791993,6.2319979 9.62316895,6.2319979 L12.2736817,6.2319979 C13.107666,6.2319979 13.8619385,6.5694273 14.4086914,7.11346842 C14.9554443,7.65398707 15.2910156,8.40463995 15.2910156,9.23436645 L15.2910156,9.23436645 Z M25.654663,49.7256513 C24.7376709,50.9892502 23.5716553,52.063607 22.2288818,52.876207 C20.4467774,53.9539647 18.3603516,54.5770795 16.128418,54.5770795 C12.8859863,54.5770795 9.95166015,53.26866 7.82373048,51.154564 C5.69909668,49.037067 4.3840332,46.117173 4.3840332,42.8909448 C4.3840332,41.5102537 4.6262207,40.181185 5.06921388,38.952082 C5.52600098,37.6781585 6.20422363,36.5039577 7.05541993,35.474543 C7.37719728,35.085491 7.95166015,35.030346 8.3392334,35.3506487 C8.7302246,35.6674292 8.78552245,36.2389215 8.46728515,36.6280947 C7.75097655,37.4887947 7.18347168,38.4805555 6.79248048,39.5651152 C6.41870118,40.601575 6.2145996,41.7205092 6.2145996,42.8911878 C6.2145996,45.6147945 7.32543945,48.0800453 9.1213379,49.8636355 C10.9138184,51.650505 13.3912354,52.7558353 16.128418,52.7558353 C18.0177002,52.7558353 19.7789307,52.2324432 21.2773438,51.3235218 C22.7133789,50.4557767 23.9071045,49.2369982 24.7410889,47.783914 C23.8310547,45.5391217 23.3327637,43.084074 23.3327637,40.5155777 C23.3327637,39.1589367 23.4711914,37.8367917 23.7341309,36.5593457 C22.8516846,35.509282 21.7547608,34.6484605 20.5091553,34.0355488 C19.1907959,33.3882625 17.7062988,33.026783 16.128418,33.026783 C15.2806397,33.026783 14.4570313,33.1300282 13.6749268,33.3298378 C12.8583984,33.5364495 12.0866699,33.839383 11.3773193,34.228435 C10.9344483,34.4660202 10.3808594,34.304229 10.1386719,33.863433 C9.89990235,33.4227585 10.0625,32.8717937 10.5053711,32.6342085 C11.3601074,32.1693625 12.2701416,31.8077615 13.2216797,31.5633742 C14.1525879,31.32919 15.1282959,31.2017735 16.128418,31.2017735 C17.9901123,31.2017735 19.7513428,31.635646 21.3188477,32.4069478 C22.4157715,32.9440655 23.4157715,33.6498977 24.2877197,34.4865477 C25.2531738,31.5288782 26.9106445,28.8810657 29.0699463,26.735996 C31.4437255,24.3705893 34.4265138,22.6111707 37.765747,21.7090512 C37.0701905,20.8861267 36.4853515,19.9633581 36.0389405,18.9717189 C35.3814698,17.5084317 35.0146485,15.8935563 35.0146485,14.1994858 C35.0146485,12.5708849 35.3537598,11.0145556 35.9627685,9.59936838 C36.5996093,8.12915765 37.5235595,6.81745855 38.6722413,5.7327773 C39.0356445,5.38502338 39.6135255,5.39887038 39.9630128,5.76375083 C40.30896,6.12523027 40.295166,6.70376743 39.9283448,7.04812033 C38.9630128,7.96396543 38.1774903,9.07269673 37.6446533,10.3087232 C37.1325683,11.5000506 36.8452148,12.8152722 36.8452148,14.1994858 C36.8452148,15.642124 37.1531983,17.0056886 37.7069093,18.2313906 C38.2189943,19.3744964 38.9492188,20.4040326 39.838379,21.2682552 C40.841919,21.109865 41.869629,21.0272689 42.9180908,21.0272689 C45.9459228,21.0272689 48.8179933,21.7124522 51.378662,22.9348746 C52.915039,22.1291981 54.2126465,20.9309472 55.1398925,19.474462 C56.1123048,17.9526287 56.6728515,16.1414661 56.6728515,14.1996073 C56.6728515,11.476122 55.5655518,9.0108711 53.7696533,7.227281 C51.9771728,5.4402899 49.4997558,4.33495963 46.7591553,4.33495963 C46.1154785,4.33495963 45.4925538,4.39350568 44.897461,4.5071968 C44.2884523,4.62428893 43.6932373,4.79640465 43.1153565,5.0236654 C42.6447755,5.20950665 42.1153565,4.97884488 41.9284668,4.5105978 C41.7415773,4.04235075 41.9733888,3.51555763 42.4440918,3.32959493 C43.1153565,3.0644371 43.821167,2.86134785 44.5617675,2.72020568 C45.2814943,2.58586555 46.0150148,2.51359395 46.7591553,2.51359395 C50.0048828,2.51359395 52.939209,3.82201348 55.0637208,5.93610948 C57.1918945,8.0536065 58.506836,10.9733789 58.506836,14.1996073 C58.506836,16.499666 57.8389893,18.641213 56.6866455,20.4489746 C55.7973633,21.8433913 54.6208495,23.0382412 53.2366943,23.9506853 C54.5169678,24.7426362 55.7038575,25.6791302 56.7662353,26.7361175 C60.3096925,30.2616352 62.5,35.1337125 62.5,40.515335 C62.5,45.8969573 60.3096925,50.765512 56.7662353,54.2947952 C53.2193603,57.8204345 48.32312,60 42.9180908,60 C37.5097655,60 32.6132813,57.8204345 29.0700683,54.2947952 C27.717163,52.9520013 26.5648193,51.4129198 25.654663,49.7256513 L25.654663,49.7256513 Z M7.3774414,2.82685182 C6.92419433,3.0471891 6.37756348,2.85782537 6.15600585,2.41022734 C5.93457033,1.95922829 6.12487793,1.41518716 6.57470703,1.19472842 C7.3704834,0.805676457 8.21484375,0.506144098 9.09033203,0.302933377 C9.94836425,0.106646152 10.8376465,0 11.7442627,0 C14.9899902,0 17.9244385,1.30841954 20.0489502,3.42239407 C22.177124,5.53649007 23.4885254,8.459785 23.4885254,11.6858919 C23.4885254,14.9156427 22.177124,17.8354151 20.0489502,19.9495111 C17.9244385,22.0670081 14.9899902,23.3720266 11.7442627,23.3720266 C8.50195313,23.3720266 5.56420898,22.0670081 3.4395752,19.9495111 C1.31506348,17.8354151 0,14.9156427 0,11.6858919 C0,10.2156811 0.27331543,8.81093992 0.775146485,7.5128449 C1.29077149,6.16312732 2.05541992,4.93730387 3.00708008,3.88371763 C3.34265138,3.5083912 3.92053223,3.47741765 4.29760743,3.81484705 C4.67138673,4.15227645 4.70251465,4.72729112 4.36340333,5.09909507 C3.56408693,5.98736765 2.92053223,7.02382735 2.484375,8.16013118 C2.06225586,9.25161447 1.83044434,10.4429419 1.83044434,11.6858919 C1.83044434,14.4094986 2.94128418,16.8781505 4.73364258,18.6617406 C6.52966308,20.4487317 9.00720215,21.5504181 11.7442627,21.5504181 C14.4813233,21.5504181 16.9624024,20.4487317 18.7548828,18.6617406 C20.5507813,16.8781505 21.6580811,14.4094986 21.6580811,11.6858919 C21.6580811,8.96240662 20.5507813,6.49703423 18.7548828,4.71004313 C16.9624024,2.9265745 14.4813233,1.82136567 11.7442627,1.82136567 C10.9656983,1.82136567 10.2148438,1.91088528 9.49865723,2.07619896 C8.75109863,2.24831468 8.04187013,2.49962548 7.3774414,2.82685182 Z M42.2122803,42.732676 C42.5687255,42.3745977 43.1500245,42.3745977 43.5064698,42.732676 C43.866333,43.0873535 43.866333,43.6623682 43.5064698,44.0204465 L32.5891113,54.8835355 C35.4992675,56.9597345 39.0633545,58.1785127 42.9180908,58.1785127 C47.8179933,58.1785127 52.2575683,56.2022795 55.4685058,53.0069032 C58.6832275,49.8082475 60.6695558,45.3906917 60.6695558,40.5152135 C60.6695558,36.6794745 59.44104,33.1330648 57.3580323,30.2374638 L46.4406738,41.1005527 C46.0808105,41.458631 45.5028075,41.458631 45.1464843,41.1005527 C44.786621,40.7459967 44.786621,40.1674595 45.1464843,39.8127822 L56.2089845,28.80515 C55.7314453,28.2680325 55.2229005,27.7618883 54.6864013,27.2867178 L29.6237793,52.2253982 C30.1011963,52.759115 30.6098633,53.265259 31.1496583,53.7404295 L42.2122803,42.732676 Z M28.4748535,50.7896835 L53.2436523,26.1437335 C50.3336183,24.0710569 46.7694093,22.8486345 42.9180908,22.8486345 C38.0148925,22.8486345 33.5753175,24.8249894 30.3641358,28.0236452 C27.1495363,31.2189 25.16333,35.6364557 25.16333,40.515335 C25.16333,44.3475515 26.3917238,47.8973622 28.4748535,50.7896835 L28.4748535,50.7896835 Z M20.0385742,38.3668645 C20.4573975,38.6491487 20.5679932,39.2139602 20.2843018,39.6304635 C20.0040283,40.047088 19.4366455,40.1572565 19.0178223,39.8783732 C18.3985596,39.4617487 17.7167969,39.2586595 16.9763184,39.2586595 C15.9659424,39.2586595 15.0522461,39.6649595 14.3948975,40.3225702 C13.7338867,40.980181 13.3255615,41.885823 13.3255615,42.8911878 C13.3255615,43.8931515 13.7338867,44.8021945 14.3948975,45.4598053 C15.0523682,46.114015 15.9659424,46.523716 16.9763184,46.523716 C17.4295654,46.523716 17.8482666,46.44112 18.2185059,46.2758063 C18.5645752,46.120817 18.8828125,45.8867542 19.149292,45.5665727 C19.4746094,45.1810435 20.0489502,45.1292992 20.4365234,45.4528817 C20.8240967,45.7765855 20.8760986,46.3480777 20.5507813,46.7337287 C20.1044922,47.2674455 19.5646973,47.6668217 18.9625244,47.9353808 C18.3465576,48.210863 17.675293,48.3452032 16.9763184,48.3452032 C15.4605713,48.3452032 14.09021,47.7322915 13.09729,46.7475757 C12.107666,45.759459 11.4916992,44.396016 11.4916992,42.8913092 C11.4916992,41.3832015 12.107666,40.0197582 13.09729,39.0350425 C14.090332,38.046926 15.4605713,37.4374149 16.9763184,37.4374149 C18.0559082,37.4371722 19.142334,37.7642772 20.0385742,38.3668645 Z M45.4993898,15.0119643 L48.6243898,15.0119643 L47.067555,11.2589429 L45.4993898,15.0119643 Z M49.0498048,16.8368525 L44.800415,16.8368525 L44.1740723,18.4793004 C43.9941408,18.9509485 43.4647218,19.1851327 42.9941408,19.0060935 C42.5200195,18.8270543 42.284668,18.3002612 42.4647218,17.8320141 L45.8902588,8.87300848 C46.0563965,8.442537 46.4785158,8.16365367 46.9387208,8.16025265 C47.39563,8.16025265 47.821167,8.44605948 47.9838868,8.8764095 L51.381836,17.8354151 C51.5582275,18.3036622 51.322998,18.8304553 50.848999,19.0060935 C50.378418,19.1817317 49.848999,18.9441464 49.6723633,18.4758994 L49.0498048,16.8368525 Z M10.5366211,12.240379 L10.5366211,15.365379 C11.4259033,15.3619262 12.6542969,15.3548974 12.7373047,15.3548974 C13.1628418,15.3548974 13.5504151,15.1801627 13.8306885,14.9003654 C14.1074219,14.6172386 14.2805176,14.2257195 14.2805176,13.7958501 C14.2805176,13.3658574 14.1074219,12.9779145 13.8306885,12.6947877 C13.5504151,12.4116608 13.1628418,12.240379 12.7373047,12.240379 L10.5366211,12.240379 Z M10.5366211,11.0232415 L12.3930684,11.0232415 C12.7444221,11.0232415 13.0625062,10.8554682 13.2918712,10.5885491 C13.5211057,10.3216301 13.6616211,9.95586902 13.6616211,9.54698792 C13.6616211,9.13810683 13.5211057,8.77234574 13.2918712,8.50542671 C13.0625062,8.23865949 12.7445526,8.0707343 12.3930684,8.0707343 L10.5366211,8.0707343 L10.5366211,11.0232415 Z" id="Shape" fill="#404652"></path>
</g>
</g>
</g>
</svg>
