<svg width="75px" height="74px" viewBox="0 0 75 74" xmlns="http://www.w3.org/2000/svg">
<g id="Icons" stroke="none" stroke-width="1" fill="none" fill-rule="evenodd">
<g id="Get-Started-Funnel-Icons" transform="translate(-1488.000000, -503.000000)" fill-rule="nonzero">
<g id="Group-11" transform="translate(1488.000000, 503.000000)">
<circle id="Oval" fill-opacity="0.4" fill="#99E880" cx="38" cy="37" r="37"></circle>
<g id="sunset-(1)" transform="translate(0.000000, 10.000000)" fill="#404652">
<path d="M47.6555024,42.2117648 C47.6555024,41.6659775 47.191949,41.2235295 46.620127,41.2235295 L36.0592988,41.2235295 C35.4874768,41.2235295 35.0239234,41.6659775 35.0239234,42.2117648 C35.0239234,42.7575519 35.4874768,43.2000001 36.0592988,43.2000001 L46.620127,43.2000001 C47.191949,43.2000001 47.6555024,42.7575519 47.6555024,42.2117648 Z" id="Path"></path>
<path d="M31.291866,42.2117648 C31.291866,41.6659775 30.8295254,41.2235295 30.2591994,41.2235295 L13.3771643,41.2235295 C12.8068382,41.2235295 12.3444976,41.6659775 12.3444976,42.2117648 C12.3444976,42.7575519 12.8068382,43.2000001 13.3771643,43.2000001 L30.2591994,43.2000001 C30.8295254,43.2000001 31.291866,42.7575519 31.291866,42.2117648 Z" id="Path"></path>
<path d="M32.3407018,47.4352941 C31.7614458,47.4352941 31.291866,47.8777421 31.291866,48.4235294 C31.291866,48.9693167 31.7614458,49.4117647 32.3407018,49.4117647 L40.2908772,49.4117647 C40.8701332,49.4117647 41.339713,48.9693167 41.339713,48.4235294 C41.339713,47.8777421 40.8701332,47.4352941 40.2908772,47.4352941 L32.3407018,47.4352941 Z" id="Path"></path>
<path d="M19.7091229,47.4352941 C19.1298669,47.4352941 18.6602871,47.8777421 18.6602871,48.4235294 C18.6602871,48.9693167 19.1298669,49.4117647 19.7091229,49.4117647 L27.6592982,49.4117647 C28.2385542,49.4117647 28.708134,48.9693167 28.708134,48.4235294 C28.708134,47.8777421 28.2385542,47.4352941 27.6592982,47.4352941 L19.7091229,47.4352941 Z" id="Path"></path>
<path d="M11.1372831,35.2349031 L7.35177866,35.2349031 C6.77961762,35.2349031 6.31578948,35.6906066 6.31578948,36.2527457 C6.31578948,36.8148846 6.77961762,37.2705883 7.35177866,37.2705883 L52.9353026,37.2705883 C53.5074638,37.2705883 53.9712918,36.8148846 53.9712918,36.2527457 C53.9712918,35.6906066 53.5074638,35.2349031 52.9353026,35.2349031 L49.1497982,35.2349031 C51.02786,27.5092774 47.8697446,19.4450913 41.2052824,14.9487366 C34.5408202,10.4523819 25.7462612,10.4523819 19.081799,14.9487366 C12.4173367,19.4450913 9.25922136,27.5092774 11.1372831,35.2349031 L11.1372831,35.2349031 Z M30.1435406,13.8154228 C35.5361264,13.8242545 40.6232624,16.2757923 43.9313592,20.4599 C47.2394558,24.6440078 48.398841,30.0931208 47.0736758,35.228796 L13.2134055,35.228796 C11.8882403,30.0931208 13.0476255,24.6440078 16.3557222,20.4599 C19.6638189,16.2757923 24.750955,13.8242545 30.1435406,13.8154228 L30.1435406,13.8154228 Z" id="Shape"></path>
<path d="M15.7224277,33.3176471 L15.8132222,33.3176471 C16.380682,33.2687032 16.8009513,32.7712534 16.7521193,32.2063256 C16.7191032,31.8365696 16.7046586,31.4606512 16.7046586,31.0826787 C16.7080694,23.7879031 22.645191,17.8738955 29.9730296,17.8659635 C30.5428522,17.8659635 31.0047846,17.4061155 31.0047846,16.8388641 C31.0047846,16.2716128 30.5428522,15.8117647 29.9730296,15.8117647 C21.5100414,15.8208199 14.6513837,22.6476096 14.6411483,31.0724078 C14.6411483,31.5106368 14.6597199,31.9440728 14.6968631,32.3727155 C14.7397977,32.9052904 15.1857209,33.3161537 15.7224277,33.3176471 L15.7224277,33.3176471 Z" id="Path"></path>
<path d="M31.0047846,8.58947368 L31.0047846,1.01052631 C31.0047846,0.452428042 30.5549272,0 30,0 C29.4450728,0 28.9952154,0.452428042 28.9952154,1.01052631 L28.9952154,8.58947368 C28.9952154,9.14757195 29.4450728,9.60000001 30,9.60000001 C30.5549272,9.60000001 31.0047846,9.14757195 31.0047846,8.58947368 Z" id="Path"></path>
<path d="M18.7673453,12.7059143 C19.1397312,12.7051086 19.4834878,12.5092929 19.6693543,12.1920341 C19.8552208,11.8747753 19.855019,11.484171 19.6688249,11.1670979 L15.7478058,4.5032767 C15.5701571,4.16938973 15.2206266,3.9581354 14.8374054,3.95303557 C14.4541841,3.94793573 14.0989661,4.1498114 13.912191,4.47884869 C13.7254158,4.80788598 13.7371521,5.21111375 13.9427598,5.52911125 L17.8554318,12.1929325 C18.0432922,12.5128718 18.3916126,12.708789 18.7673453,12.7059143 Z" id="Path"></path>
<path d="M10.9974711,18.9925535 L4.19353794,15.1256561 C3.8687543,14.9224539 3.45692156,14.9108549 3.12086254,15.0954449 C2.78480354,15.280035 2.5786198,15.6310972 2.58382846,16.0098351 C2.58903714,16.3885731 2.80479966,16.7340143 3.14581186,16.9095848 L9.94974502,20.7764821 C10.4472582,21.0326272 11.0614937,20.8572474 11.3424802,20.378821 C11.6234667,19.9003945 11.4713079,19.2890115 10.9974711,18.9925535 Z" id="Path"></path>
<path d="M0,30.917647 C0,31.4634343 0.470923402,31.9058823 1.05183686,31.9058823 L7.56060334,31.9058823 C8.14151678,31.9058823 8.6124402,31.4634343 8.6124402,30.917647 C8.6124402,30.3718598 8.14151678,29.9294117 7.56060334,29.9294117 L1.05183686,29.9294117 C0.470923402,29.9294117 0,30.3718598 0,30.917647 Z" id="Path"></path>
<path d="M58.9481632,29.9294117 L52.4393966,29.9294117 C51.8584832,29.9294117 51.3875598,30.3718598 51.3875598,30.917647 C51.3875598,31.4634343 51.8584832,31.9058823 52.4393966,31.9058823 L58.9481632,31.9058823 C59.5290766,31.9058823 60,31.4634343 60,30.917647 C60,30.3718598 59.5290766,29.9294117 58.9481632,29.9294117 Z" id="Path"></path>
<path d="M50.050255,20.7764821 L56.8541882,16.9095848 C57.1952004,16.7340143 57.4109628,16.3885731 57.4161716,16.0098351 C57.4213802,15.6310972 57.2151964,15.280035 56.8791374,15.0954449 C56.5430784,14.9108549 56.1312456,14.9224539 55.806462,15.1256561 L49.002529,18.9925535 C48.528692,19.2890115 48.3765334,19.9003945 48.6575198,20.378821 C48.9385062,20.8572474 49.5527418,21.0326272 50.050255,20.7764821 L50.050255,20.7764821 Z" id="Path"></path>
<path d="M41.2340984,12.7058824 C41.6073692,12.7058824 41.9522822,12.5103506 42.1389176,12.1929632 L46.0570144,5.52911712 C46.2629072,5.21111844 46.2746598,4.80788916 46.0876256,4.47885065 C45.9005916,4.14981213 45.544881,3.94793573 45.1611284,3.95303557 C44.7773758,3.95813542 44.4273608,4.16939054 44.2494658,4.50327876 L40.331369,11.1671248 C40.1449166,11.484199 40.1447146,11.8748048 40.3308388,12.1920648 C40.516963,12.5093248 40.8611962,12.7051412 41.2340984,12.7058824 Z" id="Path"></path>
</g>
</g>
</g>
</g>
</svg>
