<svg width="75px" height="75px" viewBox="0 0 75 75" xmlns="http://www.w3.org/2000/svg">
<g id="Icons" stroke="none" stroke-width="1" fill="none" fill-rule="evenodd">
<g id="Get-Started-Funnel-Icons" transform="translate(-1348.000000, -503.000000)" fill-rule="nonzero">
<g id="Group-10" transform="translate(1348.000000, 503.000000)">
<circle id="Oval" fill-opacity="0.4" fill="#99E880" cx="38" cy="38" r="37"></circle>
<g id="food-delivery" fill="#404652">
<path d="M58.9790624,47.0906249 L58.1231249,40.2431249 L57.1875,0.9159375 L57.1640624,0.916875 C57.1593749,0.718125 57.1143751,0.52125 56.98875,0.361875 C56.8115624,0.133125 56.53875,0 56.25,0 L18.75,0 C18.3196875,0 17.9446875,0.2934375 17.840625,0.710625 L15.965625,8.210625 C15.8953125,8.49093751 15.9590625,8.78718751 16.13625,9.01406251 C16.299375,9.223125 16.545,9.339375 16.8075,9.35906249 L15.6075,26.25 L4.2375,26.25 C3.38625,26.25 2.63625,26.8190624 2.41593749,27.6309376 L0.0740625,36.0609376 C-0.08625,36.6234376 0.024375,37.2140624 0.37875,37.68375 C0.7396875,38.1628124 1.291875,38.4375 1.89375,38.4375 L1.9565625,38.4375 L2.72625,46.875 L1.875,46.875 C0.8409375,46.875 0,47.7159376 0,48.75 L0,58.125 C0,59.1590624 0.8409375,60 1.875,60 L58.125,60 C59.1590624,60 60,59.1590624 60,58.125 L60,48.75 C60,48.0253124 59.5828124,47.4028124 58.9790624,47.0906249 L58.9790624,47.0906249 Z M55.4784376,7.89093751 L56.25,40.3340624 C56.25,40.3659376 56.2528124,40.3968751 56.2565624,40.42875 L57.0628124,46.875 L51.68625,46.875 L52.4981249,40.3678124 L54.3215624,9.375 L54.375,9.375 C54.8053124,9.375 55.1803124,9.08156249 55.2843749,8.664375 L55.4784376,7.89093751 Z M53.6428124,7.5 L40.3125,7.5 L40.3125,1.875 L55.0490624,1.875 L53.6428124,7.5 Z M32.8125,1.875 L38.4375,1.875 L38.4375,9.733125 L37.9190624,9.474375 C37.6556249,9.34218749 37.3443749,9.34218749 37.08,9.474375 L35.625,10.201875 L34.1690624,9.474375 C33.9056249,9.34218749 33.5943749,9.34218749 33.33,9.474375 L32.8125,9.733125 L32.8125,1.875 Z M18.68625,9.375 L29.0625,9.375 C29.58,9.375 30,8.95593749 30,8.4375 C30,7.91906249 29.58,7.5 29.0625,7.5 L18.0759375,7.5 L19.4821875,1.875 L30.9375,1.875 L30.9375,11.25 C30.9375,11.5753125 31.10625,11.87625 31.3818749,12.0478125 C31.6584376,12.219375 32.0043749,12.2334375 32.2940624,12.0890625 L33.75,11.360625 L35.2059376,12.088125 C35.4693749,12.2203125 35.7806249,12.2203125 36.045,12.088125 L37.5,11.360625 L38.9559376,12.088125 C39.0881249,12.1546875 39.2315624,12.1875 39.375,12.1875 C39.5465624,12.1875 39.7171876,12.140625 39.8681249,12.0478125 C40.14375,11.87625 40.3125,11.5753125 40.3125,11.25 L40.3125,9.375 L52.44375,9.375 L50.6325,40.19625 L49.7971876,46.875 L29.1496876,46.875 L29.9193749,38.4375 L29.9821876,38.4375 C30.5840624,38.4375 31.13625,38.1628124 31.4981249,37.68375 C31.8515624,37.2140624 31.9631249,36.6225 31.8046876,36.0675 L29.4618749,27.6346876 C29.23875,26.8190624 28.48875,26.25 27.6375,26.25 L17.488125,26.25 L18.68625,9.375 Z M4.2375,28.125 L27.6534376,28.1325 L29.98125,36.5625 L19.6875,36.5625 L12.1875,36.5625 L2.8125,36.5625 L1.8778125,36.57 L4.2375,28.125 Z M13.125,38.4375 L18.75,38.4375 L18.75,40.3125 L13.125,40.3125 L13.125,38.4375 Z M11.25,38.4375 L11.25,40.3125 C11.25,41.3465624 12.0909375,42.1875 13.125,42.1875 L18.75,42.1875 C19.7840625,42.1875 20.625,41.3465624 20.625,40.3125 L20.625,38.4375 L28.0265624,38.4375 L27.1875,46.875 L4.60875,46.8740624 L3.84,38.4375 L11.25,38.4375 Z M58.125,58.125 L1.875,58.125 L1.875,48.75 L4.603125,48.75 L27.2718749,48.75 L34.6875,48.75 L34.6875,52.5 L25.3125,52.5 L25.3125,50.625 C25.3125,50.1065624 24.8925,49.6875 24.375,49.6875 C23.8575,49.6875 23.4375,50.1065624 23.4375,50.625 L23.4375,52.5 C23.4375,53.5340624 24.2784376,54.375 25.3125,54.375 L34.6875,54.375 C35.7215624,54.375 36.5625,53.5340624 36.5625,52.5 L36.5625,48.75 L58.125,48.75 L58.125,58.125 Z" id="Shape"></path>
</g>
</g>
</g>
</g>
</svg>
