<svg width="74px" height="75px" viewBox="0 0 74 75" xmlns="http://www.w3.org/2000/svg">
<g id="Icons" stroke="none" stroke-width="1" fill="none" fill-rule="evenodd">
<g id="Get-Started-Funnel-Icons" transform="translate(-921.000000, -503.000000)" fill-rule="nonzero">
<g id="Group-5" transform="translate(921.000000, 503.000000)">
<circle id="Oval" fill-opacity="0.4" fill="#99E880" cx="37" cy="38" r="37"></circle>
<g id="add-file" transform="translate(2.000000, 0.000000)" fill="#404652">
<path d="M38.671875,20.1891797 C38.671875,19.7037891 38.2783594,19.3102734 37.7929688,19.3102734 L7.91015625,19.3102734 C7.42476563,19.3102734 7.03125,19.7037891 7.03125,20.1891797 C7.03125,20.6745703 7.42476563,21.0680859 7.91015625,21.0680859 L37.7929688,21.0680859 C38.2783594,21.0680859 38.671875,20.6745703 38.671875,20.1891797 Z" id="Path"></path>
<path d="M29.6326172,27.1228125 L7.91015625,27.1228125 C7.42476563,27.1228125 7.03125,27.5163281 7.03125,28.0017187 C7.03125,28.4871094 7.42476563,28.880625 7.91015625,28.880625 L29.6326172,28.880625 C30.1180078,28.880625 30.5115234,28.4871094 30.5115234,28.0017187 C30.5115234,27.5163281 30.1180078,27.1228125 29.6326172,27.1228125 Z" id="Path"></path>
<path d="M7.91015625,36.6931641 L29.6326172,36.6931641 C30.1180078,36.6931641 30.5115234,36.2996484 30.5115234,35.8142578 C30.5115234,35.3288672 30.1180078,34.9353516 29.6326172,34.9353516 L7.91015625,34.9353516 C7.42476563,34.9353516 7.03125,35.3288672 7.03125,35.8142578 C7.03125,36.2996484 7.42476563,36.6931641 7.91015625,36.6931641 Z" id="Path"></path>
<path d="M7.91015625,44.5055859 L37.7929688,44.5055859 C38.2783594,44.5055859 38.671875,44.1120703 38.671875,43.6266797 C38.671875,43.1412891 38.2783594,42.7477734 37.7929688,42.7477734 L7.91015625,42.7477734 C7.42476563,42.7477734 7.03125,43.1412891 7.03125,43.6266797 C7.03125,44.1120703 7.42476563,44.5055859 7.91015625,44.5055859 Z" id="Path"></path>
<path d="M46.2890625,20.5156641 L46.2890625,3.80859375 C46.2890625,1.70859375 44.5804688,0 42.4804688,0 L22.6166016,0 C22.1312109,0 21.7376953,0.393515625 21.7376953,0.87890625 C21.7376953,1.36429687 22.1312109,1.7578125 22.6166016,1.7578125 L42.4804688,1.7578125 C43.6112109,1.7578125 44.53125,2.67785156 44.53125,3.80859375 L44.53125,20.5156641 C38.64375,20.9654297 33.984375,25.8989063 33.984375,31.9079297 C33.984375,37.9671094 38.6925,42.8541797 44.53125,43.3001953 L44.53125,56.1914062 C44.53125,57.3221484 43.6112109,58.2421875 42.4804688,58.2421875 L3.80859375,58.2421875 C2.67785156,58.2421875 1.7578125,57.3221484 1.7578125,56.1914062 L1.7578125,13.8867188 L10.078125,13.8867188 C12.178125,13.8867188 13.8867188,12.178125 13.8867188,10.078125 L13.8867188,1.7578125 L18.5150391,1.7578125 C19.0004297,1.7578125 19.3939453,1.36429687 19.3939453,0.87890625 C19.3939453,0.393515625 19.0004297,0 18.5150391,0 L13.0078125,0 C12.7867969,0 12.5562891,0.0873046875 12.3863672,0.257460937 L0.257460937,12.3863672 C0.09046875,12.5532422 0,12.7869141 0,13.0078125 L0,56.1914062 C0,58.2914063 1.70859375,60 3.80859375,60 L42.4804688,60 C44.5804688,60 46.2890625,58.2914063 46.2890625,56.1914062 L46.2890625,43.2987891 C48.0590625,43.1628516 49.7744531,42.6189844 51.2956641,41.7031641 C51.7114453,41.4528516 51.845625,40.9127344 51.5953125,40.4968359 C51.345,40.0811719 50.805,39.9467578 50.3889844,40.1971875 C48.8908594,41.0991797 47.1692578,41.5758984 45.4102734,41.5758984 C40.0792969,41.5758984 35.7423047,37.2389062 35.7423047,31.9079297 C35.7423047,26.5769531 40.0792969,22.2399609 45.4102734,22.2399609 C50.74125,22.2399609 55.0782422,26.5769531 55.0782422,31.9079297 C55.0782422,34.0109766 54.4148438,36.0100781 53.1598828,37.689375 C52.869375,38.0782031 52.9489453,38.6289844 53.3377734,38.9196094 C53.7267188,39.2101172 54.2775,39.1304297 54.5680078,38.7417188 C56.0518359,36.7563281 56.8360547,34.3932422 56.8360547,31.9080469 C56.8360547,25.9034766 52.1801953,20.9658984 46.2890625,20.5156641 Z M12.1289062,3.00070312 L12.1289062,10.078125 C12.1289062,11.2088672 11.2088672,12.1289062 10.078125,12.1289062 L3.00070313,12.1289062 L12.1289062,3.00070312 Z" id="Shape"></path>
<path d="M51.1228125,31.0290234 L46.2890625,31.0290234 L46.2890625,26.1952734 C46.2890625,25.7098828 45.8955469,25.3163672 45.4101562,25.3163672 C44.9247656,25.3163672 44.53125,25.7098828 44.53125,26.1952734 L44.53125,31.0290234 L39.6975,31.0290234 C39.2121094,31.0290234 38.8185937,31.4225391 38.8185937,31.9079297 C38.8185937,32.3933203 39.2121094,32.7868359 39.6975,32.7868359 L44.53125,32.7868359 L44.53125,37.6205859 C44.53125,38.1059766 44.9247656,38.4994922 45.4101562,38.4994922 C45.8955469,38.4994922 46.2890625,38.1059766 46.2890625,37.6205859 L46.2890625,32.7868359 L51.1228125,32.7868359 C51.6082031,32.7868359 52.0017187,32.3933203 52.0017187,31.9079297 C52.0017187,31.4225391 51.6082031,31.0290234 51.1228125,31.0290234 Z" id="Path"></path>
</g>
</g>
</g>
</g>
</svg>
