<svg width="100px" height="100px" viewBox="0 0 100 100" xmlns="http://www.w3.org/2000/svg">
<g id="Icons" stroke="none" stroke-width="1" fill="none" fill-rule="evenodd">
<g id="New-Icons" transform="translate(-406.000000, -495.000000)" fill="#8099E8" fill-rule="nonzero">
<g id="networking" transform="translate(406.000000, 495.000000)">
<path d="M80,40 C91.0286458,40 100,31.0286458 100,20 C100,8.97135417 91.0286458,0 80,0 C71.9913737,0 65.0862629,4.74202479 61.895345,11.5568033 L56.5397135,9.58007812 C56.60319,9.16992188 56.6666667,8.75976562 56.6666667,8.33333333 C56.6666667,3.73860667 52.92806,0 48.3333333,0 C43.7386067,0 40,3.73860667 40,8.33333333 C40,12.92806 43.7386067,16.6666667 48.3333333,16.6666667 C51.3183594,16.6666667 53.9217123,15.0748698 55.3930665,12.7099608 L60.739746,14.683431 C60.2701823,16.3802083 60,18.1567383 60,20 C60,22.183431 60.3629558,24.2797852 61.0131835,26.2483725 L42.6831054,34.0169271 C39.3269856,27.6717123 32.6652019,23.3333333 25,23.3333333 C22.516276,23.3333333 20.1464844,23.8102212 17.9500325,24.6402996 L13.3398438,14.9519856 C15.3483073,13.4285481 16.6666667,11.0416667 16.6666667,8.33333333 C16.6666667,3.73860667 12.92806,0 8.33333333,0 C3.73860667,0 0,3.73860667 0,8.33333333 C0,12.92806 3.73860667,16.6666667 8.33333333,16.6666667 C9.02669271,16.6666667 9.69156896,16.5568033 10.3369142,16.3948567 L14.9414062,26.073405 C9.00634771,29.5467123 5,35.9733073 5,43.3333333 C5,50.2465821 8.52701833,56.34847 13.8736979,59.9414062 L10.8251954,65.4215496 C10.0317383,65.1717123 9.20654292,65 8.33333333,65 C3.73860667,65 0,68.7386067 0,73.3333333 C0,77.92806 3.73860667,81.6666667 8.33333333,81.6666667 C12.92806,81.6666667 16.6666667,77.92806 16.6666667,73.3333333 C16.6666667,70.8097331 15.5151367,68.5717773 13.7386067,67.0434571 L16.7936198,61.5519206 C19.3001302,62.6863606 22.0735677,63.3333333 25,63.3333333 C29.5735677,63.3333333 33.7801106,61.7732748 37.1533204,59.1796875 L43.713379,66.3964844 C40.386556,69.9698894 38.3333333,74.7436523 38.3333333,80 C38.3333333,81.019694 38.4350585,82.0133462 38.5815429,82.9915365 L30.863444,84.823405 C29.535319,81.9832356 26.6699219,80 23.3333333,80 C18.7386067,80 15,83.7386067 15,88.3333333 C15,92.92806 18.7386067,96.6666667 23.3333333,96.6666667 C27.92806,96.6666667 31.6666667,92.92806 31.6666667,88.3333333 C31.6666667,88.2413738 31.6414387,88.1551106 31.6398113,88.063151 L39.3432617,86.2369792 C41.9702148,94.2179362 49.4832356,100 58.3333333,100 C69.3619792,100 78.3333333,91.0286458 78.3333333,80 C78.3333333,76.5804038 77.4682617,73.3601888 75.9480794,70.5436198 L85.7381185,64.17806 C87.2517904,65.7112629 89.3481446,66.6666667 91.6666667,66.6666667 C96.2613933,66.6666667 100,62.92806 100,58.3333333 C100,53.7386067 96.2613933,50 91.6666667,50 C87.07194,50 83.3333333,53.7386067 83.3333333,58.3333333 C83.3333333,59.4099935 83.5546875,60.4329427 83.9282227,61.3785808 L74.1153971,67.7579752 C72.1516927,65.2335612 69.6020508,63.1949871 66.6666667,61.8416342 L74.8014323,39.2903646 C76.4615885,39.7379558 78.1998698,40 80,40 Z M48.3333333,13.3333333 C45.5769856,13.3333333 43.3333333,11.089681 43.3333333,8.33333333 C43.3333333,5.57698563 45.5769856,3.33333333 48.3333333,3.33333333 C51.089681,3.33333333 53.3333333,5.57698563 53.3333333,8.33333333 C53.3333333,11.089681 51.089681,13.3333333 48.3333333,13.3333333 Z M3.33333333,8.33333333 C3.33333333,5.57698563 5.57698563,3.33333333 8.33333333,3.33333333 C11.089681,3.33333333 13.3333333,5.57698563 13.3333333,8.33333333 C13.3333333,11.089681 11.089681,13.3333333 8.33333333,13.3333333 C5.57698563,13.3333333 3.33333333,11.089681 3.33333333,8.33333333 Z M8.33333333,78.3333333 C5.57698563,78.3333333 3.33333333,76.089681 3.33333333,73.3333333 C3.33333333,70.5769856 5.57698563,68.3333333 8.33333333,68.3333333 C11.089681,68.3333333 13.3333333,70.5769856 13.3333333,73.3333333 C13.3333333,76.089681 11.089681,78.3333333 8.33333333,78.3333333 Z M23.3333333,93.3333333 C20.5769856,93.3333333 18.3333333,91.089681 18.3333333,88.3333333 C18.3333333,85.5769856 20.5769856,83.3333333 23.3333333,83.3333333 C26.089681,83.3333333 28.3333333,85.5769856 28.3333333,88.3333333 C28.3333333,91.089681 26.089681,93.3333333 23.3333333,93.3333333 Z M91.6666667,53.3333333 C94.4230144,53.3333333 96.6666667,55.5769856 96.6666667,58.3333333 C96.6666667,61.089681 94.4230144,63.3333333 91.6666667,63.3333333 C88.910319,63.3333333 86.6666667,61.089681 86.6666667,58.3333333 C86.6666667,55.5769856 88.910319,53.3333333 91.6666667,53.3333333 Z M70.1847331,33.4399415 C70.9285481,29.5849608 74.3269856,26.6666667 78.3333333,26.6666667 L81.6666667,26.6666667 C85.6730144,26.6666667 89.0714519,29.5849608 89.8152669,33.4399415 C87.0581054,35.4581706 83.671875,36.6666667 80,36.6666667 C76.328125,36.6666667 72.9418946,35.4581706 70.1847331,33.4399415 Z M80,23.3333333 C77.2436523,23.3333333 75,21.089681 75,18.3333333 C75,15.5769856 77.2436523,13.3333333 80,13.3333333 C82.7563477,13.3333333 85,15.5769856 85,18.3333333 C85,21.089681 82.7563477,23.3333333 80,23.3333333 Z M80,3.33333333 C89.1902669,3.33333333 96.6666667,10.8097331 96.6666667,20 C96.6666667,24.1666667 95.1180013,27.9736329 92.5797525,30.8984375 C91.4119467,27.8230794 88.9770508,25.3686523 85.9431967,24.156901 C87.4186198,22.6529948 88.3333333,20.5997721 88.3333333,18.3333333 C88.3333333,13.7386067 84.5947267,10 80,10 C75.4052733,10 71.6666667,13.7386067 71.6666667,18.3333333 C71.6666667,20.5997721 72.5813802,22.6529948 74.0568033,24.156901 C71.0229492,25.3686523 68.5880533,27.8230794 67.4202475,30.8984375 C64.8819988,27.9736329 63.3333333,24.1666667 63.3333333,20 C63.3333333,10.8097331 70.8097331,3.33333333 80,3.33333333 L80,3.33333333 Z M8.33333333,43.3333333 C8.33333333,34.1430665 15.8097331,26.6666667 25,26.6666667 C34.1902669,26.6666667 41.6666667,34.1430665 41.6666667,43.3333333 C41.6666667,47.5130208 40.1082356,51.3297525 37.5569663,54.2586263 C36.3932292,51.171875 33.9534504,48.7052408 30.9114583,47.4902344 C32.385254,45.9863281 33.2999675,43.9331054 33.2999675,41.6666667 C33.2999675,37.07194 29.5613606,33.3333333 24.9666342,33.3333333 C20.3719075,33.3333333 16.6333008,37.07194 16.6333008,41.6666667 C16.6333008,43.9331054 17.5480144,45.9863281 19.0234375,47.4902344 C15.9985352,48.6962892 13.5668946,51.1417644 12.3950196,54.2049154 C9.87141917,51.2833658 8.33333333,47.4886067 8.33333333,43.3333333 L8.33333333,43.3333333 Z M19.9666342,41.6666667 C19.9666342,38.910319 22.2102865,36.6666667 24.9666342,36.6666667 C27.7229817,36.6666667 29.9666342,38.910319 29.9666342,41.6666667 C29.9666342,44.4230144 27.7229817,46.6666667 24.9666342,46.6666667 C22.2102865,46.6666667 19.9666342,44.4230144 19.9666342,41.6666667 Z M15.1570638,56.7513021 C15.9082031,52.906901 19.3017579,50 23.2999675,50 L26.6333008,50 C30.6469727,50 34.0519206,52.92806 34.7851563,56.7952475 C32.0336915,58.8012696 28.6580404,60 25,60 C21.3151042,60 17.9182942,58.7833658 15.1570638,56.7513021 Z M48.4903971,93.4179688 C49.2415365,89.5735677 52.6350913,86.6666667 56.6333008,86.6666667 L59.9666342,86.6666667 C63.980306,86.6666667 67.385254,89.5947267 68.1184896,93.4619142 C65.3670248,95.4679362 61.9913738,96.6666667 58.3333333,96.6666667 C54.6484375,96.6666667 51.2516275,95.4500325 48.4903971,93.4179688 Z M58.2999675,83.3333333 C55.5436198,83.3333333 53.2999675,81.089681 53.2999675,78.3333333 C53.2999675,75.5769856 55.5436198,73.3333333 58.2999675,73.3333333 C61.056315,73.3333333 63.2999675,75.5769856 63.2999675,78.3333333 C63.2999675,81.089681 61.056315,83.3333333 58.2999675,83.3333333 Z M75,80 C75,84.1796875 73.441569,87.9964192 70.8902996,90.9252929 C69.7265625,87.8385417 67.2867838,85.3719075 64.2447917,84.156901 C65.7185873,82.6529948 66.6333008,80.5997721 66.6333008,78.3333333 C66.6333008,73.7386067 62.894694,70 58.2999675,70 C53.7052408,70 49.9666342,73.7386067 49.9666342,78.3333333 C49.9666342,80.5997721 50.8813477,82.6529948 52.3567708,84.156901 C49.3318685,85.3629558 46.9002279,87.808431 45.7283529,90.8715821 C43.2047525,87.9500325 41.6666667,84.1552733 41.6666667,80 C41.6666667,70.8097331 49.1430665,63.3333333 58.3333333,63.3333333 C67.5236002,63.3333333 75,70.8097331 75,80 Z M63.531901,60.7096354 C61.8717448,60.2620442 60.1334635,60 58.3333333,60 C53.7597656,60 49.5532227,61.5600585 46.1800129,64.1536458 L39.6199544,56.936849 C42.9467773,53.363444 45,48.589681 45,43.3333333 C45,41.1499023 44.6370442,39.0535481 43.9868165,37.0849608 L62.3168946,29.3164062 C64.3701171,33.1982421 67.6652019,36.3134767 71.6682942,38.1583658 L63.531901,60.7096354 Z" id="Shape"></path>
</g>
</g>
</g>
</svg>
