<svg width="80px" height="100px" viewBox="0 0 80 100" xmlns="http://www.w3.org/2000/svg">
<g id="Icons" stroke="none" stroke-width="1" fill="none" fill-rule="evenodd">
<g id="New-Icons" transform="translate(-926.000000, -495.000000)" fill="#8099E8" fill-rule="nonzero">
<g id="checklist" transform="translate(926.000000, 495.000000)">
<path d="M71.6666667,10 L59.6933333,10 C58.9895757,8.00941522 57.111309,6.67541899 55,6.66666667 L50,6.66666667 L50,5 C50,2.23857625 47.7614237,0 45,0 L35,0 C32.2385763,0 30,2.23857625 30,5 L30,6.66666667 L25,6.66666667 C22.888691,6.67541899 21.0104243,8.00941522 20.3066667,10 L8.33333333,10 C3.73324475,10.0055102 0.00551019389,13.7332447 0,18.3333333 L0,91.6666667 C0.00551019389,96.2667553 3.73324475,99.9944898 8.33333333,100 L71.6666667,100 C76.2667553,99.9944898 79.9944898,96.2667553 80,91.6666667 L80,18.3333333 C79.9944898,13.7332447 76.2667553,10.0055102 71.6666667,10 Z M33.3333333,5 C33.3333333,4.07952542 34.0795254,3.33333333 35,3.33333333 L45,3.33333333 C45.9204746,3.33333333 46.6666667,4.07952542 46.6666667,5 L46.6666667,6.66666667 L33.3333333,6.66666667 L33.3333333,5 Z M23.3333333,11.6666667 C23.3333333,10.7461921 24.0795254,10 25,10 L55,10 C55.9204746,10 56.6666667,10.7461921 56.6666667,11.6666667 L56.6666667,18.3333333 C56.6666667,21.0947571 54.4280904,23.3333333 51.6666667,23.3333333 L28.3333333,23.3333333 C25.5719096,23.3333333 23.3333333,21.0947571 23.3333333,18.3333333 L23.3333333,11.6666667 Z M28.3333333,26.6666667 L51.6666667,26.6666667 C55.625168,26.6616695 59.0359456,23.8773613 59.8333333,20 L70,20 L70,90 L10,90 L10,20 L20.1666667,20 C20.9640544,23.8773613 24.374832,26.6616695 28.3333333,26.6666667 Z M76.6666667,91.6666667 C76.6666667,94.4280904 74.4280904,96.6666667 71.6666667,96.6666667 L8.33333333,96.6666667 C5.57190958,96.6666667 3.33333333,94.4280904 3.33333333,91.6666667 L3.33333333,18.3333333 C3.33333333,15.5719096 5.57190958,13.3333333 8.33333333,13.3333333 L20,13.3333333 L20,16.6666667 L10,16.6666667 C8.15905083,16.6666667 6.66666667,18.1590508 6.66666667,20 L6.66666667,90 C6.66666667,91.8409492 8.15905083,93.3333333 10,93.3333333 L70,93.3333333 C71.8409492,93.3333333 73.3333333,91.8409492 73.3333333,90 L73.3333333,20 C73.3333333,18.1590508 71.8409492,16.6666667 70,16.6666667 L60,16.6666667 L60,13.3333333 L71.6666667,13.3333333 C74.4280904,13.3333333 76.6666667,15.5719096 76.6666667,18.3333333 L76.6666667,91.6666667 Z" id="Shape"></path>
<path d="M33.3333333,20 L46.6666667,20 C47.5871412,20 48.3333333,19.2538079 48.3333333,18.3333333 C48.3333333,17.4128588 47.5871412,16.6666667 46.6666667,16.6666667 L33.3333333,16.6666667 C32.4128588,16.6666667 31.6666667,17.4128588 31.6666667,18.3333333 C31.6666667,19.2538079 32.4128588,20 33.3333333,20 Z" id="Path"></path>
<path d="M57.155,44.5116667 C57.8058331,45.1623032 58.8608336,45.1623032 59.5116667,44.5116667 L66.1783333,37.845 C66.8099537,37.1910352 66.8009206,36.1515254 66.158031,35.5086357 C65.5151413,34.865746 64.4756315,34.856713 63.8216667,35.4883333 L58.3333333,40.9766667 L56.1783333,38.8216667 C55.5243685,38.1900463 54.4848587,38.1990794 53.841969,38.841969 C53.1990794,39.4848587 53.1900463,40.5243685 53.8216667,41.1783333 L57.155,44.5116667 Z" id="Path"></path>
<path d="M15,38.3333333 L25,38.3333333 C25.9204746,38.3333333 26.6666667,37.5871412 26.6666667,36.6666667 C26.6666667,35.7461921 25.9204746,35 25,35 L15,35 C14.0795254,35 13.3333333,35.7461921 13.3333333,36.6666667 C13.3333333,37.5871412 14.0795254,38.3333333 15,38.3333333 Z" id="Path"></path>
<path d="M31.6666667,38.3333333 L46.6666667,38.3333333 C47.5871412,38.3333333 48.3333333,37.5871412 48.3333333,36.6666667 C48.3333333,35.7461921 47.5871412,35 46.6666667,35 L31.6666667,35 C30.7461921,35 30,35.7461921 30,36.6666667 C30,37.5871412 30.7461921,38.3333333 31.6666667,38.3333333 Z" id="Path"></path>
<path d="M15,45 L35,45 C35.9204746,45 36.6666667,44.2538079 36.6666667,43.3333333 C36.6666667,42.4128588 35.9204746,41.6666667 35,41.6666667 L15,41.6666667 C14.0795254,41.6666667 13.3333333,42.4128588 13.3333333,43.3333333 C13.3333333,44.2538079 14.0795254,45 15,45 Z" id="Path"></path>
<path d="M57.155,62.845 C57.8058331,63.4956366 58.8608336,63.4956366 59.5116667,62.845 L66.1783333,56.1783333 C66.8099537,55.5243685 66.8009206,54.4848587 66.158031,53.841969 C65.5151413,53.1990794 64.4756315,53.1900463 63.8216667,53.8216667 L58.3333333,59.31 L56.1783333,57.155 C55.5243685,56.5233797 54.4848587,56.5324127 53.841969,57.1753024 C53.1990794,57.818192 53.1900463,58.8577019 53.8216667,59.5116667 L57.155,62.845 Z" id="Path"></path>
<path d="M15,56.6666667 L25,56.6666667 C25.9204746,56.6666667 26.6666667,55.9204746 26.6666667,55 C26.6666667,54.0795254 25.9204746,53.3333333 25,53.3333333 L15,53.3333333 C14.0795254,53.3333333 13.3333333,54.0795254 13.3333333,55 C13.3333333,55.9204746 14.0795254,56.6666667 15,56.6666667 Z" id="Path"></path>
<path d="M46.6666667,53.3333333 L31.6666667,53.3333333 C30.7461921,53.3333333 30,54.0795254 30,55 C30,55.9204746 30.7461921,56.6666667 31.6666667,56.6666667 L46.6666667,56.6666667 C47.5871412,56.6666667 48.3333333,55.9204746 48.3333333,55 C48.3333333,54.0795254 47.5871412,53.3333333 46.6666667,53.3333333 Z" id="Path"></path>
<path d="M15,63.3333333 L35,63.3333333 C35.9204746,63.3333333 36.6666667,62.5871412 36.6666667,61.6666667 C36.6666667,60.7461921 35.9204746,60 35,60 L15,60 C14.0795254,60 13.3333333,60.7461921 13.3333333,61.6666667 C13.3333333,62.5871412 14.0795254,63.3333333 15,63.3333333 Z" id="Path"></path>
<path d="M57.155,81.1783333 C57.8058331,81.8289699 58.8608336,81.8289699 59.5116667,81.1783333 L66.1783333,74.5116667 C66.8099537,73.8577019 66.8009206,72.818192 66.158031,72.1753024 C65.5151413,71.5324127 64.4756315,71.5233797 63.8216667,72.155 L58.3333333,77.6433333 L56.1783333,75.4883333 C55.5243685,74.856713 54.4848587,74.865746 53.841969,75.5086357 C53.1990794,76.1515254 53.1900463,77.1910352 53.8216667,77.845 L57.155,81.1783333 Z" id="Path"></path>
<path d="M15,75 L25,75 C25.9204746,75 26.6666667,74.2538079 26.6666667,73.3333333 C26.6666667,72.4128588 25.9204746,71.6666667 25,71.6666667 L15,71.6666667 C14.0795254,71.6666667 13.3333333,72.4128588 13.3333333,73.3333333 C13.3333333,74.2538079 14.0795254,75 15,75 Z" id="Path"></path>
<path d="M46.6666667,71.6666667 L31.6666667,71.6666667 C30.7461921,71.6666667 30,72.4128588 30,73.3333333 C30,74.2538079 30.7461921,75 31.6666667,75 L46.6666667,75 C47.5871412,75 48.3333333,74.2538079 48.3333333,73.3333333 C48.3333333,72.4128588 47.5871412,71.6666667 46.6666667,71.6666667 Z" id="Path"></path>
<path d="M15,81.6666667 L35,81.6666667 C35.9204746,81.6666667 36.6666667,80.9204746 36.6666667,80 C36.6666667,79.0795254 35.9204746,78.3333333 35,78.3333333 L15,78.3333333 C14.0795254,78.3333333 13.3333333,79.0795254 13.3333333,80 C13.3333333,80.9204746 14.0795254,81.6666667 15,81.6666667 Z" id="Path"></path>
</g>
</g>
</g>
</svg>
