<svg width="94px" height="100px" viewBox="0 0 94 100" xmlns="http://www.w3.org/2000/svg">
<g id="Icons" stroke="none" stroke-width="1" fill="none" fill-rule="evenodd">
<g id="New-Icons" transform="translate(-1430.000000, -495.000000)" fill="#8099E8" fill-rule="nonzero">
<g id="box" transform="translate(1430.000000, 495.000000)">
<path d="M92.9094796,22.0647245 L47.5056177,0.145605327 C47.103079,-0.0485351089 46.6343295,-0.0485351089 46.2319861,0.145605327 L0.827928879,22.0647245 C0.321679373,22.3090602 0,22.8217551 0,23.3838639 L0,76.6160385 C0,77.1781473 0.321679373,77.6908421 0.827928879,77.9351778 L46.2317908,99.854297 C46.4329625,99.9513672 46.650931,100 46.8687042,100 C47.0864775,100 47.3042507,99.9513672 47.5056177,99.854297 L92.9094796,77.9351778 C93.4157291,77.6908421 93.7374085,77.1781473 93.7374085,76.6160385 L93.7374085,23.3840592 C93.7374085,22.8215597 93.4155338,22.3092556 92.9094796,22.0647245 Z M46.8687042,3.09150089 L88.9032335,23.3838639 L76.7182845,29.26628 C76.6411361,29.207491 76.5596909,29.1531942 76.4702378,29.1100302 L34.7212552,8.95575297 L46.8687042,3.09150089 Z M31.4130553,10.6120014 L73.3864518,30.8748722 L64.7897805,35.0250635 L22.8337668,14.7703957 L31.4130553,10.6120014 Z M74.3684821,33.6537757 L74.3684821,48.9947764 L66.3386071,52.8713351 L66.3386071,37.5303344 L74.3684821,33.6537757 Z M90.8077238,75.6968987 L48.3335465,96.2011756 L48.3335465,46.2223181 L58.464982,41.3313073 C59.1934969,40.9795498 59.4989653,40.1039647 59.1472079,39.3752545 C58.7954504,38.6469349 57.9198653,38.3410758 57.1911551,38.6930286 L46.8687042,43.6764222 L42.8069894,41.7154866 C42.0782792,41.3633385 41.2026941,41.6691976 40.8509367,42.3977125 C40.4991792,43.1262274 40.8046477,44.0020078 41.5331626,44.3537653 L45.4038619,46.2223181 L45.4038619,96.2011756 L2.92968464,75.6965081 L2.92968464,25.7176507 L35.2734031,41.3318932 C35.4786763,41.4311119 35.6956683,41.4779868 35.9091446,41.4779868 C36.4536753,41.4779868 36.9767217,41.172909 37.2292605,40.6496673 C37.581018,39.9211524 37.2755495,39.045372 36.5470346,38.6936146 L4.83417497,23.3838639 L19.3859186,16.3588707 L63.38861,37.6016234 C63.3950553,37.6106078 63.4022818,37.6186156 63.4089225,37.6274047 L63.4089225,55.2053172 C63.4089225,55.7094183 63.6681019,56.1779725 64.0950546,56.4461363 C64.3321637,56.5949643 64.6026713,56.6701595 64.8739601,56.6701595 C65.0911474,56.6701595 65.3089206,56.6219174 65.5106782,56.5244565 L76.4702378,51.2336414 C76.9764873,50.9893057 77.2981667,50.4768062 77.2981667,49.914502 L77.2981667,32.2397146 L90.8077238,25.717846 L90.8077238,75.6968987 L90.8077238,75.6968987 Z" id="Shape"></path>
<path d="M15.0183447,70.015459 L8.35526528,66.7988605 C7.62635974,66.4467125 6.75096997,66.7525715 6.3992125,67.4810864 C6.04745503,68.2096014 6.35292348,69.0853818 7.0814384,69.4371392 L13.7445178,72.6537376 C13.9497911,72.7529563 14.166783,72.7998313 14.3802594,72.7998313 C14.9247901,72.7998313 15.4478365,72.4947534 15.7003753,71.9715117 C16.0523281,71.2428015 15.7468596,70.3674118 15.0183447,70.015459 Z" id="Path"></path>
<path d="M21.1505653,66.0238613 L8.36444496,59.8512111 C7.63573473,59.4994536 6.76014965,59.8049221 6.40839218,60.5336323 C6.05683002,61.2621472 6.36229847,62.1379276 7.09081339,62.4896851 L19.8769337,68.6623353 C20.082207,68.7613586 20.2991989,68.8084289 20.5126753,68.8084289 C21.057206,68.8084289 21.5802524,68.5033511 21.8327912,67.9801094 C22.1845486,67.2512039 21.8790802,66.3754235 21.1505653,66.0238613 Z" id="Path"></path>
</g>
</g>
</g>
</svg>
