<svg width="55px" height="55px" viewBox="0 0 55 55" xmlns="http://www.w3.org/2000/svg">
<g id="Icons" stroke="none" stroke-width="1" fill="none" fill-rule="evenodd">
<g id="Basic-Icons" transform="translate(-630.000000, -509.000000)" fill="#404652" fill-rule="nonzero">
<g id="account_circle_full_FILL0_wght400_GRAD0_opsz48" transform="translate(630.000000, 509.000000)">
<path d="M27.5,25.78125 C28.9513889,25.78125 30.1736111,25.2751736 31.1666667,24.2630208 C32.1597222,23.2508681 32.65625,22.0381944 32.65625,20.625 C32.65625,19.1736111 32.1597222,17.9513889 31.1666667,16.9583333 C30.1736111,15.9652778 28.9513889,15.46875 27.5,15.46875 C26.0868056,15.46875 24.8741319,15.9652778 23.8619792,16.9583333 C22.8498264,17.9513889 22.34375,19.1736111 22.34375,20.625 C22.34375,22.0381944 22.8498264,23.2508681 23.8619792,24.2630208 C24.8741319,25.2751736 26.0868056,25.78125 27.5,25.78125 Z M27.5,29.21875 C25.1319444,29.21875 23.1076389,28.3784722 21.4270833,26.6979167 C19.7465278,25.0173611 18.90625,22.9930556 18.90625,20.625 C18.90625,18.21875 19.7465278,16.1848958 21.4270833,14.5234375 C23.1076389,12.8619792 25.1319444,12.03125 27.5,12.03125 C29.90625,12.03125 31.9401042,12.8619792 33.6015625,14.5234375 C35.2630208,16.1848958 36.09375,18.21875 36.09375,20.625 C36.09375,22.9930556 35.2630208,25.0173611 33.6015625,26.6979167 C31.9401042,28.3784722 29.90625,29.21875 27.5,29.21875 Z M27.5,55 C23.6423611,55 20.0425347,54.2934028 16.7005208,52.8802083 C13.3585069,51.4670139 10.4461806,49.5190972 7.96354167,47.0364583 C5.48090278,44.5538194 3.53298611,41.6414931 2.11979167,38.2994792 C0.706597222,34.9574653 0,31.3576389 0,27.5 C0,23.6423611 0.706597222,20.0425347 2.11979167,16.7005208 C3.53298611,13.3585069 5.48090278,10.4461806 7.96354167,7.96354167 C10.4461806,5.48090278 13.3585069,3.53298611 16.7005208,2.11979167 C20.0425347,0.706597222 23.6423611,0 27.5,0 C31.3576389,0 34.9574653,0.706597222 38.2994792,2.11979167 C41.6414931,3.53298611 44.5538194,5.48090278 47.0364583,7.96354167 C49.5190972,10.4461806 51.4670139,13.3585069 52.8802083,16.7005208 C54.2934028,20.0425347 55,23.6423611 55,27.5 C55,31.3576389 54.2934028,34.9574653 52.8802083,38.2994792 C51.4670139,41.6414931 49.5190972,44.5538194 47.0364583,47.0364583 C44.5538194,49.5190972 41.6414931,51.4670139 38.2994792,52.8802083 C34.9574653,54.2934028 31.3576389,55 27.5,55 Z M27.5,51.5625 C30.2881944,51.5625 32.9713542,51.1137153 35.5494792,50.2161458 C38.1276042,49.3185764 40.5052083,48.0104167 42.6822917,46.2916667 C41.2690972,44.6875 39.2543403,43.2552083 36.6380208,41.9947917 C34.0217014,40.734375 30.9756944,40.1041667 27.5,40.1041667 C24.0243056,40.1041667 20.9782986,40.734375 18.3619792,41.9947917 C15.7456597,43.2552083 13.7309028,44.6875 12.3177083,46.2916667 C14.4947917,48.0104167 16.8723958,49.3185764 19.4505208,50.2161458 C22.0286458,51.1137153 24.7118056,51.5625 27.5,51.5625 Z M9.85416667,43.8854167 C11.7638889,41.8229167 14.265625,40.1041667 17.359375,38.7291667 C20.453125,37.3541667 23.8333333,36.6666667 27.5,36.6666667 C31.1666667,36.6666667 34.5373264,37.3541667 37.6119792,38.7291667 C40.6866319,40.1041667 43.1788194,41.8229167 45.0885417,43.8854167 C46.921875,41.7847222 48.4592014,39.3307292 49.7005208,36.5234375 C50.9418403,33.7161458 51.5625,30.7083333 51.5625,27.5 C51.5625,24.1006944 50.9418403,20.9401042 49.7005208,18.0182292 C48.4592014,15.0963542 46.7595486,12.5564236 44.6015625,10.3984375 C42.4435764,8.24045139 39.9036458,6.54079861 36.9817708,5.29947917 C34.0598958,4.05815972 30.8993056,3.4375 27.5,3.4375 C24.1388889,3.4375 20.9973958,4.05815972 18.0755208,5.29947917 C15.1536458,6.54079861 12.6041667,8.24045139 10.4270833,10.3984375 C8.25,12.5564236 6.54079861,15.0963542 5.29947917,18.0182292 C4.05815972,20.9401042 3.4375,24.1006944 3.4375,27.5 C3.4375,30.7083333 4.07725694,33.7543403 5.35677083,36.6380208 C6.63628472,39.5217014 8.13541667,41.9375 9.85416667,43.8854167 Z" id="Shape"></path>
</g>
</g>
</g>
</svg>
