<svg width="55px" height="55px" viewBox="0 0 55 55" xmlns="http://www.w3.org/2000/svg">
<g id="Icons" stroke="none" stroke-width="1" fill="none" fill-rule="evenodd">
<g id="Basic-Icons" transform="translate(-872.000000, -614.000000)" fill="#404652" fill-rule="nonzero">
<g id="add_circle_FILL1_wght400_GRAD0_opsz48" transform="translate(872.000000, 614.000000)">
<path d="M27.70625,41.25 C28.3020833,41.25 28.7947917,41.0552083 29.184375,40.665625 C29.5739583,40.2760417 29.76875,39.7833333 29.76875,39.1875 L29.76875,29.8375 L39.25625,29.8375 C39.80625,29.8375 40.2760417,29.6427083 40.665625,29.253125 C41.0552083,28.8635417 41.25,28.3708333 41.25,27.775 C41.25,27.1791667 41.0552083,26.6864583 40.665625,26.296875 C40.2760417,25.9072917 39.7833333,25.7125 39.1875,25.7125 L29.76875,25.7125 L29.76875,15.74375 C29.76875,15.19375 29.5739583,14.7239583 29.184375,14.334375 C28.7947917,13.9447917 28.3020833,13.75 27.70625,13.75 C27.1104167,13.75 26.6177083,13.9447917 26.228125,14.334375 C25.8385417,14.7239583 25.64375,15.2166667 25.64375,15.8125 L25.64375,25.7125 L15.74375,25.7125 C15.19375,25.7125 14.7239583,25.9072917 14.334375,26.296875 C13.9447917,26.6864583 13.75,27.1791667 13.75,27.775 C13.75,28.3708333 13.9447917,28.8635417 14.334375,29.253125 C14.7239583,29.6427083 15.2166667,29.8375 15.8125,29.8375 L25.64375,29.8375 L25.64375,39.25625 C25.64375,39.80625 25.8385417,40.2760417 26.228125,40.665625 C26.6177083,41.0552083 27.1104167,41.25 27.70625,41.25 Z M27.5,55 C23.6041667,55 19.9833333,54.3010417 16.6375,52.903125 C13.2916667,51.5052083 10.38125,49.56875 7.90625,47.09375 C5.43125,44.61875 3.49479167,41.7083333 2.096875,38.3625 C0.698958333,35.0166667 0,31.3958333 0,27.5 C0,23.65 0.698958333,20.0520833 2.096875,16.70625 C3.49479167,13.3604167 5.43125,10.45 7.90625,7.975 C10.38125,5.5 13.2916667,3.55208333 16.6375,2.13125 C19.9833333,0.710416667 23.6041667,0 27.5,0 C31.35,0 34.9479167,0.710416667 38.29375,2.13125 C41.6395833,3.55208333 44.55,5.5 47.025,7.975 C49.5,10.45 51.4479167,13.3604167 52.86875,16.70625 C54.2895833,20.0520833 55,23.65 55,27.5 C55,31.3958333 54.2895833,35.0166667 52.86875,38.3625 C51.4479167,41.7083333 49.5,44.61875 47.025,47.09375 C44.55,49.56875 41.6395833,51.5052083 38.29375,52.903125 C34.9479167,54.3010417 31.35,55 27.5,55 Z" id="Shape"></path>
</g>
</g>
</g>
</svg>
