<svg width="55px" height="40px" viewBox="0 0 55 40" xmlns="http://www.w3.org/2000/svg">
<g id="Icons" stroke="none" stroke-width="1" fill="none" fill-rule="evenodd">
<g id="Basic-Icons" transform="translate(-750.000000, -419.000000)" fill="#404652" fill-rule="nonzero">
<g id="arrow_right_alt_FILL0_wght400_GRAD0_opsz48" transform="translate(750.000000, 419.000000)">
<path d="M33.227345,39.0858506 C32.7027027,38.5612083 32.4403816,37.9345522 32.4403816,37.2058824 C32.4403816,36.4772125 32.6735559,35.8797032 33.1399046,35.4133545 L45.9936407,22.5596184 L2.62321145,22.5596184 C1.86539481,22.5596184 1.23873874,22.3118707 0.743243243,21.8163752 C0.247747748,21.3208797 0,20.6942236 0,19.936407 C0,19.1785904 0.247747748,18.5519343 0.743243243,18.0564388 C1.23873874,17.5609433 1.86539481,17.3131955 2.62321145,17.3131955 L45.9936407,17.3131955 L33.0524642,4.37201908 C32.5278219,3.84737679 32.2800742,3.23529412 32.309221,2.53577107 C32.3383678,1.83624801 32.6152623,1.22416534 33.1399046,0.699523052 C33.6645469,0.233174351 34.291203,0 35.0198728,0 C35.7485427,0 36.3460519,0.233174351 36.8124006,0.699523052 L54.2130366,18.100159 C54.5045045,18.3916269 54.7085321,18.6830949 54.8251192,18.9745628 C54.9417064,19.2660307 55,19.5866455 55,19.936407 C55,20.2861685 54.9417064,20.6067833 54.8251192,20.8982512 C54.7085321,21.1897191 54.5045045,21.4811871 54.2130366,21.772655 L36.899841,39.0858506 C36.3751987,39.6104928 35.7631161,39.872814 35.063593,39.872814 C34.36407,39.872814 33.7519873,39.6104928 33.227345,39.0858506 Z" id="Path"></path>
</g>
</g>
</g>
</svg>
