<svg width="31px" height="55px" viewBox="0 0 31 55" xmlns="http://www.w3.org/2000/svg">
<g id="Icons" stroke="none" stroke-width="1" fill="none" fill-rule="evenodd">
<g id="Basic-Icons" transform="translate(-762.000000, -509.000000)" fill="#404652" fill-rule="nonzero">
<g id="arrow_forward_ios_FILL0_wght400_GRAD0_opsz48" transform="translate(762.000000, 509.000000)">
<path d="M0.826592913,54.1389657 C0.300405295,53.5649429 0.0253526762,52.8952495 0.00143505714,52.1298857 C-0.0224825619,51.3645219 0.252570057,50.6948286 0.826592913,50.1208057 L23.4287429,27.5186557 L0.826592913,4.91650577 C0.300405295,4.39031815 0.0253526762,3.73258362 0.00143505714,2.9433022 C-0.0224825619,2.15402077 0.252570057,1.47236863 0.826592913,0.89834577 C1.35278053,0.324322914 2.01051506,0.0253526762 2.79979648,0.00143505714 C3.58907791,-0.0224825619 4.27073005,0.252570057 4.84475291,0.826592913 L30.0300057,26.0118457 C30.2691819,26.2510219 30.4366053,26.4901981 30.5322757,26.7293743 C30.6279462,26.9685505 30.6757815,27.2316443 30.6757815,27.5186557 C30.6757815,27.8056672 30.6279462,28.068761 30.5322757,28.3079372 C30.4366053,28.5471134 30.2691819,28.7862896 30.0300057,29.0254657 L4.84475291,54.2107186 C4.31856529,54.7369062 3.66083077,55 2.87154934,55 C2.08226791,55 1.40061577,54.7129886 0.826592913,54.1389657 Z" id="Path"></path>
</g>
</g>
</g>
</svg>
