<svg width="55px" height="55px" viewBox="0 0 55 55" xmlns="http://www.w3.org/2000/svg">
<g id="Icons" stroke="none" stroke-width="1" fill="none" fill-rule="evenodd">
<g id="Basic-Icons" transform="translate(-990.000000, -509.000000)" fill="#404652" fill-rule="nonzero">
<g id="arrow_circle_left_FILL0_wght400_GRAD0_opsz48" transform="translate(990.000000, 509.000000)">
<path d="M26.125,36.1625 C26.4916667,36.5291667 26.9614583,36.7010417 27.534375,36.678125 C28.1072917,36.6552083 28.5770833,36.4604167 28.94375,36.09375 C29.35625,35.68125 29.5625,35.2 29.5625,34.65 C29.5625,34.1 29.35625,33.61875 28.94375,33.20625 L25.3,29.5625 L35.81875,29.5625 C36.36875,29.5625 36.8385417,29.35625 37.228125,28.94375 C37.6177083,28.53125 37.8125,28.05 37.8125,27.5 C37.8125,26.9041667 37.6177083,26.4114583 37.228125,26.021875 C36.8385417,25.6322917 36.3458333,25.4375 35.75,25.4375 L25.3,25.4375 L29.0125,21.725 C29.3791667,21.3583333 29.5510417,20.8885417 29.528125,20.315625 C29.5052083,19.7427083 29.3104167,19.2729167 28.94375,18.90625 C28.53125,18.49375 28.05,18.2875 27.5,18.2875 C26.95,18.2875 26.46875,18.49375 26.05625,18.90625 L18.90625,26.05625 C18.49375,26.46875 18.2875,26.95 18.2875,27.5 C18.2875,28.05 18.49375,28.53125 18.90625,28.94375 L26.125,36.1625 Z M27.5,55 C23.6041667,55 19.9833333,54.3010417 16.6375,52.903125 C13.2916667,51.5052083 10.38125,49.56875 7.90625,47.09375 C5.43125,44.61875 3.49479167,41.7083333 2.096875,38.3625 C0.698958333,35.0166667 0,31.3958333 0,27.5 C0,23.65 0.698958333,20.0520833 2.096875,16.70625 C3.49479167,13.3604167 5.43125,10.45 7.90625,7.975 C10.38125,5.5 13.2916667,3.55208333 16.6375,2.13125 C19.9833333,0.710416667 23.6041667,0 27.5,0 C31.35,0 34.9479167,0.710416667 38.29375,2.13125 C41.6395833,3.55208333 44.55,5.5 47.025,7.975 C49.5,10.45 51.4479167,13.3604167 52.86875,16.70625 C54.2895833,20.0520833 55,23.65 55,27.5 C55,31.3958333 54.2895833,35.0166667 52.86875,38.3625 C51.4479167,41.7083333 49.5,44.61875 47.025,47.09375 C44.55,49.56875 41.6395833,51.5052083 38.29375,52.903125 C34.9479167,54.3010417 31.35,55 27.5,55 Z M27.5,50.875 C34.1458333,50.875 39.703125,48.640625 44.171875,44.171875 C48.640625,39.703125 50.875,34.1458333 50.875,27.5 C50.875,20.8541667 48.640625,15.296875 44.171875,10.828125 C39.703125,6.359375 34.1458333,4.125 27.5,4.125 C20.8541667,4.125 15.296875,6.359375 10.828125,10.828125 C6.359375,15.296875 4.125,20.8541667 4.125,27.5 C4.125,34.1458333 6.359375,39.703125 10.828125,44.171875 C15.296875,48.640625 20.8541667,50.875 27.5,50.875 Z" id="Shape"></path>
</g>
</g>
</g>
</svg>
