<svg width="55px" height="55px" viewBox="0 0 55 55" xmlns="http://www.w3.org/2000/svg">
<g id="Icons" stroke="none" stroke-width="1" fill="none" fill-rule="evenodd">
<g id="Basic-Icons" transform="translate(-1106.000000, -614.000000)" fill="#404652" fill-rule="nonzero">
<g id="priority_FILL1_wght400_GRAD0_opsz48" transform="translate(1106.000000, 614.000000)">
<path d="M17.6458333,55 C12.7569444,55 8.59375,53.28125 5.15625,49.84375 C1.71875,46.40625 0,42.2430556 0,37.3541667 L0,17.6458333 C0,12.7569444 1.71875,8.59375 5.15625,5.15625 C8.59375,1.71875 12.7569444,0 17.6458333,0 L37.3541667,0 C42.2430556,0 46.40625,1.71875 49.84375,5.15625 C53.28125,8.59375 55,12.7569444 55,17.6458333 L55,37.3541667 C55,42.2430556 53.28125,46.40625 49.84375,49.84375 C46.40625,53.28125 42.2430556,55 37.3541667,55 L17.6458333,55 Z M24.3680556,39.3402778 L42.7013889,21.0069444 L39.4166667,17.7222222 L24.3680556,32.7708333 L16.9583333,25.3611111 L13.6736111,28.6458333 L24.3680556,39.3402778 Z" id="Shape"></path>
</g>
</g>
</g>
</svg>
