<svg width="55px" height="55px" viewBox="0 0 55 55" xmlns="http://www.w3.org/2000/svg">
<g id="Icons" stroke="none" stroke-width="1" fill="none" fill-rule="evenodd">
<g id="Basic-Icons" transform="translate(-990.000000, -412.000000)" fill="#404652" fill-rule="nonzero">
<g id="close_FILL0_wght400_GRAD0_opsz48" transform="translate(990.000000, 412.000000)">
<path d="M27.5,31.9252874 L5.37356322,54.0517241 C4.74137931,54.683908 4.00383142,55 3.16091954,55 C2.31800766,55 1.58045977,54.683908 0.948275862,54.0517241 C0.316091954,53.4195402 -3.7432807e-15,52.6819923 -3.7432807e-15,51.8390805 C-3.7432807e-15,50.9961686 0.316091954,50.2586207 0.948275862,49.6264368 L23.0747126,27.5 L0.948275862,5.37356322 C0.316091954,4.74137931 -3.7432807e-15,4.00383142 -3.7432807e-15,3.16091954 C-3.7432807e-15,2.31800766 0.316091954,1.58045977 0.948275862,0.948275862 C1.58045977,0.316091954 2.31800766,-3.7432807e-15 3.16091954,-3.7432807e-15 C4.00383142,-3.7432807e-15 4.74137931,0.316091954 5.37356322,0.948275862 L27.5,23.0747126 L49.6264368,0.948275862 C50.2586207,0.316091954 50.9961686,-3.7432807e-15 51.8390805,-3.7432807e-15 C52.6819923,-3.7432807e-15 53.4195402,0.316091954 54.0517241,0.948275862 C54.683908,1.58045977 55,2.31800766 55,3.16091954 C55,4.00383142 54.683908,4.74137931 54.0517241,5.37356322 L31.9252874,27.5 L54.0517241,49.6264368 C54.683908,50.2586207 55,50.9961686 55,51.8390805 C55,52.6819923 54.683908,53.4195402 54.0517241,54.0517241 C53.4195402,54.683908 52.6819923,55 51.8390805,55 C50.9961686,55 50.2586207,54.683908 49.6264368,54.0517241 L27.5,31.9252874 Z" id="Path"></path>
</g>
</g>
</g>
</svg>
