<svg width="55px" height="55px" viewBox="0 0 55 55" xmlns="http://www.w3.org/2000/svg">
<g id="Icons" stroke="none" stroke-width="1" fill="none" fill-rule="evenodd">
<g id="Basic-Icons" transform="translate(-872.000000, -509.000000)" fill="#404652" fill-rule="nonzero">
<g id="do_not_disturb_on_FILL1_wght400_GRAD0_opsz48" transform="translate(872.000000, 509.000000)">
<path d="M15.8125,29.35625 L39.25625,29.35625 C39.80625,29.35625 40.2760417,29.15 40.665625,28.7375 C41.0552083,28.325 41.25,27.84375 41.25,27.29375 C41.25,26.6979167 41.0552083,26.2052083 40.665625,25.815625 C40.2760417,25.4260417 39.7833333,25.23125 39.1875,25.23125 L15.74375,25.23125 C15.19375,25.23125 14.7239583,25.4375 14.334375,25.85 C13.9447917,26.2625 13.75,26.74375 13.75,27.29375 C13.75,27.8895833 13.9447917,28.3822917 14.334375,28.771875 C14.7239583,29.1614583 15.2166667,29.35625 15.8125,29.35625 Z M27.5,55 C23.6041667,55 19.9833333,54.3010417 16.6375,52.903125 C13.2916667,51.5052083 10.38125,49.56875 7.90625,47.09375 C5.43125,44.61875 3.49479167,41.7083333 2.096875,38.3625 C0.698958333,35.0166667 0,31.3958333 0,27.5 C0,23.65 0.698958333,20.0520833 2.096875,16.70625 C3.49479167,13.3604167 5.43125,10.45 7.90625,7.975 C10.38125,5.5 13.2916667,3.55208333 16.6375,2.13125 C19.9833333,0.710416667 23.6041667,0 27.5,0 C31.35,0 34.9479167,0.710416667 38.29375,2.13125 C41.6395833,3.55208333 44.55,5.5 47.025,7.975 C49.5,10.45 51.4479167,13.3604167 52.86875,16.70625 C54.2895833,20.0520833 55,23.65 55,27.5 C55,31.3958333 54.2895833,35.0166667 52.86875,38.3625 C51.4479167,41.7083333 49.5,44.61875 47.025,47.09375 C44.55,49.56875 41.6395833,51.5052083 38.29375,52.903125 C34.9479167,54.3010417 31.35,55 27.5,55 Z" id="Shape"></path>
</g>
</g>
</g>
</svg>
