<svg width="55px" height="55px" viewBox="0 0 55 55" xmlns="http://www.w3.org/2000/svg">
<g id="Icons" stroke="none" stroke-width="1" fill="none" fill-rule="evenodd">
<g id="Basic-Icons" transform="translate(-990.000000, -614.000000)" fill="#404652" fill-rule="nonzero">
<g id="check_circle_FILL0_wght400_GRAD0_opsz48" transform="translate(990.000000, 614.000000)">
<path d="M23.44375,33.75625 L16.70625,27.01875 C16.29375,26.60625 15.7895833,26.4 15.19375,26.4 C14.5979167,26.4 14.0708333,26.6291667 13.6125,27.0875 C13.1541667,27.5458333 12.925,28.0729167 12.925,28.66875 C12.925,29.2645833 13.1541667,29.76875 13.6125,30.18125 L22,38.56875 C22.4125,38.98125 22.89375,39.1875 23.44375,39.1875 C23.99375,39.1875 24.475,38.98125 24.8875,38.56875 L41.3875,22.06875 C41.8,21.65625 41.9947917,21.1520833 41.971875,20.55625 C41.9489583,19.9604167 41.73125,19.45625 41.31875,19.04375 C40.90625,18.5854167 40.390625,18.35625 39.771875,18.35625 C39.153125,18.35625 38.6145833,18.5854167 38.15625,19.04375 L23.44375,33.75625 Z M27.5,55 C23.6041667,55 19.9833333,54.3010417 16.6375,52.903125 C13.2916667,51.5052083 10.38125,49.56875 7.90625,47.09375 C5.43125,44.61875 3.49479167,41.7083333 2.096875,38.3625 C0.698958333,35.0166667 0,31.3958333 0,27.5 C0,23.65 0.698958333,20.0520833 2.096875,16.70625 C3.49479167,13.3604167 5.43125,10.45 7.90625,7.975 C10.38125,5.5 13.2916667,3.55208333 16.6375,2.13125 C19.9833333,0.710416667 23.6041667,0 27.5,0 C31.35,0 34.9479167,0.710416667 38.29375,2.13125 C41.6395833,3.55208333 44.55,5.5 47.025,7.975 C49.5,10.45 51.4479167,13.3604167 52.86875,16.70625 C54.2895833,20.0520833 55,23.65 55,27.5 C55,31.3958333 54.2895833,35.0166667 52.86875,38.3625 C51.4479167,41.7083333 49.5,44.61875 47.025,47.09375 C44.55,49.56875 41.6395833,51.5052083 38.29375,52.903125 C34.9479167,54.3010417 31.35,55 27.5,55 Z M27.5,50.875 C34.1458333,50.875 39.703125,48.640625 44.171875,44.171875 C48.640625,39.703125 50.875,34.1458333 50.875,27.5 C50.875,20.8541667 48.640625,15.296875 44.171875,10.828125 C39.703125,6.359375 34.1458333,4.125 27.5,4.125 C20.8541667,4.125 15.296875,6.359375 10.828125,10.828125 C6.359375,15.296875 4.125,20.8541667 4.125,27.5 C4.125,34.1458333 6.359375,39.703125 10.828125,44.171875 C15.296875,48.640625 20.8541667,50.875 27.5,50.875 Z" id="Shape"></path>
</g>
</g>
</g>
</svg>
