<svg width="55px" height="32px" viewBox="0 0 55 32" xmlns="http://www.w3.org/2000/svg">
<g id="Icons" stroke="none" stroke-width="1" fill="none" fill-rule="evenodd">
<g id="Basic-Icons" transform="translate(-750.000000, -626.000000)" fill="#404652" fill-rule="nonzero">
<g id="expand_more_FILL0_wght400_GRAD0_opsz48" transform="translate(750.000000, 626.000000)">
<path d="M27.4293927,31.3242531 C26.9450513,31.3242531 26.5010717,31.2435295 26.0974539,31.0820824 C25.693836,30.9206353 25.2902182,30.6381028 24.8866004,30.234485 L0.911701445,6.25958604 C0.265912921,5.61379752 -0.0368004489,4.74601919 0.00356133377,3.65625106 C0.0439231165,2.56648292 0.38699827,1.69870459 1.03278679,1.05291607 C1.84002245,0.245680417 2.70780078,-0.0973947365 3.63612178,0.0236906116 C4.56444278,0.14477596 5.39185933,0.528212896 6.11837141,1.17400142 L27.4293927,22.4850227 L48.740414,1.17400142 C49.3862025,0.528212896 50.2539808,0.164956851 51.3437489,0.0842332857 C52.4335171,0.00350972024 53.3012954,0.366765765 53.9470839,1.17400142 C54.7543196,1.81978994 55.0973947,2.66738738 54.9763094,3.71679373 C54.855224,4.76620008 54.4717871,5.6541593 53.8259986,6.38067139 L29.972185,30.234485 C29.5685672,30.6381028 29.1649493,30.9206353 28.7613315,31.0820824 C28.3577137,31.2435295 27.9137341,31.3242531 27.4293927,31.3242531 Z" id="Path"></path>
</g>
</g>
</g>
</svg>
