<svg width="55px" height="37px" viewBox="0 0 55 37" xmlns="http://www.w3.org/2000/svg">
<g id="Icons" stroke="none" stroke-width="1" fill="none" fill-rule="evenodd">
<g id="Basic-Icons" transform="translate(-1106.000000, -518.000000)" fill="#404652" fill-rule="nonzero">
<g id="menu_FILL0_wght400_GRAD0_opsz48" transform="translate(1106.000000, 518.000000)">
<path d="M2.29166667,36.6666667 C1.62962963,36.6666667 1.08217593,36.4502315 0.649305556,36.0173611 C0.216435185,35.5844907 0,35.037037 0,34.375 C0,33.712963 0.216435185,33.1655093 0.649305556,32.7326389 C1.08217593,32.2997685 1.62962963,32.0833333 2.29166667,32.0833333 L52.7083333,32.0833333 C53.3703704,32.0833333 53.9178241,32.2997685 54.3506944,32.7326389 C54.7835648,33.1655093 55,33.712963 55,34.375 C55,35.037037 54.7835648,35.5844907 54.3506944,36.0173611 C53.9178241,36.4502315 53.3703704,36.6666667 52.7083333,36.6666667 L2.29166667,36.6666667 Z M2.29166667,20.625 C1.62962963,20.625 1.08217593,20.4085648 0.649305556,19.9756944 C0.216435185,19.5428241 0,18.9953704 0,18.3333333 C0,17.6712963 0.216435185,17.1238426 0.649305556,16.6909722 C1.08217593,16.2581019 1.62962963,16.0416667 2.29166667,16.0416667 L52.7083333,16.0416667 C53.3703704,16.0416667 53.9178241,16.2581019 54.3506944,16.6909722 C54.7835648,17.1238426 55,17.6712963 55,18.3333333 C55,18.9953704 54.7835648,19.5428241 54.3506944,19.9756944 C53.9178241,20.4085648 53.3703704,20.625 52.7083333,20.625 L2.29166667,20.625 Z M2.29166667,4.58333333 C1.62962963,4.58333333 1.08217593,4.36689815 0.649305556,3.93402778 C0.216435185,3.50115741 0,2.9537037 0,2.29166667 C0,1.62962963 0.216435185,1.08217593 0.649305556,0.649305556 C1.08217593,0.216435185 1.62962963,0 2.29166667,0 L52.7083333,0 C53.3703704,0 53.9178241,0.216435185 54.3506944,0.649305556 C54.7835648,1.08217593 55,1.62962963 55,2.29166667 C55,2.9537037 54.7835648,3.50115741 54.3506944,3.93402778 C53.9178241,4.36689815 53.3703704,4.58333333 52.7083333,4.58333333 L2.29166667,4.58333333 Z" id="Shape"></path>
</g>
</g>
</g>
</svg>
