<svg width="55px" height="55px" viewBox="0 0 55 55" xmlns="http://www.w3.org/2000/svg">
<g id="Icons" stroke="none" stroke-width="1" fill="none" fill-rule="evenodd">
<g id="Basic-Icons" transform="translate(-872.000000, -412.000000)" fill="#404652" fill-rule="nonzero">
<g id="play_circle_FILL1_wght400_GRAD0_opsz48" transform="translate(872.000000, 412.000000)">
<path d="M20.83125,19.59375 L20.83125,35.40625 C20.83125,36.23125 21.1864583,36.85 21.896875,37.2625 C22.6072917,37.675 23.30625,37.6520833 23.99375,37.19375 L36.4375,29.21875 C37.0791667,28.80625 37.4,28.2333333 37.4,27.5 C37.4,26.7666667 37.0791667,26.19375 36.4375,25.78125 L23.99375,17.80625 C23.30625,17.3479167 22.6072917,17.325 21.896875,17.7375 C21.1864583,18.15 20.83125,18.76875 20.83125,19.59375 Z M27.5,55 C23.7416667,55 20.1895833,54.278125 16.84375,52.834375 C13.4979167,51.390625 10.5760417,49.4197917 8.078125,46.921875 C5.58020833,44.4239583 3.609375,41.5020833 2.165625,38.15625 C0.721875,34.8104167 0,31.2583333 0,27.5 C0,23.7416667 0.721875,20.1895833 2.165625,16.84375 C3.609375,13.4979167 5.58020833,10.5760417 8.078125,8.078125 C10.5760417,5.58020833 13.4979167,3.609375 16.84375,2.165625 C20.1895833,0.721875 23.7416667,0 27.5,0 C31.2583333,0 34.8104167,0.721875 38.15625,2.165625 C41.5020833,3.609375 44.4239583,5.58020833 46.921875,8.078125 C49.4197917,10.5760417 51.390625,13.4979167 52.834375,16.84375 C54.278125,20.1895833 55,23.7416667 55,27.5 C55,31.2583333 54.278125,34.8104167 52.834375,38.15625 C51.390625,41.5020833 49.4197917,44.4239583 46.921875,46.921875 C44.4239583,49.4197917 41.5020833,51.390625 38.15625,52.834375 C34.8104167,54.278125 31.2583333,55 27.5,55 Z" id="Shape"></path>
</g>
</g>
</g>
</svg>
