<svg width="55px" height="50px" viewBox="0 0 55 50" xmlns="http://www.w3.org/2000/svg">
<g id="Icons" stroke="none" stroke-width="1" fill="none" fill-rule="evenodd">
<g id="Basic-Icons" transform="translate(-630.000000, -617.000000)" fill="#404652" fill-rule="nonzero">
<g id="print_FILL0_wght400_GRAD0_opsz48" transform="translate(630.000000, 617.000000)">
<path d="M39.7375,13.2 L39.7375,4.125 L15.2625,4.125 L15.2625,13.2 L11.1375,13.2 L11.1375,2.0625 C11.1375,1.46666667 11.3322917,0.973958333 11.721875,0.584375 C12.1114583,0.194791667 12.6041667,0 13.2,0 L41.8,0 C42.3958333,0 42.8885417,0.194791667 43.278125,0.584375 C43.6677083,0.973958333 43.8625,1.46666667 43.8625,2.0625 L43.8625,13.2 L39.7375,13.2 Z M4.125,17.325 C4.125,17.325 4.42291667,17.325 5.01875,17.325 C5.61458333,17.325 6.37083333,17.325 7.2875,17.325 L47.7125,17.325 C48.6291667,17.325 49.3854167,17.325 49.98125,17.325 C50.5770833,17.325 50.875,17.325 50.875,17.325 L43.8625,17.325 L11.1375,17.325 L4.125,17.325 Z M45.30625,23.85625 C45.85625,23.85625 46.3375,23.65 46.75,23.2375 C47.1625,22.825 47.36875,22.34375 47.36875,21.79375 C47.36875,21.24375 47.1625,20.7625 46.75,20.35 C46.3375,19.9375 45.85625,19.73125 45.30625,19.73125 C44.75625,19.73125 44.275,19.9375 43.8625,20.35 C43.45,20.7625 43.24375,21.24375 43.24375,21.79375 C43.24375,22.34375 43.45,22.825 43.8625,23.2375 C44.275,23.65 44.75625,23.85625 45.30625,23.85625 Z M15.2625,45.375 L39.7375,45.375 C39.7375,45.375 39.7375,45.375 39.7375,45.375 C39.7375,45.375 39.7375,45.375 39.7375,45.375 L39.7375,32.175 L15.2625,32.175 L15.2625,45.375 C15.2625,45.375 15.2625,45.375 15.2625,45.375 C15.2625,45.375 15.2625,45.375 15.2625,45.375 Z M15.2625,49.5 C14.1166667,49.5 13.1427083,49.0989583 12.340625,48.296875 C11.5385417,47.4947917 11.1375,46.5208333 11.1375,45.375 L11.1375,37.4 L2.0625,37.4 C1.46666667,37.4 0.973958333,37.2052083 0.584375,36.815625 C0.194791667,36.4260417 0,35.9333333 0,35.3375 L0,20.4875 C0,18.425 0.698958333,16.6947917 2.096875,15.296875 C3.49479167,13.8989583 5.225,13.2 7.2875,13.2 L47.7125,13.2 C49.775,13.2 51.5052083,13.8989583 52.903125,15.296875 C54.3010417,16.6947917 55,18.425 55,20.4875 L55,35.3375 C55,35.9333333 54.8052083,36.4260417 54.415625,36.815625 C54.0260417,37.2052083 53.5333333,37.4 52.9375,37.4 L43.8625,37.4 L43.8625,45.375 C43.8625,46.5208333 43.4614583,47.4947917 42.659375,48.296875 C41.8572917,49.0989583 40.8833333,49.5 39.7375,49.5 L15.2625,49.5 Z M50.875,33.275 L50.875,20.4875 C50.875,19.5708333 50.5770833,18.8145833 49.98125,18.21875 C49.3854167,17.6229167 48.6291667,17.325 47.7125,17.325 L7.2875,17.325 C6.37083333,17.325 5.61458333,17.6229167 5.01875,18.21875 C4.42291667,18.8145833 4.125,19.5708333 4.125,20.4875 L4.125,33.275 L11.1375,33.275 L11.1375,28.05 L43.8625,28.05 L43.8625,33.275 L50.875,33.275 Z" id="Shape"></path>
</g>
</g>
</g>
</svg>
