<svg width="55px" height="55px" viewBox="0 0 55 55" xmlns="http://www.w3.org/2000/svg">
<g id="Icons" stroke="none" stroke-width="1" fill="none" fill-rule="evenodd">
<g id="Basic-Icons" transform="translate(-1234.000000, -412.000000)" fill="#404652" fill-rule="nonzero">
<g id="refresh_FILL0_wght400_GRAD0_opsz48" transform="translate(1234.000000, 412.000000)">
<path d="M27.5,55 C19.8802083,55 13.3919271,52.3216146 8.03515625,46.9648438 C2.67838542,41.6080729 0,35.1197917 0,27.5 C0,19.8802083 2.67838542,13.3919271 8.03515625,8.03515625 C13.3919271,2.67838542 19.8802083,0 27.5,0 C32.3697917,0 36.6380208,0.98828125 40.3046875,2.96484375 C43.9713542,4.94140625 47.1510417,7.6484375 49.84375,11.0859375 L49.84375,2.578125 C49.84375,1.83333333 50.0872396,1.21744792 50.5742187,0.73046875 C51.0611979,0.243489583 51.6770833,0 52.421875,0 C53.1666667,0 53.7825521,0.243489583 54.2695313,0.73046875 C54.7565104,1.21744792 55,1.83333333 55,2.578125 L55,19.25 C55,19.9947917 54.7565104,20.6106771 54.2695313,21.0976562 C53.7825521,21.5846354 53.1666667,21.828125 52.421875,21.828125 L35.75,21.828125 C35.0052083,21.828125 34.3893229,21.5846354 33.9023438,21.0976562 C33.4153646,20.6106771 33.171875,19.9947917 33.171875,19.25 C33.171875,18.5052083 33.4153646,17.8893229 33.9023438,17.4023438 C34.3893229,16.9153646 35.0052083,16.671875 35.75,16.671875 L47.609375,16.671875 C45.4322917,13.234375 42.6536458,10.4557292 39.2734375,8.3359375 C35.8932292,6.21614583 31.96875,5.15625 27.5,5.15625 C21.2552083,5.15625 15.9700521,7.31901042 11.6445312,11.6445312 C7.31901042,15.9700521 5.15625,21.2552083 5.15625,27.5 C5.15625,33.7447917 7.31901042,39.0299479 11.6445312,43.3554688 C15.9700521,47.6809896 21.2552083,49.84375 27.5,49.84375 C31.96875,49.84375 36.0651042,48.6549479 39.7890625,46.2773437 C43.5130208,43.8997396 46.2916667,40.7057292 48.125,36.6953125 C48.3541667,36.2369792 48.7265625,35.8359375 49.2421875,35.4921875 C49.7578125,35.1484375 50.2734375,34.9765625 50.7890625,34.9765625 C51.7630208,34.9765625 52.4648438,35.2916667 52.8945312,35.921875 C53.3242188,36.5520833 53.3671875,37.296875 53.0234375,38.15625 C50.9036458,43.2552083 47.5377604,47.3372396 42.9257812,50.4023438 C38.3138021,53.4674479 33.171875,55 27.5,55 Z" id="Path"></path>
</g>
</g>
</g>
</svg>
