<svg width="55px" height="55px" viewBox="0 0 55 55" xmlns="http://www.w3.org/2000/svg">
<g id="Icons" stroke="none" stroke-width="1" fill="none" fill-rule="evenodd">
<g id="Basic-Icons" transform="translate(-630.000000, -412.000000)" fill="#404652" fill-rule="nonzero">
<g id="search_FILL0_wght400_GRAD0_opsz48" transform="translate(630.000000, 412.000000)">
<path d="M50.8050847,54.2231638 L32.0833333,35.5014124 C30.529661,36.8479284 28.7170433,37.8966573 26.6454802,38.6475989 C24.5739171,39.3985405 22.3728814,39.7740113 20.0423729,39.7740113 C14.4491525,39.7740113 9.71045198,37.8319209 5.82627119,33.9477401 C1.9420904,30.0635593 0,25.3766478 0,19.8870056 C0,14.3973635 1.9420904,9.71045198 5.82627119,5.82627119 C9.71045198,1.9420904 14.423258,1.37993822e-15 19.9646893,1.37993822e-15 C25.4543315,1.37993822e-15 30.1282957,1.9420904 33.9865819,5.82627119 C37.8448682,9.71045198 39.7740113,14.3973635 39.7740113,19.8870056 C39.7740113,22.113936 39.4114878,24.2631827 38.6864407,26.3347458 C37.9613936,28.4063089 36.873823,30.3483992 35.4237288,32.1610169 L54.3008475,50.8827684 C54.7669492,51.297081 55,51.827919 55,52.4752825 C55,53.122646 54.7410546,53.7052731 54.2231638,54.2231638 C53.7570621,54.6892655 53.1873823,54.9223164 52.5141243,54.9223164 C51.8408663,54.9223164 51.2711864,54.6892655 50.8050847,54.2231638 Z M19.9646893,35.1129944 C24.1596045,35.1129944 27.7330508,33.6240584 30.6850282,30.6461864 C33.6370056,27.6683145 35.1129944,24.0819209 35.1129944,19.8870056 C35.1129944,15.6920904 33.6370056,12.1056968 30.6850282,9.12782486 C27.7330508,6.14995292 24.1596045,4.66101695 19.9646893,4.66101695 C15.7179849,4.66101695 12.1056968,6.14995292 9.12782486,9.12782486 C6.14995292,12.1056968 4.66101695,15.6920904 4.66101695,19.8870056 C4.66101695,24.0819209 6.14995292,27.6683145 9.12782486,30.6461864 C12.1056968,33.6240584 15.7179849,35.1129944 19.9646893,35.1129944 Z" id="Shape"></path>
</g>
</g>
</g>
</svg>
