<svg width="49px" height="55px" viewBox="0 0 49 55" xmlns="http://www.w3.org/2000/svg">
<g id="Icons" stroke="none" stroke-width="1" fill="none" fill-rule="evenodd">
<g id="Basic-Icons" transform="translate(-1237.000000, -509.000000)" fill="#404652" fill-rule="nonzero">
<g id="delete_FILL0_wght400_GRAD0_opsz48" transform="translate(1237.000000, 509.000000)">
<path d="M7.71527778,55 C6.49305556,55 5.42361111,54.5416667 4.50694444,53.625 C3.59027778,52.7083333 3.13194444,51.6388889 3.13194444,50.4166667 L3.13194444,6.875 L2.29166667,6.875 C1.62962963,6.875 1.08217593,6.65856481 0.649305556,6.22569444 C0.216435185,5.79282407 0,5.24537037 0,4.58333333 C0,3.9212963 0.216435185,3.37384259 0.649305556,2.94097222 C1.08217593,2.50810185 1.62962963,2.29166667 2.29166667,2.29166667 L14.3611111,2.29166667 C14.3611111,1.62962963 14.5775463,1.08217593 15.0104167,0.649305556 C15.443287,0.216435185 15.9907407,0 16.6527778,0 L32.2361111,0 C32.8981481,0 33.4456019,0.216435185 33.8784722,0.649305556 C34.3113426,1.08217593 34.5277778,1.62962963 34.5277778,2.29166667 L46.5972222,2.29166667 C47.2592593,2.29166667 47.806713,2.50810185 48.2395833,2.94097222 C48.6724537,3.37384259 48.8888889,3.9212963 48.8888889,4.58333333 C48.8888889,5.24537037 48.6724537,5.79282407 48.2395833,6.22569444 C47.806713,6.65856481 47.2592593,6.875 46.5972222,6.875 L45.7569444,6.875 L45.7569444,50.4166667 C45.7569444,51.6388889 45.2986111,52.7083333 44.3819444,53.625 C43.4652778,54.5416667 42.3958333,55 41.1736111,55 L7.71527778,55 Z M7.71527778,6.875 L7.71527778,50.4166667 C7.71527778,50.4166667 7.71527778,50.4166667 7.71527778,50.4166667 C7.71527778,50.4166667 7.71527778,50.4166667 7.71527778,50.4166667 L41.1736111,50.4166667 C41.1736111,50.4166667 41.1736111,50.4166667 41.1736111,50.4166667 C41.1736111,50.4166667 41.1736111,50.4166667 41.1736111,50.4166667 L41.1736111,6.875 L7.71527778,6.875 Z M15.8125,41.5555556 C15.8125,42.2175926 16.0289352,42.7650463 16.4618056,43.1979167 C16.8946759,43.630787 17.4421296,43.8472222 18.1041667,43.8472222 C18.7662037,43.8472222 19.3136574,43.630787 19.7465278,43.1979167 C20.1793981,42.7650463 20.3958333,42.2175926 20.3958333,41.5555556 L20.3958333,15.6597222 C20.3958333,14.9976852 20.1793981,14.4502315 19.7465278,14.0173611 C19.3136574,13.5844907 18.7662037,13.3680556 18.1041667,13.3680556 C17.4421296,13.3680556 16.8946759,13.5844907 16.4618056,14.0173611 C16.0289352,14.4502315 15.8125,14.9976852 15.8125,15.6597222 L15.8125,41.5555556 Z M28.4930556,41.5555556 C28.4930556,42.2175926 28.7094907,42.7650463 29.1423611,43.1979167 C29.5752315,43.630787 30.1226852,43.8472222 30.7847222,43.8472222 C31.4467593,43.8472222 31.994213,43.630787 32.4270833,43.1979167 C32.8599537,42.7650463 33.0763889,42.2175926 33.0763889,41.5555556 L33.0763889,15.6597222 C33.0763889,14.9976852 32.8599537,14.4502315 32.4270833,14.0173611 C31.994213,13.5844907 31.4467593,13.3680556 30.7847222,13.3680556 C30.1226852,13.3680556 29.5752315,13.5844907 29.1423611,14.0173611 C28.7094907,14.4502315 28.4930556,14.9976852 28.4930556,15.6597222 L28.4930556,41.5555556 Z M7.71527778,6.875 L7.71527778,50.4166667 C7.71527778,50.4166667 7.71527778,50.4166667 7.71527778,50.4166667 C7.71527778,50.4166667 7.71527778,50.4166667 7.71527778,50.4166667 C7.71527778,50.4166667 7.71527778,50.4166667 7.71527778,50.4166667 C7.71527778,50.4166667 7.71527778,50.4166667 7.71527778,50.4166667 L7.71527778,6.875 Z" id="Shape"></path>
</g>
</g>
</g>
</svg>
