<svg xmlns="http://www.w3.org/2000/svg" id="a" viewBox="0 0 97 97">
  <defs>
    <style>.d{fill:#8099e8;fill-rule:evenodd;}.e{isolation:isolate;opacity:.41;}</style>
  </defs>
  <g id="b">
    <path class="d" d="M44.74,77.8h-.2c-1.6,0-3.2-.1-4.7-.3h-.2c-.1,0-.1-.1-.2-.1-3.6-.7-6.9-2.1-9.9-4.2-.5-.3-.9-.7-1.4-1h0c-.2-.2-.4-.4-.7-.6h-.2l-.6-.6-.1-.1-.1-.1-1.8-1.9c0-.2-.2-.3-.3-.4-.4-.6-.8-1.2-1.3-1.7q0-.1-.1-.2c-.3-.6-.7-1.2-1-1.8-.5-1-1-2-1.3-3-2.6-7.6-1.8-14.9,2.5-21.7,1.7-2.8,4-5.1,6.7-6.9,.1-.1,.3-.2,.3-.3h.1c.4-.1,.8-.4,1.2-.7s1-.5,1.4-.8c.1,0,.2,0,.2-.1h.1s.1,0,.1-.1c.3-.1,.6-.2,.8-.4,.1,0,.2-.1,.3-.2,1.1-.4,2.2-.8,3.3-1.1,.8-.1,1.6-.3,2.3-.5h.2c.1,0,.2,0,.3-.1,1-.1,1.9-.2,2.9-.2,.4,0,.5,.1,.5,.5v11.4c0,.4-.1,.5-.5,.5-6.1,.2-11.3,5.1-11.8,11.1-.5,6.4,3.5,12,9.8,13.3,3.9,.8,7.4-.1,10.5-2.7,2.8-2.4,4.1-5.4,4.3-9,0-.3,.1-.4,.4-.4h11.6c.4,0,.3,.2,.3,.4-.1,3.2-.7,6.3-2,9.3-.3,.8-.7,1.5-1,2.3v.1c-.2,.1-.3,.3-.3,.5h0c-.3,.2-.4,.6-.6,.9,0,0,0,.1-.1,.1,0,.1-.1,.1-.1,.2-.3,.5-.7,.9-.9,1.4h-.1v.1s0,.1-.1,.1c-.2,.2-.4,.5-.6,.7,0,.1-.1,.1-.1,.2-.5,.6-1.1,1.1-1.6,1.7-.7,.6-1.4,1.1-2,1.7-.1,0-.1,.1-.2,.1h0l-.1,.1h0s-.1,0-.1,.1c0,0-.1,0-.1,.1h-.1s-.1,0-.1,.1h0c-.4,.2-.7,.4-1,.7h0c-.5,.2-1,.5-1.4,.8h0c-.2,.1-.3,.1-.5,.2-2.2,1.1-4.5,1.9-6.9,2.4-1.4-.1-2.6,0-3.7,.1"></path>
  </g>
  <g id="c" class="e">
    <path class="d" d="M62.44,19.2h5.7c.4,0,.5,.1,.5,.5v8.2c0,.4,.1,.5,.5,.5h8.2c.4,0,.5,.1,.5,.5v11.4c0,.4-.1,.5-.5,.5h-8.2c-.4,0-.5,.1-.5,.5v8.2c0,.4-.1,.5-.5,.5h-11.3c-.4,0-.5-.1-.5-.6v-8.1c0-.4-.1-.5-.5-.5h-8.2c-.4,0-.5-.1-.5-.5v-6.1c0-.8,.1-1.6,0-2.4,0-.9,0-1.9-.1-2.8,0-.4,.1-.4,.5-.4h8.2c.4,0,.5-.1,.5-.5v-8.1c0-.4,.1-.5,.5-.5,1.9-.3,3.8-.3,5.7-.3"></path>
  </g>
</svg>
