<svg id="a" xmlns="http://www.w3.org/2000/svg" viewBox="0 0 395 97">
  <defs>
    <style>.d{fill:#676c75;}.e{fill:#8099e8;fill-rule:evenodd;}.f,.g{isolation:isolate;}.g{opacity:.41;}</style>
  </defs>
  <g id="b">
    <path class="e" d="M173.3,79.25h-.2c-1.6,0-3.2-.1-4.7-.3h-.2c-.1,0-.1-.1-.2-.1-3.6-.7-6.9-2.1-9.9-4.2-.5-.3-.9-.7-1.4-1h0c-.2-.2-.4-.4-.7-.6h-.2l-.6-.6-.1-.1-.1-.1-1.8-1.9c0-.2-.2-.3-.3-.4-.4-.6-.8-1.2-1.3-1.7q0-.1-.1-.2c-.3-.6-.7-1.2-1-1.8-.5-1-1-2-1.3-3-2.6-7.6-1.8-14.9,2.5-21.7,1.7-2.8,4-5.1,6.7-6.9,.1-.1,.3-.2,.3-.3h.1c.4-.1,.8-.4,1.2-.7s1-.5,1.4-.8c.1,0,.2,0,.2-.1h.1s.1,0,.1-.1c.3-.1,.6-.2,.8-.4,.1,0,.2-.1,.3-.2,1.1-.4,2.2-.8,3.3-1.1,.8-.1,1.6-.3,2.3-.5h.2c.1,0,.2,0,.3-.1,1-.1,1.9-.2,2.9-.2,.4,0,.5,.1,.5,.5v11.4c0,.4-.1,.5-.5,.5-6.1,.2-11.3,5.1-11.8,11.1-.5,6.4,3.5,12,9.8,13.3,3.9,.8,7.4-.1,10.5-2.7,2.8-2.4,4.1-5.4,4.3-9,0-.3,.1-.4,.4-.4h11.6c.4,0,.3,.2,.3,.4-.1,3.2-.7,6.3-2,9.3-.3,.8-.7,1.5-1,2.3v.1c-.2,.1-.3,.3-.3,.5h0c-.3,.2-.4,.6-.6,.9,0,0,0,.1-.1,.1,0,.1-.1,.1-.1,.2-.3,.5-.7,.9-.9,1.4h-.1v.1s0,.1-.1,.1c-.2,.2-.4,.5-.6,.7,0,.1-.1,.1-.1,.2-.5,.6-1.1,1.1-1.6,1.7-.7,.6-1.4,1.1-2,1.7-.1,0-.1,.1-.2,.1h0l-.1,.1h0s-.1,0-.1,.1c0,0-.1,0-.1,.1h-.1s-.1,0-.1,.1h0c-.4,.2-.7,.4-1,.7h0c-.5,.2-1,.5-1.4,.8h0c-.2,.1-.3,.1-.5,.2-2.2,1.1-4.5,1.9-6.9,2.4-1.4-.1-2.6,0-3.7,.1"/>
  </g>
  <g id="c" class="g">
    <path class="e" d="M191,20.65h5.7c.4,0,.5,.1,.5,.5v8.2c0,.4,.1,.5,.5,.5h8.2c.4,0,.5,.1,.5,.5v11.4c0,.4-.1,.5-.5,.5h-8.2c-.4,0-.5,.1-.5,.5v8.2c0,.4-.1,.5-.5,.5h-11.3c-.4,0-.5-.1-.5-.6v-8.1c0-.4-.1-.5-.5-.5h-8.2c-.4,0-.5-.1-.5-.5v-6.1c0-.8,.1-1.6,0-2.4,0-.9,0-1.9-.1-2.8,0-.4,.1-.4,.5-.4h8.2c.4,0,.5-.1,.5-.5v-8.1c0-.4,.1-.5,.5-.5,1.9-.3,3.8-.3,5.7-.3"/>
  </g>
  <g class="f">
    <path class="d" d="M44.7,38.25c3.3,3.2,4.9,7.9,4.9,14.2v24.7h-12.4v-22.7c0-3.4-.7-6-2.2-7.6-1.5-1.7-3.7-2.5-6.5-2.5-3.1,0-5.7,1-7.5,2.9-1.9,1.9-2.8,4.8-2.8,8.7v21.2H5.7V17.75h12.5v20.8c1.7-1.7,3.7-2.9,6-3.8,2.3-.9,4.9-1.3,7.7-1.3,5.3,0,9.6,1.6,12.8,4.8Z"/>
    <path class="d" d="M100.5,59.15h-32.5c.6,2.7,2,4.8,4.2,6.3,2.2,1.5,4.9,2.3,8.2,2.3,2.2,0,4.2-.3,6-1,1.7-.7,3.3-1.7,4.8-3.2l6.6,7.2c-4.1,4.6-10,7-17.8,7-4.9,0-9.1-.9-12.9-2.8-3.7-1.9-6.6-4.5-8.6-7.9s-3-7.2-3-11.4,1-8,3-11.4,4.7-6,8.2-7.9c3.5-1.9,7.4-2.8,11.7-2.8s8,.9,11.4,2.7,6.1,4.4,8,7.8c1.9,3.4,2.9,7.3,2.9,11.8,.1,.1,0,1.2-.2,3.3Zm-29.2-13.8c-1.9,1.6-3.1,3.8-3.5,6.6h21.2c-.4-2.7-1.6-4.9-3.5-6.5s-4.3-2.4-7-2.4c-2.9-.1-5.2,.7-7.2,2.3Z"/>
    <path class="d" d="M106.3,17.75h12.5v59.4h-12.5V17.75Z"/>
    <path class="d" d="M127.6,17.75h12.5v59.4h-12.5V17.75Z"/>
  </g>
  <g>
    <path class="d" d="M280.9,38.25c3.2,3.2,4.8,7.9,4.8,14.3v24.6h-12.5v-22.7c0-3.4-.7-6-2.1-7.6-1.4-1.7-3.4-2.5-6-2.5-2.9,0-5.3,.9-7,2.8-1.7,1.9-2.6,4.7-2.6,8.4v21.6h-12.5v-22.7c0-6.8-2.7-10.2-8.2-10.2-2.9,0-5.2,.9-6.9,2.8-1.7,1.9-2.6,4.7-2.6,8.4v21.7h-12.5V34.15h11.9v5c1.6-1.8,3.6-3.2,5.9-4.2,2.3-1,4.9-1.4,7.6-1.4,3,0,5.8,.6,8.2,1.8,2.5,1.2,4.4,2.9,5.9,5.2,1.8-2.2,4-4,6.7-5.2s5.6-1.8,8.8-1.8c5.7-.1,10,1.5,13.1,4.7Z"/>
    <path class="d" d="M338.1,59.15h-32.6c.6,2.7,2,4.8,4.2,6.3,2.2,1.5,4.9,2.3,8.2,2.3,2.2,0,4.2-.3,6-1,1.7-.7,3.3-1.7,4.8-3.2l6.6,7.2c-4.1,4.6-10,7-17.8,7-4.9,0-9.1-.9-12.9-2.8-3.7-1.9-6.6-4.5-8.6-7.9s-3-7.2-3-11.4,1-8,3-11.4,4.7-6,8.2-7.9,7.4-2.8,11.7-2.8,8,.9,11.4,2.7,6.1,4.4,8,7.8c1.9,3.4,2.9,7.3,2.9,11.8,.1,.1,.1,1.2-.1,3.3Zm-29.2-13.8c-1.9,1.6-3.1,3.8-3.5,6.6h21.2c-.4-2.7-1.6-4.9-3.5-6.5s-4.3-2.4-7-2.4c-2.9-.1-5.3,.7-7.2,2.3Z"/>
    <path class="d" d="M389.3,17.75v59.4h-11.9v-5c-3.1,3.7-7.6,5.6-13.4,5.6-4.1,0-7.7-.9-11-2.7-3.3-1.8-5.9-4.4-7.7-7.8-1.9-3.4-2.8-7.3-2.8-11.7s.9-8.3,2.8-11.7,4.4-5.9,7.7-7.8c3.3-1.8,6.9-2.7,11-2.7,5.5,0,9.8,1.7,12.9,5.2V17.75h12.4Zm-15.4,46.6c2.1-2.2,3.1-5.1,3.1-8.7s-1-6.5-3.1-8.7-4.7-3.2-7.8-3.2-5.8,1.1-7.9,3.2-3.1,5.1-3.1,8.7,1,6.5,3.1,8.7c2.1,2.2,4.7,3.2,7.9,3.2,3.1,0,5.8-1.1,7.8-3.2Z"/>
  </g>
</svg>
